<svg xmlns="http://www.w3.org/2000/svg" width="131.22" height="54.54" viewBox="4.6 4.7 131.22 54.54"><path d="M24.04 59.24q-2.22 0-4.53-.48t-4.59-1.44q-3.72-1.62-6-4.23-2.28-2.61-3.3-5.91-1.02-3.3-1.02-6.9 0-3.78.93-7.56t2.61-7.23q1.68-3.45 3.78-6.15-.42-1.56-.69-3.6-.27-2.04-.27-4.14 0-3.18.72-6.06.24-.84.84-.84.42 0 .42.6 0 .36-.06.54-.12.9-.21 1.86-.09.96-.09 1.98 0 2.04.24 4.02.24 1.98.54 3.66 4.38-5.7 10.05-8.49 5.67-2.79 11.91-2.79 1.62 0 3.12.18 4.8.54 7.86 2.37 3.06 1.83 4.53 4.47 1.47 2.64 1.47 5.58 0 2.88-1.32 5.7-1.32 2.82-3.84 5.13-2.52 2.31-6.15 3.72-3.63 1.41-8.19 1.41-1.02 0-2.04-.06t-2.22-.24q-4.74-.72-8.64-3.06-3.9-2.34-6.3-7.2-.48.6-1.32 2.43-.84 1.83-1.68 4.41t-1.44 5.61q-.6 3.03-.6 6.09 0 2.94.78 5.67t2.7 4.8q1.92 2.07 5.22 3.09 1.62.48 3.36.72 1.74.24 3.54.24 3.48 0 6.9-.9 3.42-.9 6.36-2.64 3.9-2.28 6-5.31t3.9-6.81q.24-.6.66-.6.3 0 .3.42 0 .3-.24.72-1.26 2.64-2.52 4.83t-2.94 4.05q-1.68 1.86-4.26 3.66-2.94 2.04-6.6 3.36-3.66 1.32-7.68 1.32Zm8.4-26.16q4.14 0 7.32-1.23 3.18-1.23 5.37-3.24 2.19-2.01 3.3-4.47 1.11-2.46 1.11-4.98 0-2.46-1.14-4.68-1.14-2.22-3.45-3.81-2.31-1.59-5.91-2.07-1.32-.18-2.64-.18-4.08 0-8.01 1.71-3.93 1.71-7.41 4.8t-6.18 7.23q2.1 5.22 5.91 7.68t8.73 3.06q1.56.18 3 .18Zm17.64 19.98q-2.28 0-3.36-1.53t-1.08-3.75q0-2.7 1.26-5.64 1.2-2.76 3.06-5.04 1.86-2.28 4.02-3.69Q56.14 32 58.18 32q2.28 0 3.36 1.5t1.08 3.78q0 2.76-1.26 5.64-.72 1.62-2.04 3.57-1.32 1.95-3 3.57.36.66 1.02 1.11.66.45 1.8.45 1.44 0 2.73-1.2t2.37-2.91q1.08-1.71 1.92-3.45.84-1.74 1.38-2.82.18-.36.6-.36.24 0 .36.21t-.06.63q-.36.9-1.2 2.67t-2.04 3.66q-1.2 1.89-2.76 3.21-1.56 1.32-3.48 1.32-1.32 0-2.28-.45-.96-.45-1.56-1.11-1.26.96-2.52 1.5t-2.52.54Zm.9-1.32q1.62 0 3.48-1.56-.48-.72-.72-1.5t-.24-1.44q0-1.08.51-1.86t1.59-.78q.78 0 1.29.57t.51 1.29q0 .18-.03.33-.03.15-.09.33 1.02-1.38 1.92-3.24 1.98-4.26 1.98-7.02 0-1.38-.54-2.16-.54-.78-1.62-.78-1.26 0-2.73 1.08t-2.82 2.88q-1.35 1.8-2.37 4.02-.96 2.04-1.53 3.93Q49 47.72 49 49.1q0 1.2.48 1.92t1.5.72Zm19.2 1.32q-2.28 0-3.36-1.53t-1.08-3.75q0-2.7 1.26-5.64 1.2-2.76 3.06-5.04 1.86-2.28 4.02-3.69Q76.24 32 78.28 32q2.28 0 3.36 1.5t1.08 3.78q0 2.76-1.26 5.64-.72 1.62-2.04 3.57-1.32 1.95-3 3.57.36.66 1.02 1.11.66.45 1.8.45 1.44 0 2.73-1.2t2.37-2.91q1.08-1.71 1.92-3.45.84-1.74 1.38-2.82.18-.36.6-.36.24 0 .36.21t-.06.63q-.36.9-1.2 2.67t-2.04 3.66q-1.2 1.89-2.76 3.21-1.56 1.32-3.48 1.32-1.32 0-2.28-.45-.96-.45-1.56-1.11-1.26.96-2.52 1.5t-2.52.54Zm.9-1.32q1.62 0 3.48-1.56-.48-.72-.72-1.5t-.24-1.44q0-1.08.51-1.86t1.59-.78q.78 0 1.29.57t.51 1.29q0 .18-.03.33-.03.15-.09.33 1.02-1.38 1.92-3.24 1.98-4.26 1.98-7.02 0-1.38-.54-2.16-.54-.78-1.62-.78-1.26 0-2.73 1.08t-2.82 2.88q-1.35 1.8-2.37 4.02-.96 2.04-1.53 3.93-.57 1.89-.57 3.27 0 1.2.48 1.92t1.5.72Zm27.18 1.74q-1.62-.18-2.91-1.53t-1.77-3.63q-.06-.42-.09-.75t-.03-.75q0-2.4 1.08-3.87 1.08-1.47 1.98-1.53.96.06 2.34-.45t2.4-1.41q1.74-1.38 1.74-2.82 0-1.5-1.74-1.5-.96 0-2.43.66-1.47.66-3.39 2.28-2.4 2.04-4.98 5.46-.36.78-.84 2.31t-.81 3.15q-.33 1.62-.33 2.76 0 .9.3 1.2H85q-.66 0-.66-.54 0-.18.06-.3t.12-.48q.84-3.12 2.22-5.88 1.38-2.76 2.76-5.82-2.1 3.9-3.81 6.87t-2.61 3.81q-.12.12-.3.12-.24 0-.33-.3-.09-.3.15-.6 1.26-1.68 2.91-4.62 1.65-2.94 3.51-6.57 1.86-3.63 3.78-7.35 1.92-3.72 3.75-7.02 1.83-3.3 3.33-5.58 1.08-1.62 2.04-2.31t1.98-.69h.3q.54 0 1.23.18t1.29.06q-1.14.9-2.76 2.94-1.62 2.04-3.42 4.86-1.8 2.82-3.63 6-1.83 3.18-3.45 6.3-.6 1.2-1.14 2.52-.54 1.32-1.02 2.64 1.26-1.56 2.88-3.24 1.62-1.68 3.39-3.09t3.51-2.07q1.98-.72 3.3-.72 1.38 0 2.01.66.63.66.63 1.68 0 1.14-.9 2.73t-2.46 2.73q-1.32.9-2.76 1.56-1.44.66-3.42.84-.36.84-.51 1.71-.15.87-.15 1.71 0 2.34 1.08 4.11 1.08 1.77 2.82 1.77.84 0 1.83-.48.99-.48 2.07-1.62 1.2-1.2 2.43-3.42 1.23-2.22 2.49-4.86.24-.48.54-.48.36 0 .36.48 0 .24-.18.6-1.74 4.02-3.33 6.39t-3.06 3.54q-1.47 1.17-2.85 1.47-1.38.3-2.76.18Zm17.7-24.78q-.9 0-1.47-.63t-.57-1.53q0-1.14.9-1.98.9-.84 1.98-.84.96 0 1.56.6.6.6.6 1.44 0 1.14-.9 2.04-.9.9-2.1.9Zm-4.86 24.36q-2.22 0-3.12-1.29-.9-1.29-.9-2.97 0-.9.21-1.83t.51-1.71L111.82 35q.18-.48.18-.84 0-.6-.3-1.05l-.42-.63 3.3-.12q.9-.06 1.29.21t.39.63q0 .36-.42 1.32l-4.98 11.7-.33.75q-.33.75-.39.99-.18.9-.24 1.14-.06.24-.06.3v.48q0 .78.39 1.32t1.35.54q.6 0 1.38-.36.78-.36 1.14-.72 1.5-1.56 2.97-4.11 1.47-2.55 2.73-5.07.24-.6.6-.6.3 0 .3.42 0 .24-.18.72-.6 1.26-1.5 3.12t-2.13 3.69q-1.23 1.83-2.67 3.03-1.44 1.2-3.12 1.2Zm12.96.24q-2.22 0-3.99-1.44t-1.77-4.38q0-2.7 1.32-5.79t3.36-5.43q1.74-2.04 3.9-3.36 2.16-1.32 4.08-1.32 1.32 0 2.28.72 1.02.78 1.02 2.22 0 1.5-1.14 3.3-1.14 1.8-3.24 3.36-.9.66-2.28 1.26t-2.76.99q-1.38.39-2.28.39-.3.72-.57 1.92-.27 1.2-.27 2.46 0 1.5.6 2.7.6 1.2 2.22 1.2 1.98 0 3.6-1.14t2.88-2.85q1.26-1.71 2.13-3.45.87-1.74 1.41-2.94.36-.84.96-.84.3 0 .3.3 0 .24-.18.6-.84 1.8-1.8 3.81-.96 2.01-2.28 3.78-1.32 1.77-3.15 2.85-1.83 1.08-4.35 1.08Zm-1.08-10.56q.84 0 2.82-.63t3.6-2.01q1.56-1.38 2.4-3.03.84-1.65.84-2.79 0-1.32-.96-1.32-.72 0-1.98.96t-3.12 3.24q-1.14 1.44-2.16 3.12-1.02 1.68-1.44 2.46Z"/></svg>