<svg version="1.1" xmlns="http://www.w3.org/2000/svg" xmlns:xlink="http://www.w3.org/1999/xlink" role="img" width="249.2933349609375" height="73.5" viewBox="-1.8799999952316284 2.119999885559082 249.2933349609375 73.5"><title>Great Vibes</title><path fill="#000000" d="M5.98 75.62L5.98 75.62Q3.94 75.62 2.50 75.08L2.50 75.08Q0.22 74.24-0.83 73.13Q-1.88 72.02-1.88 70.76L-1.88 70.76Q-1.88 69.14-0.29 67.37Q1.30 65.60 4.12 63.95Q6.94 62.30 10.60 61.07Q14.26 59.84 18.40 59.24L18.40 59.24Q20.26 58.94 22.51 58.76Q24.76 58.58 27.07 58.43Q29.38 58.28 31.24 58.28L31.24 58.28Q33.46 54.50 34.87 51.14Q36.28 47.78 37.36 43.40L37.36 43.40L37.60 42.44Q36.46 43.52 34.39 45.05Q32.32 46.58 29.59 48.11Q26.86 49.64 23.77 50.66Q20.68 51.68 17.44 51.68L17.44 51.68Q14.92 51.68 12.58 50.90L12.58 50.90Q10.06 50.00 8.05 47.87Q6.04 45.74 4.87 42.59Q3.70 39.44 3.70 35.60L3.70 35.60Q3.70 32.78 4.42 29.57Q5.14 26.36 6.76 23.00L6.76 23.00Q4.90 21.08 3.85 18.74Q2.80 16.40 2.80 13.94L2.80 13.94Q2.80 11.78 3.70 9.65Q4.60 7.52 6.52 5.54L6.52 5.54Q7.06 4.94 7.54 4.94L7.54 4.94Q7.78 4.94 7.78 5.18L7.78 5.18Q7.78 5.54 7.36 6.02L7.36 6.02Q5.98 7.70 5.32 9.56Q4.66 11.42 4.66 13.28L4.66 13.28Q4.66 15.38 5.47 17.42Q6.28 19.46 7.78 21.20L7.78 21.20Q8.08 20.60 8.41 20.00Q8.74 19.40 9.10 18.80L9.10 18.80Q11.98 14.12 16.15 10.76Q20.32 7.40 25.06 5.57Q29.80 3.74 34.30 3.74L34.30 3.74Q35.08 3.74 35.83 3.80Q36.58 3.86 37.36 3.98L37.36 3.98Q43.18 4.88 46.06 7.88Q48.94 10.88 48.94 14.60L48.94 14.60Q48.94 17.18 47.53 19.76Q46.12 22.34 43.27 24.50Q40.42 26.66 36.19 27.98Q31.96 29.30 26.38 29.42L26.38 29.42Q22 29.48 17.74 28.31Q13.48 27.14 10.54 25.22L10.54 25.22Q9.04 28.40 8.35 31.43Q7.66 34.46 7.66 37.10L7.66 37.10Q7.66 41.54 9.52 44.72Q11.38 47.90 14.68 48.98L14.68 48.98Q15.64 49.28 16.63 49.40Q17.62 49.52 18.58 49.52L18.58 49.52Q21.28 49.52 24.01 48.71Q26.74 47.90 29.08 46.58Q31.42 45.26 33.07 43.79Q34.72 42.32 35.26 41.06L35.26 41.06Q36.64 37.94 37.99 36.71Q39.34 35.48 40.42 35.48L40.42 35.48Q41.32 35.48 41.95 36.29Q42.58 37.10 42.40 38.48L42.40 38.48Q41.80 43.46 39.67 48.14Q37.54 52.82 34.18 58.28L34.18 58.28Q38.26 58.34 41.53 58.73Q44.80 59.12 47.44 59.78L47.44 59.78Q48.16 59.96 48.43 60.23Q48.70 60.50 48.70 60.68L48.70 60.68Q48.70 61.10 47.98 61.10L47.98 61.10Q47.62 61.10 46.96 60.92L46.96 60.92Q45.58 60.56 43.30 60.29Q41.02 60.02 38.41 59.90Q35.80 59.78 33.40 59.78L33.40 59.78Q30.88 63.38 27.43 66.29Q23.98 69.20 20.14 71.30Q16.30 73.40 12.61 74.51Q8.92 75.62 5.98 75.62ZM24.76 27.62L24.76 27.62Q25.42 27.62 26.08 27.59Q26.74 27.56 27.40 27.50L27.40 27.50Q33.46 26.90 37.69 24.71Q41.92 22.52 44.11 19.52Q46.30 16.52 46.30 13.64L46.30 13.64Q46.30 10.82 44.17 8.63Q42.04 6.44 37.66 5.78L37.66 5.78Q37.06 5.66 36.67 5.66Q36.28 5.66 35.62 5.66L35.62 5.66Q31.72 5.66 27.55 7.52Q23.38 9.38 19.63 12.71Q15.88 16.04 13.18 20.42L13.18 20.42Q12.52 21.56 12.16 22.16Q11.80 22.76 11.32 23.60L11.32 23.60Q13.78 25.46 17.29 26.54Q20.80 27.62 24.76 27.62ZM5.92 73.76L5.92 73.76Q8.26 73.76 11.44 72.89Q14.62 72.02 18.07 70.25Q21.52 68.48 24.70 65.90Q27.88 63.32 30.28 59.90L30.28 59.90Q27.40 59.96 24.61 60.17Q21.82 60.38 19.06 60.86L19.06 60.86Q16.12 61.34 12.97 62.51Q9.82 63.68 7.15 65.24Q4.48 66.80 2.83 68.39Q1.18 69.98 1.18 71.30L1.18 71.30Q1.18 72.08 1.87 72.68Q2.56 73.28 4.06 73.58L4.06 73.58Q4.90 73.76 5.92 73.76ZM53.62 53.12L53.62 53.12Q52.48 53.12 51.34 52.19Q50.20 51.26 50.20 49.16L50.20 49.16Q50.20 47.54 50.98 45.44L50.98 45.44Q51.70 43.40 52.93 41.48Q54.16 39.56 54.70 38.36L54.70 38.36Q54.88 37.88 54.88 37.52L54.88 37.52Q54.88 36.44 53.53 35.96Q52.18 35.48 50.02 35.42L50.02 35.42L49.30 37.40Q48.64 39.32 47.47 41.90Q46.30 44.48 44.89 46.88Q43.48 49.28 41.98 50.72L41.98 50.72Q41.86 50.84 41.68 50.84L41.68 50.84Q41.44 50.84 41.35 50.54Q41.26 50.24 41.62 49.82L41.62 49.82Q43.96 46.70 45.82 42.89Q47.68 39.08 48.97 35.12Q50.26 31.16 50.86 27.80L50.86 27.80Q51.04 26.84 51.52 26.39Q52 25.94 52.54 25.94L52.54 25.94Q53.32 25.94 53.98 26.69Q54.64 27.44 54.64 28.82L54.64 28.82Q54.64 29.06 54.61 29.36Q54.58 29.66 54.52 29.96L54.52 29.96Q54.28 31.22 53.11 32.33Q51.94 33.44 51.22 33.98L51.22 33.98Q51.82 34.04 52.48 34.07Q53.14 34.10 53.92 34.10L53.92 34.10Q56.74 34.10 59.50 33.74L59.50 33.74Q59.62 34.10 59.62 34.28L59.62 34.28Q59.62 35.06 59.17 36.26Q58.72 37.46 58.24 38.42L58.24 38.42Q58 38.96 57.28 40.37Q56.56 41.78 55.72 43.55Q54.88 45.32 54.31 47.03Q53.74 48.74 53.74 49.94L53.74 49.94Q53.74 51.50 54.94 51.50L54.94 51.50Q55.84 51.50 56.92 50.33Q58 49.16 59.05 47.45Q60.10 45.74 60.97 44.09Q61.84 42.44 62.32 41.48L62.32 41.48Q62.56 40.88 62.98 40.88L62.98 40.88Q63.22 40.88 63.22 41.30L63.22 41.30Q63.22 41.54 63.04 42.02L63.04 42.02Q62.38 43.40 61.48 45.14Q60.58 46.88 59.47 48.56Q58.36 50.24 57.07 51.47Q55.78 52.70 54.28 53.06L54.28 53.06Q54.10 53.12 53.62 53.12ZM66.40 53.30L66.40 53.30Q64.18 53.30 62.41 51.86Q60.64 50.42 60.64 47.48L60.64 47.48Q60.64 44.78 61.96 41.69Q63.28 38.60 65.32 36.26L65.32 36.26Q67.06 34.22 69.22 32.90Q71.38 31.58 73.30 31.58L73.30 31.58Q74.62 31.58 75.58 32.30L75.58 32.30Q76.60 33.08 76.60 34.52L76.60 34.52Q76.60 36.02 75.46 37.82Q74.32 39.62 72.22 41.18L72.22 41.18Q71.32 41.84 69.94 42.44Q68.56 43.04 67.18 43.43Q65.80 43.82 64.90 43.82L64.90 43.82Q64.60 44.54 64.33 45.74Q64.06 46.94 64.06 48.20L64.06 48.20Q64.06 49.70 64.66 50.90Q65.26 52.10 66.88 52.10L66.88 52.10Q68.86 52.10 70.48 50.96Q72.10 49.82 73.36 48.11Q74.62 46.40 75.49 44.66Q76.36 42.92 76.90 41.72L76.90 41.72Q77.26 40.88 77.86 40.88L77.86 40.88Q78.16 40.88 78.16 41.18L78.16 41.18Q78.16 41.42 77.98 41.78L77.98 41.78Q77.14 43.58 76.18 45.59Q75.22 47.60 73.90 49.37Q72.58 51.14 70.75 52.22Q68.92 53.30 66.40 53.30ZM65.32 42.74L65.32 42.74Q66.16 42.74 68.14 42.11Q70.12 41.48 71.74 40.10L71.74 40.10Q73.30 38.72 74.14 37.07Q74.98 35.42 74.98 34.28L74.98 34.28Q74.98 32.96 74.02 32.96L74.02 32.96Q73.30 32.96 72.04 33.92Q70.78 34.88 68.92 37.16L68.92 37.16Q67.78 38.60 66.76 40.28Q65.74 41.96 65.32 42.74ZM89.98 53.24L89.98 53.24Q89.32 53.30 88.48 52.94Q87.64 52.58 87.01 51.62Q86.38 50.66 86.38 48.92L86.38 48.92Q86.38 47.48 86.92 45.44L86.92 45.44Q86.20 46.58 85.06 48.23Q83.92 49.88 82.60 51.14L82.60 51.14Q81.46 52.22 80.44 52.70Q79.42 53.18 78.58 53.18L78.58 53.18Q77.02 53.18 76.06 51.77Q75.10 50.36 75.10 48.08L75.10 48.08Q75.10 45.68 76.30 42.62Q77.50 39.56 80.20 36.26L80.20 36.26Q81.94 34.16 84.43 32.87Q86.92 31.58 89.32 31.58L89.32 31.58Q90.70 31.58 91.96 32.03Q93.22 32.48 94.18 33.50L94.18 33.50Q94.60 33.92 94.60 34.46L94.60 34.46Q94.60 34.82 94.30 35.06Q94 35.30 93.52 35.18L93.52 35.18Q92.86 33.08 90.70 33.08L90.70 33.08Q89.68 33.08 88.36 33.74L88.36 33.74Q86.32 34.82 84.13 37.28Q81.94 39.74 80.32 42.38L80.32 42.38Q80.08 42.74 79.57 43.76Q79.06 44.78 78.58 46.04Q78.10 47.30 77.92 48.50L77.92 48.50Q77.86 48.86 77.86 49.01Q77.86 49.16 77.86 49.46L77.86 49.46Q77.86 51.44 79.36 51.44L79.36 51.44Q81.16 51.44 83.44 48.80L83.44 48.80Q85 46.88 86.26 44.78Q87.52 42.68 88.84 40.28L88.84 40.28Q89.74 38.66 90.52 37.58Q91.30 36.50 92.74 36.50L92.74 36.50Q93.40 36.50 94.06 36.68Q94.72 36.86 95.44 36.74L95.44 36.74Q94.96 37.22 94.15 38.54Q93.34 39.86 92.44 41.54Q91.54 43.22 90.82 44.96Q90.10 46.70 89.80 47.96L89.80 47.96Q89.74 48.32 89.65 48.98Q89.56 49.64 89.56 49.94L89.56 49.94Q89.56 51.62 90.52 51.62L90.52 51.62Q91.48 51.62 92.59 50.48Q93.70 49.34 94.78 47.66Q95.86 45.98 96.76 44.27Q97.66 42.56 98.20 41.48L98.20 41.48Q98.44 40.88 98.92 40.88L98.92 40.88Q99.22 40.88 99.22 41.30L99.22 41.30Q99.22 41.48 99.04 41.96L99.04 41.96Q98.32 43.46 97.30 45.35Q96.28 47.24 95.08 49.01Q93.88 50.78 92.59 51.95Q91.30 53.12 89.98 53.24ZM101.08 53.06L101.08 53.06Q99.40 53.06 98.08 51.89Q96.76 50.72 96.76 48.20L96.76 48.20Q96.76 46.22 97.51 43.31Q98.26 40.40 99.37 37.25Q100.48 34.10 101.56 31.52L101.56 31.52L98.38 31.52Q97.96 31.52 97.96 30.92L97.96 30.92Q97.96 30.62 98.11 30.38Q98.26 30.14 98.56 30.14L98.56 30.14L102.16 30.14Q103.18 27.86 104.32 25.70Q105.46 23.54 106.54 21.62L106.54 21.62Q107.92 19.22 109.48 18.02Q111.04 16.82 112.18 16.82L112.18 16.82Q113.08 16.82 113.68 17.51Q114.28 18.20 114.28 19.58L114.28 19.58Q114.28 20.42 113.92 21.89Q113.56 23.36 112.78 24.98L112.78 24.98Q112.36 25.82 111.61 27.38Q110.86 28.94 110.14 30.14L110.14 30.14L113.02 30.14Q113.44 30.14 113.44 30.74L113.44 30.74Q113.44 30.98 113.32 31.25Q113.20 31.52 112.96 31.52L112.96 31.52L109.42 31.52Q107.92 34.10 106 36.56Q104.08 39.02 101.44 41.48L101.44 41.48Q101.26 42.02 100.99 43.04Q100.72 44.06 100.51 45.11Q100.30 46.16 100.15 46.88Q100 47.60 100 47.60L100 47.60Q99.82 48.38 99.82 49.04L99.82 49.04Q99.82 50.30 100.42 50.87Q101.02 51.44 101.80 51.44L101.80 51.44Q102.28 51.44 102.76 51.29Q103.24 51.14 103.84 50.72L103.84 50.72Q105.94 49.22 107.53 46.64Q109.12 44.06 110.32 41.66L110.32 41.66Q110.68 40.94 111.04 40.94L111.04 40.94Q111.28 40.94 111.28 41.30L111.28 41.30Q111.28 41.48 111.10 41.96L111.10 41.96Q109.78 44.72 108.88 46.40Q107.98 48.08 107.14 49.19Q106.30 50.30 105.16 51.38L105.16 51.38Q104.32 52.22 103.24 52.64Q102.16 53.06 101.08 53.06ZM105.82 30.14L105.82 30.14L108.88 30.14Q109.72 28.58 110.47 27.08Q111.22 25.58 111.82 24.08L111.82 24.08Q112.24 23.12 112.54 21.92Q112.84 20.72 112.84 20.06L112.84 20.06Q112.84 19.16 112.42 19.16L112.42 19.16Q112.12 19.16 111.55 19.67Q110.98 20.18 110.14 21.38L110.14 21.38Q109.06 22.88 108.01 25.25Q106.96 27.62 105.82 30.14ZM101.92 39.56L101.92 39.56Q103.66 37.76 105.19 35.72Q106.72 33.68 108.04 31.52L108.04 31.52L105.22 31.52Q104.26 33.74 103.42 35.84Q102.58 37.94 101.92 39.56ZM155.44 58.82L155.44 58.82Q155.14 58.82 154.90 58.82Q154.66 58.82 154.42 58.76L154.42 58.76Q151.54 58.22 151.54 53.60L151.54 53.60Q151.54 49.88 153.40 43.58Q155.26 37.28 159.04 28.40L159.04 28.40Q160.12 25.88 161.20 22.73Q162.28 19.58 163.03 16.40Q163.78 13.22 163.78 10.64L163.78 10.64Q163.78 8.78 163.30 7.37Q162.82 5.96 161.68 5.30L161.68 5.30Q160.36 4.46 158.77 4.07Q157.18 3.68 155.44 3.68L155.44 3.68Q152.32 3.68 148.90 4.79Q145.48 5.90 142.12 7.88Q138.76 9.86 135.76 12.50Q132.76 15.14 130.45 18.23Q128.14 21.32 126.94 24.62L126.94 24.62Q126.16 26.84 125.77 28.82Q125.38 30.80 125.38 32.54L125.38 32.54Q125.38 36.14 126.82 38.57Q128.26 41 130.57 42.20Q132.88 43.40 135.46 43.40L135.46 43.40Q137.98 43.40 140.47 42.17Q142.96 40.94 144.97 38.90Q146.98 36.86 148.18 34.40Q149.38 31.94 149.38 29.42L149.38 29.42Q149.38 27.38 148.54 25.85Q147.70 24.32 145.72 24.32L145.72 24.32Q145.30 24.32 144.85 24.38Q144.40 24.44 143.92 24.62L143.92 24.62Q143.32 24.80 142.96 24.80L142.96 24.80Q142.66 24.80 142.66 24.62L142.66 24.62Q142.66 24.50 142.90 24.23Q143.14 23.96 143.56 23.78L143.56 23.78Q145.30 23.00 146.80 23.00L146.80 23.00Q149.26 23.00 150.64 24.86Q152.02 26.72 152.02 29.36L152.02 29.36Q152.02 32.24 150.37 35Q148.72 37.76 146.08 40.01Q143.44 42.26 140.38 43.61Q137.32 44.96 134.50 44.96L134.50 44.96Q131.32 44.96 128.44 43.22Q125.56 41.48 123.76 38.33Q121.96 35.18 121.96 30.98L121.96 30.98Q121.96 29.06 122.41 26.96Q122.86 24.86 123.82 22.64L123.82 22.64Q125.80 18.08 129.34 14.30Q132.88 10.52 137.26 7.79Q141.64 5.06 146.20 3.59Q150.76 2.12 154.90 2.12L154.90 2.12Q158.56 2.12 161.44 3.38L161.44 3.38Q164.62 4.76 165.94 7.46Q167.26 10.16 167.26 13.52L167.26 13.52Q167.26 17.18 166.03 21.29Q164.80 25.40 162.94 29.12L162.94 29.12Q161.02 33.02 159.46 37.25Q157.90 41.48 156.82 45.29Q155.74 49.10 155.26 51.86L155.26 51.86Q155.14 52.52 155.08 53.09Q155.02 53.66 155.02 54.14L155.02 54.14Q155.02 56.96 156.88 56.96L156.88 56.96Q158.14 56.96 159.88 55.91Q161.62 54.86 163.51 53.30Q165.40 51.74 167.14 50.03Q168.88 48.32 170.14 46.97Q171.40 45.62 171.88 45.08L171.88 45.08Q176.92 39.20 179.80 33.29Q182.68 27.38 182.68 22.64L182.68 22.64Q182.68 21.56 182.50 20.48L182.50 20.48Q182.26 18.92 181.84 18.32Q181.42 17.72 180.88 17.60Q180.34 17.48 179.62 17.36L179.62 17.36Q178.84 17.24 178.45 16.88Q178.06 16.52 178.06 16.22L178.06 16.22Q178.06 15.62 179.08 15.62L179.08 15.62Q179.20 15.62 179.41 15.65Q179.62 15.68 179.86 15.74L179.86 15.74Q181 16.04 182.38 17.06Q183.76 18.08 184.78 19.82Q185.80 21.56 185.80 24.20L185.80 24.20Q185.80 26.66 184.66 29.66L184.66 29.66Q182.98 34.04 180.28 38.27Q177.58 42.50 174.31 46.19Q171.04 49.88 167.62 52.73Q164.20 55.58 161.05 57.20Q157.90 58.82 155.44 58.82ZM191.32 28.70L191.32 28.70Q190.42 28.70 189.85 28.07Q189.28 27.44 189.28 26.54L189.28 26.54Q189.28 25.40 190.18 24.56Q191.08 23.72 192.16 23.72L192.16 23.72Q193.12 23.72 193.72 24.32Q194.32 24.92 194.32 25.76L194.32 25.76Q194.32 26.90 193.42 27.80Q192.52 28.70 191.32 28.70ZM186.46 53.06L186.46 53.06Q184.24 53.06 183.34 51.77Q182.44 50.48 182.44 48.80L182.44 48.80Q182.44 47.90 182.65 46.97Q182.86 46.04 183.16 45.26L183.16 45.26L187.18 35Q187.36 34.52 187.36 34.16L187.36 34.16Q187.36 33.56 187.06 33.11Q186.76 32.66 186.64 32.48L186.64 32.48L189.94 32.36Q190.84 32.30 191.23 32.57Q191.62 32.84 191.62 33.20L191.62 33.20Q191.62 33.56 191.20 34.52L191.20 34.52L186.22 46.22Q186.22 46.22 185.89 46.97Q185.56 47.72 185.50 47.96L185.50 47.96Q185.32 48.86 185.26 49.10Q185.20 49.34 185.20 49.40Q185.20 49.46 185.20 49.88L185.20 49.88Q185.20 50.66 185.59 51.20Q185.98 51.74 186.94 51.74L186.94 51.74Q187.54 51.74 188.32 51.38Q189.10 51.02 189.46 50.66L189.46 50.66Q190.96 49.10 192.43 46.55Q193.90 44.00 195.16 41.48L195.16 41.48Q195.40 40.88 195.76 40.88L195.76 40.88Q196.06 40.88 196.06 41.30L196.06 41.30Q196.06 41.54 195.88 42.02L195.88 42.02Q195.28 43.28 194.38 45.14Q193.48 47.00 192.25 48.83Q191.02 50.66 189.58 51.86Q188.14 53.06 186.46 53.06ZM199.48 53.12L199.48 53.12Q196.90 53.12 195.64 51.80Q194.38 50.48 194.38 48.50L194.38 48.50Q194.38 47.54 194.62 46.64L194.62 46.64Q194.98 45.26 195.67 43.55Q196.36 41.84 197.26 40.04L197.26 40.04Q195.16 44.12 193.45 46.91Q191.74 49.70 190.84 50.54L190.84 50.54Q190.66 50.72 190.48 50.72L190.48 50.72Q190.18 50.72 190.18 50.42L190.18 50.42Q190.18 50.18 190.36 49.94L190.36 49.94Q191.62 48.26 193.27 45.32Q194.92 42.38 196.78 38.75Q198.64 35.12 200.56 31.40Q202.48 27.68 204.31 24.38Q206.14 21.08 207.64 18.80L207.64 18.80Q208.72 17.18 209.68 16.49Q210.64 15.80 211.66 15.80L211.66 15.80L211.96 15.80Q212.50 15.80 213.19 15.98Q213.88 16.16 214.48 16.04L214.48 16.04Q213.70 16.88 212.11 19.01Q210.52 21.14 208.57 23.99Q206.62 26.84 204.67 29.99Q202.72 33.14 201.22 36.14L201.22 36.14Q199.78 39.02 198.67 42.29Q197.56 45.56 197.56 48.02L197.56 48.02Q197.56 49.46 198.04 50.42Q198.52 51.38 199.66 51.62L199.66 51.62Q201.58 52.04 204.82 48.20L204.82 48.20Q206.08 46.70 207.34 44.63Q208.60 42.56 209.32 40.76L209.32 40.76Q210.34 38.36 210.34 36.38L210.34 36.38Q210.34 34.88 209.59 33.98Q208.84 33.08 207.10 33.26L207.10 33.26L206.86 33.26Q205.78 33.26 205.78 32.66L205.78 32.66Q205.78 32.42 206.11 32.18Q206.44 31.94 207.04 31.94L207.04 31.94Q207.22 31.94 207.43 31.97Q207.64 32.00 207.88 32.06L207.88 32.06Q210.58 32.48 211.75 34.25Q212.92 36.02 212.92 38.30L212.92 38.30Q212.92 38.78 212.86 39.35Q212.80 39.92 212.68 40.58L212.68 40.58Q212.20 43.04 210.82 45.59Q209.44 48.14 207.43 50.06Q205.42 51.98 202.96 52.64L202.96 52.64Q201.94 52.88 201.07 53.00Q200.20 53.12 199.48 53.12ZM220.24 53.30L220.24 53.30Q218.02 53.30 216.25 51.86Q214.48 50.42 214.48 47.48L214.48 47.48Q214.48 44.78 215.80 41.69Q217.12 38.60 219.16 36.26L219.16 36.26Q220.90 34.22 223.06 32.90Q225.22 31.58 227.14 31.58L227.14 31.58Q228.46 31.58 229.42 32.30L229.42 32.30Q230.44 33.08 230.44 34.52L230.44 34.52Q230.44 36.02 229.30 37.82Q228.16 39.62 226.06 41.18L226.06 41.18Q225.16 41.84 223.78 42.44Q222.40 43.04 221.02 43.43Q219.64 43.82 218.74 43.82L218.74 43.82Q218.44 44.54 218.17 45.74Q217.90 46.94 217.90 48.20L217.90 48.20Q217.90 49.70 218.50 50.90Q219.10 52.10 220.72 52.10L220.72 52.10Q222.70 52.10 224.32 50.96Q225.94 49.82 227.20 48.11Q228.46 46.40 229.33 44.66Q230.20 42.92 230.74 41.72L230.74 41.72Q231.10 40.88 231.70 40.88L231.70 40.88Q232 40.88 232 41.18L232 41.18Q232 41.42 231.82 41.78L231.82 41.78Q230.98 43.58 230.02 45.59Q229.06 47.60 227.74 49.37Q226.42 51.14 224.59 52.22Q222.76 53.30 220.24 53.30ZM219.16 42.74L219.16 42.74Q220 42.74 221.98 42.11Q223.96 41.48 225.58 40.10L225.58 40.10Q227.14 38.72 227.98 37.07Q228.82 35.42 228.82 34.28L228.82 34.28Q228.82 32.96 227.86 32.96L227.86 32.96Q227.14 32.96 225.88 33.92Q224.62 34.88 222.76 37.16L222.76 37.16Q221.62 38.60 220.60 40.28Q219.58 41.96 219.16 42.74ZM232.24 53.30L232.24 53.30Q229.30 53.30 228.07 51.77Q226.84 50.24 226.84 48.56L226.84 48.56Q226.84 47.18 227.53 46.04Q228.22 44.90 229.18 44.84L229.18 44.84Q230.38 42.50 231.79 39.74Q233.20 36.98 234.40 34.40L234.40 34.40Q235.24 32.66 236.53 31.04Q237.82 29.42 239.38 29.18L239.38 29.18L239.98 29.18Q240.46 29.18 240.85 29.24Q241.24 29.30 241.66 29.48L241.66 29.48Q242.32 29.78 242.32 30.38L242.32 30.38Q242.32 30.74 241.90 30.74L241.90 30.74Q241.72 30.74 241.42 30.56L241.42 30.56Q240.70 30.26 240.16 30.26L240.16 30.26Q239.80 30.26 239.50 30.44L239.50 30.44Q238.36 31.04 237.91 32.12Q237.46 33.20 237.46 34.40L237.46 34.40Q237.46 35.36 237.67 36.35Q237.88 37.34 238.18 38.12L238.18 38.12Q238.84 39.80 239.59 41.42Q240.34 43.04 240.34 44.90L240.34 44.90Q240.34 46.70 239.14 48.71Q237.94 50.72 236.08 51.92L236.08 51.92L236.50 51.98Q236.80 52.04 236.92 52.04Q237.04 52.04 237.10 52.04L237.10 52.04Q238.48 52.04 239.71 51.23Q240.94 50.42 241.90 49.22L241.90 49.22Q242.86 48.02 244.09 45.86Q245.32 43.70 246.46 41.30L246.46 41.30Q246.64 41 246.88 41L246.88 41Q247.18 41 247.33 41.21Q247.48 41.42 247.36 41.72L247.36 41.72Q246.58 43.40 245.59 45.35Q244.60 47.30 243.34 49.07Q242.08 50.84 240.43 51.95Q238.78 53.06 236.74 53.06L236.74 53.06Q236.26 53.06 235.72 53.00Q235.18 52.94 234.64 52.76L234.64 52.76Q234.04 53.00 233.41 53.15Q232.78 53.30 232.24 53.30ZM234.04 51.50L234.04 51.50Q235.06 50.66 235.87 49.04Q236.68 47.42 236.68 44.78L236.68 44.78Q236.68 42.44 236.20 39.80Q235.72 37.16 235.72 35.12L235.72 35.12Q235.72 34.70 235.75 34.37Q235.78 34.04 235.84 33.74L235.84 33.74Q235.06 35.36 234.04 37.49Q233.02 39.62 232 41.60Q230.98 43.58 230.26 44.96L230.26 44.96Q230.26 44.96 230.59 44.99Q230.92 45.02 231.22 45.41Q231.52 45.80 231.46 46.94L231.46 46.94Q231.40 48.44 232.15 49.73Q232.90 51.02 234.04 51.50ZM231.76 52.34L231.76 52.34Q232.12 52.34 232.42 52.25Q232.72 52.16 232.96 52.10L232.96 52.10Q232.06 51.44 231.37 50.33Q230.68 49.22 230.56 47.48L230.56 47.48Q229.48 48.62 229.48 49.94L229.48 49.94Q229.48 50.90 230.08 51.62Q230.68 52.34 231.76 52.34Z"></path></svg>