<svg xmlns="http://www.w3.org/2000/svg" width="249.293" height="73.5" viewBox="-1.88 2.12 249.293 73.5"><path d="M5.98 75.62q-2.04 0-3.48-.54-2.28-.84-3.33-1.95-1.05-1.11-1.05-2.37 0-1.62 1.59-3.39t4.41-3.42q2.82-1.65 6.48-2.88 3.66-1.23 7.8-1.83 1.86-.3 4.11-.48t4.56-.33q2.31-.15 4.17-.15 2.22-3.78 3.63-7.14 1.41-3.36 2.49-7.74l.24-.96q-1.14 1.08-3.21 2.61-2.07 1.53-4.8 3.06t-5.82 2.55q-3.09 1.02-6.33 1.02-2.52 0-4.86-.78-2.52-.9-4.53-3.03-2.01-2.13-3.18-5.28Q3.7 39.44 3.7 35.6q0-2.82.72-6.03.72-3.21 2.34-6.57-1.86-1.92-2.91-4.26t-1.05-4.8q0-2.16.9-4.29t2.82-4.11q.54-.6 1.02-.6.24 0 .24.24 0 .36-.42.84Q5.98 7.7 5.32 9.56q-.66 1.86-.66 3.72 0 2.1.81 4.14.81 2.04 2.31 3.78.3-.6.63-1.2t.69-1.2q2.88-4.68 7.05-8.04 4.17-3.36 8.91-5.19 4.74-1.83 9.24-1.83.78 0 1.53.06t1.53.18q5.82.9 8.7 3.9 2.88 3 2.88 6.72 0 2.58-1.41 5.16t-4.26 4.74q-2.85 2.16-7.08 3.48-4.23 1.32-9.81 1.44-4.38.06-8.64-1.11-4.26-1.17-7.2-3.09-1.5 3.18-2.19 6.21t-.69 5.67q0 4.44 1.86 7.62 1.86 3.18 5.16 4.26.96.3 1.95.42t1.95.12q2.7 0 5.43-.81 2.73-.81 5.07-2.13 2.34-1.32 3.99-2.79 1.65-1.47 2.19-2.73 1.38-3.12 2.73-4.35 1.35-1.23 2.43-1.23.9 0 1.53.81t.45 2.19q-.6 4.98-2.73 9.66t-5.49 10.14q4.08.06 7.35.45 3.27.39 5.91 1.05.72.18.99.45t.27.45q0 .42-.72.42-.36 0-1.02-.18-1.38-.36-3.66-.63-2.28-.27-4.89-.39t-5.01-.12q-2.52 3.6-5.97 6.51-3.45 2.91-7.29 5.01-3.84 2.1-7.53 3.21-3.69 1.11-6.63 1.11Zm18.78-48q.66 0 1.32-.03t1.32-.09q6.06-.6 10.29-2.79 4.23-2.19 6.42-5.19 2.19-3 2.19-5.88 0-2.82-2.13-5.01t-6.51-2.85q-.6-.12-.99-.12h-1.05q-3.9 0-8.07 1.86t-7.92 5.19q-3.75 3.33-6.45 7.71-.66 1.14-1.02 1.74-.36.6-.84 1.44 2.46 1.86 5.97 2.94 3.51 1.08 7.47 1.08ZM5.92 73.76q2.34 0 5.52-.87 3.18-.87 6.63-2.64 3.45-1.77 6.63-4.35 3.18-2.58 5.58-6-2.88.06-5.67.27-2.79.21-5.55.69-2.94.48-6.09 1.65t-5.82 2.73q-2.67 1.56-4.32 3.15-1.65 1.59-1.65 2.91 0 .78.69 1.38.69.6 2.19.9.84.18 1.86.18Zm47.7-20.64q-1.14 0-2.28-.93t-1.14-3.03q0-1.62.78-3.72.72-2.04 1.95-3.96t1.77-3.12q.18-.48.18-.84 0-1.08-1.35-1.56t-3.51-.54l-.72 1.98q-.66 1.92-1.83 4.5t-2.58 4.98q-1.41 2.4-2.91 3.84-.12.12-.3.12-.24 0-.33-.3-.09-.3.27-.72 2.34-3.12 4.2-6.93 1.86-3.81 3.15-7.77 1.29-3.96 1.89-7.32.18-.96.66-1.41.48-.45 1.02-.45.78 0 1.44.75.66.75.66 2.13 0 .24-.03.54-.03.3-.09.6-.24 1.26-1.41 2.37t-1.89 1.65q.6.06 1.26.09t1.44.03q2.82 0 5.58-.36.12.36.12.54 0 .78-.45 1.98t-.93 2.16q-.24.54-.96 1.95t-1.56 3.18q-.84 1.77-1.41 3.48t-.57 2.91q0 1.56 1.2 1.56.9 0 1.98-1.17t2.13-2.88q1.05-1.71 1.92-3.36.87-1.65 1.35-2.61.24-.6.66-.6.24 0 .24.42 0 .24-.18.72-.66 1.38-1.56 3.12-.9 1.74-2.01 3.42-1.11 1.68-2.4 2.91-1.29 1.23-2.79 1.59-.18.06-.66.06Zm12.78.18q-2.22 0-3.99-1.44t-1.77-4.38q0-2.7 1.32-5.79t3.36-5.43q1.74-2.04 3.9-3.36 2.16-1.32 4.08-1.32 1.32 0 2.28.72 1.02.78 1.02 2.22 0 1.5-1.14 3.3-1.14 1.8-3.24 3.36-.9.66-2.28 1.26t-2.76.99q-1.38.39-2.28.39-.3.72-.57 1.92-.27 1.2-.27 2.46 0 1.5.6 2.7.6 1.2 2.22 1.2 1.98 0 3.6-1.14t2.88-2.85q1.26-1.71 2.13-3.45.87-1.74 1.41-2.94.36-.84.96-.84.3 0 .3.3 0 .24-.18.6-.84 1.8-1.8 3.81-.96 2.01-2.28 3.78-1.32 1.77-3.15 2.85-1.83 1.08-4.35 1.08Zm-1.08-10.56q.84 0 2.82-.63t3.6-2.01q1.56-1.38 2.4-3.03.84-1.65.84-2.79 0-1.32-.96-1.32-.72 0-1.98.96t-3.12 3.24q-1.14 1.44-2.16 3.12-1.02 1.68-1.44 2.46Zm24.66 10.5q-.66.06-1.5-.3t-1.47-1.32q-.63-.96-.63-2.7 0-1.44.54-3.48-.72 1.14-1.86 2.79-1.14 1.65-2.46 2.91-1.14 1.08-2.16 1.56-1.02.48-1.86.48-1.56 0-2.52-1.41t-.96-3.69q0-2.4 1.2-5.46t3.9-6.36q1.74-2.1 4.23-3.39t4.89-1.29q1.38 0 2.64.45 1.26.45 2.22 1.47.42.42.42.96 0 .36-.3.6t-.78.12q-.66-2.1-2.82-2.1-1.02 0-2.34.66-2.04 1.08-4.23 3.54-2.19 2.46-3.81 5.1-.24.36-.75 1.38t-.99 2.28q-.48 1.26-.66 2.46-.06.36-.06.51v.45q0 1.98 1.5 1.98 1.8 0 4.08-2.64 1.56-1.92 2.82-4.02 1.26-2.1 2.58-4.5.9-1.62 1.68-2.7.78-1.08 2.22-1.08.66 0 1.32.18t1.38.06q-.48.48-1.29 1.8t-1.71 3q-.9 1.68-1.62 3.42-.72 1.74-1.02 3-.06.36-.15 1.02t-.09.96q0 1.68.96 1.68t2.07-1.14q1.11-1.14 2.19-2.82 1.08-1.68 1.98-3.39.9-1.71 1.44-2.79.24-.6.72-.6.3 0 .3.42 0 .18-.18.66-.72 1.5-1.74 3.39-1.02 1.89-2.22 3.66-1.2 1.77-2.49 2.94-1.29 1.17-2.61 1.29Zm11.1-.18q-1.68 0-3-1.17t-1.32-3.69q0-1.98.75-4.89.75-2.91 1.86-6.06 1.11-3.15 2.19-5.73h-3.18q-.42 0-.42-.6 0-.3.15-.54.15-.24.45-.24h3.6q1.02-2.28 2.16-4.44 1.14-2.16 2.22-4.08 1.38-2.4 2.94-3.6 1.56-1.2 2.7-1.2.9 0 1.5.69t.6 2.07q0 .84-.36 2.31-.36 1.47-1.14 3.09-.42.84-1.17 2.4t-1.47 2.76h2.88q.42 0 .42.6 0 .24-.12.51t-.36.27h-3.54q-1.5 2.58-3.42 5.04t-4.56 4.92q-.18.54-.45 1.56t-.48 2.07q-.21 1.05-.36 1.77l-.15.72q-.18.78-.18 1.44 0 1.26.6 1.83.6.57 1.38.57.48 0 .96-.15t1.08-.57q2.1-1.5 3.69-4.08 1.59-2.58 2.79-4.98.36-.72.72-.72.24 0 .24.36 0 .18-.18.66-1.32 2.76-2.22 4.44-.9 1.68-1.74 2.79t-1.98 2.19q-.84.84-1.92 1.26-1.08.42-2.16.42Zm4.74-22.92h3.06q.84-1.56 1.59-3.06.75-1.5 1.35-3 .42-.96.72-2.16.3-1.2.3-1.86 0-.9-.42-.9-.3 0-.87.51-.57.51-1.41 1.71-1.08 1.5-2.13 3.87-1.05 2.37-2.19 4.89Zm-3.9 9.42q1.74-1.8 3.27-3.84t2.85-4.2h-2.82q-.96 2.22-1.8 4.32-.84 2.1-1.5 3.72Zm53.52 19.26h-.54q-.24 0-.48-.06-2.88-.54-2.88-5.16 0-3.72 1.86-10.02 1.86-6.3 5.64-15.18 1.08-2.52 2.16-5.67t1.83-6.33q.75-3.18.75-5.76 0-1.86-.48-3.27t-1.62-2.07q-1.32-.84-2.91-1.23t-3.33-.39q-3.12 0-6.54 1.11t-6.78 3.09q-3.36 1.98-6.36 4.62-3 2.64-5.31 5.73-2.31 3.09-3.51 6.39-.78 2.22-1.17 4.2-.39 1.98-.39 3.72 0 3.6 1.44 6.03t3.75 3.63q2.31 1.2 4.89 1.2 2.52 0 5.01-1.23 2.49-1.23 4.5-3.27t3.21-4.5q1.2-2.46 1.2-4.98 0-2.04-.84-3.57-.84-1.53-2.82-1.53-.42 0-.87.06t-.93.24q-.6.18-.96.18-.3 0-.3-.18 0-.12.24-.39t.66-.45q1.74-.78 3.24-.78 2.46 0 3.84 1.86t1.38 4.5q0 2.88-1.65 5.64t-4.29 5.01q-2.64 2.25-5.7 3.6t-5.88 1.35q-3.18 0-6.06-1.74-2.88-1.74-4.68-4.89-1.8-3.15-1.8-7.35 0-1.92.45-4.02.45-2.1 1.41-4.32 1.98-4.56 5.52-8.34 3.54-3.78 7.92-6.51t8.94-4.2q4.56-1.47 8.7-1.47 3.66 0 6.54 1.26 3.18 1.38 4.5 4.08 1.32 2.7 1.32 6.06 0 3.66-1.23 7.77-1.23 4.11-3.09 7.83-1.92 3.9-3.48 8.13t-2.64 8.04q-1.08 3.81-1.56 6.57-.12.66-.18 1.23t-.06 1.05q0 2.82 1.86 2.82 1.26 0 3-1.05t3.63-2.61q1.89-1.56 3.63-3.27t3-3.06q1.26-1.35 1.74-1.89 5.04-5.88 7.92-11.79 2.88-5.91 2.88-10.65 0-1.08-.18-2.16-.24-1.56-.66-2.16-.42-.6-.96-.72t-1.26-.24q-.78-.12-1.17-.48-.39-.36-.39-.66 0-.6 1.02-.6.12 0 .33.03.21.03.45.09 1.14.3 2.52 1.32 1.38 1.02 2.4 2.76 1.02 1.74 1.02 4.38 0 2.46-1.14 5.46-1.68 4.38-4.38 8.61-2.7 4.23-5.97 7.92-3.27 3.69-6.69 6.54-3.42 2.85-6.57 4.47-3.15 1.62-5.61 1.62Zm35.88-30.12q-.9 0-1.47-.63t-.57-1.53q0-1.14.9-1.98.9-.84 1.98-.84.96 0 1.56.6.6.6.6 1.44 0 1.14-.9 2.04-.9.9-2.1.9Zm-4.86 24.36q-2.22 0-3.12-1.29-.9-1.29-.9-2.97 0-.9.21-1.83t.51-1.71L187.18 35q.18-.48.18-.84 0-.6-.3-1.05l-.42-.63 3.3-.12q.9-.06 1.29.21t.39.63q0 .36-.42 1.32l-4.98 11.7-.33.75q-.33.75-.39.99-.18.9-.24 1.14-.06.24-.06.3v.48q0 .78.39 1.32t1.35.54q.6 0 1.38-.36.78-.36 1.14-.72 1.5-1.56 2.97-4.11 1.47-2.55 2.73-5.07.24-.6.6-.6.3 0 .3.42 0 .24-.18.72-.6 1.26-1.5 3.12t-2.13 3.69q-1.23 1.83-2.67 3.03-1.44 1.2-3.12 1.2Zm13.02.06q-2.58 0-3.84-1.32-1.26-1.32-1.26-3.3 0-.96.24-1.86.36-1.38 1.05-3.09.69-1.71 1.59-3.51-2.1 4.08-3.81 6.87t-2.61 3.63q-.18.18-.36.18-.3 0-.3-.3 0-.24.18-.48 1.26-1.68 2.91-4.62 1.65-2.94 3.51-6.57 1.86-3.63 3.78-7.35 1.92-3.72 3.75-7.02 1.83-3.3 3.33-5.58 1.08-1.62 2.04-2.31t1.98-.69h.3q.54 0 1.23.18t1.29.06q-.78.84-2.37 2.97-1.59 2.13-3.54 4.98-1.95 2.85-3.9 6t-3.45 6.15q-1.44 2.88-2.55 6.15-1.11 3.27-1.11 5.73 0 1.44.48 2.4t1.62 1.2q1.92.42 5.16-3.42 1.26-1.5 2.52-3.57t1.98-3.87q1.02-2.4 1.02-4.38 0-1.5-.75-2.4-.75-.9-2.49-.72h-.24q-1.08 0-1.08-.6 0-.24.33-.48t.93-.24q.18 0 .39.03.21.03.45.09 2.7.42 3.87 2.19t1.17 4.05q0 .48-.06 1.05-.06.57-.18 1.23-.48 2.46-1.86 5.01-1.38 2.55-3.39 4.47-2.01 1.92-4.47 2.58-1.02.24-1.89.36-.87.12-1.59.12Zm20.76.18q-2.22 0-3.99-1.44t-1.77-4.38q0-2.7 1.32-5.79t3.36-5.43q1.74-2.04 3.9-3.36 2.16-1.32 4.08-1.32 1.32 0 2.28.72 1.02.78 1.02 2.22 0 1.5-1.14 3.3-1.14 1.8-3.24 3.36-.9.66-2.28 1.26t-2.76.99q-1.38.39-2.28.39-.3.72-.57 1.92-.27 1.2-.27 2.46 0 1.5.6 2.7.6 1.2 2.22 1.2 1.98 0 3.6-1.14t2.88-2.85q1.26-1.71 2.13-3.45.87-1.74 1.41-2.94.36-.84.96-.84.3 0 .3.3 0 .24-.18.6-.84 1.8-1.8 3.81-.96 2.01-2.28 3.78-1.32 1.77-3.15 2.85-1.83 1.08-4.35 1.08Zm-1.08-10.56q.84 0 2.82-.63t3.6-2.01q1.56-1.38 2.4-3.03.84-1.65.84-2.79 0-1.32-.96-1.32-.72 0-1.98.96t-3.12 3.24q-1.14 1.44-2.16 3.12-1.02 1.68-1.44 2.46Zm13.08 10.56q-2.94 0-4.17-1.53t-1.23-3.21q0-1.38.69-2.52.69-1.14 1.65-1.2 1.2-2.34 2.61-5.1t2.61-5.34q.84-1.74 2.13-3.36 1.29-1.62 2.85-1.86h.6q.48 0 .87.06t.81.24q.66.3.66.9 0 .36-.42.36-.18 0-.48-.18-.72-.3-1.26-.3-.36 0-.66.18-1.14.6-1.59 1.68-.45 1.08-.45 2.28 0 .96.21 1.95t.51 1.77q.66 1.68 1.41 3.3.75 1.62.75 3.48 0 1.8-1.2 3.81t-3.06 3.21l.42.06q.3.06.42.06h.18q1.38 0 2.61-.81t2.19-2.01q.96-1.2 2.19-3.36t2.37-4.56q.18-.3.42-.3.3 0 .45.21.15.21.03.51-.78 1.68-1.77 3.63t-2.25 3.72q-1.26 1.77-2.91 2.88-1.65 1.11-3.69 1.11-.48 0-1.02-.06t-1.08-.24q-.6.24-1.23.39-.63.15-1.17.15Zm1.8-1.8q1.02-.84 1.83-2.46t.81-4.26q0-2.34-.48-4.98-.48-2.64-.48-4.68 0-.42.03-.75t.09-.63q-.78 1.62-1.8 3.75T232 41.6q-1.02 1.98-1.74 3.36l.33.03q.33.03.63.42t.24 1.53q-.06 1.5.69 2.79t1.89 1.77Zm-2.28.84q.36 0 .66-.09.3-.09.54-.15-.9-.66-1.59-1.77-.69-1.11-.81-2.85-1.08 1.14-1.08 2.46 0 .96.6 1.68t1.68.72Z"/></svg>