<svg version="1.1" xmlns="http://www.w3.org/2000/svg" xmlns:xlink="http://www.w3.org/1999/xlink" role="img" width="512.0399780273438" height="50.459999084472656" viewBox="3.700000047683716 10.399999618530273 512.0399780273438 50.459999084472656"><title>Libre Baskerville</title><path fill="#000000" d="M43.36 48.38L42.46 60.20L3.70 60.20L3.70 57.92Q5.80 57.86 7.09 57.56Q8.38 57.26 9.10 56.54Q9.82 55.82 10.06 54.50Q10.30 53.18 10.30 51.08L10.30 51.08L10.30 23.12Q10.30 21.02 10.09 19.73Q9.88 18.44 9.25 17.69Q8.62 16.94 7.42 16.67Q6.22 16.40 4.30 16.28L4.30 16.28L4.30 14L22.54 14L22.54 16.28Q20.62 16.34 19.45 16.64Q18.28 16.94 17.65 17.72Q17.02 18.50 16.81 19.88Q16.60 21.26 16.60 23.54L16.60 23.54L16.60 49.40Q16.60 51.92 17.11 53.51Q17.62 55.10 18.85 55.97Q20.08 56.84 22.12 57.17Q24.16 57.50 27.28 57.50L27.28 57.50Q30.70 57.50 33.04 57.11Q35.38 56.72 36.97 55.73Q38.56 54.74 39.49 52.97Q40.42 51.20 41.08 48.38L41.08 48.38L43.36 48.38ZM58.30 27.80L58.30 50.66Q58.30 53 58.51 54.41Q58.72 55.82 59.32 56.63Q59.92 57.44 61 57.74Q62.08 58.04 63.88 58.10L63.88 58.10L63.88 60.20L46.66 60.20L46.66 58.10Q48.46 58.04 49.60 57.71Q50.74 57.38 51.37 56.63Q52 55.88 52.21 54.53Q52.42 53.18 52.42 51.08L52.42 51.08L52.42 43.40Q52.42 39.92 52.33 37.67Q52.24 35.42 52 34.58L52 34.58Q51.70 33.20 50.62 32.69Q49.54 32.18 46.54 32.18L46.54 32.18L46.54 30.08L58.30 27.80ZM51.40 15.62L51.40 15.62Q51.40 14.06 52.48 12.98Q53.56 11.90 55.12 11.90L55.12 11.90Q56.68 11.90 57.76 12.98Q58.84 14.06 58.84 15.62L58.84 15.62Q58.84 17.18 57.76 18.26Q56.68 19.34 55.12 19.34L55.12 19.34Q53.56 19.34 52.48 18.26Q51.40 17.18 51.40 15.62ZM76.42 42.32L76.42 47.66Q76.42 49.94 77.08 51.83Q77.74 53.72 78.91 55.07Q80.08 56.42 81.73 57.20Q83.38 57.98 85.30 57.98L85.30 57.98Q87.40 57.98 89.11 57.02Q90.82 56.06 92.05 54.29Q93.28 52.52 93.97 50.03Q94.66 47.54 94.66 44.48L94.66 44.48Q94.66 41.42 93.94 38.87Q93.22 36.32 91.96 34.49Q90.70 32.66 88.93 31.64Q87.16 30.62 85.06 30.62L85.06 30.62Q82.60 30.62 80.68 31.79Q78.76 32.96 77.74 35.06L77.74 35.06Q76.42 37.70 76.42 42.32L76.42 42.32ZM76.30 10.40L76.30 32.66L76.54 32.66Q78.46 30.14 80.77 28.97Q83.08 27.80 86.14 27.80L86.14 27.80Q89.38 27.80 92.17 29.06Q94.96 30.32 97.03 32.54Q99.10 34.76 100.27 37.79Q101.44 40.82 101.44 44.30L101.44 44.30Q101.44 47.84 100.24 50.87Q99.04 53.90 96.97 56.12Q94.90 58.34 92.08 59.60Q89.26 60.86 85.96 60.86L85.96 60.86Q82.54 60.86 79.57 59.60Q76.60 58.34 74.68 56.18L74.68 56.18L71.86 60.20L70.54 60.20L70.54 23.96Q70.54 17.90 69.76 16.22L69.76 16.22Q69.58 15.80 69.34 15.53Q69.10 15.26 68.62 15.05Q68.14 14.84 67.30 14.66Q66.46 14.48 65.02 14.30L65.02 14.30L65.02 12.80L76.30 10.40ZM117.64 48.62L117.64 50.66Q117.64 53.12 117.76 54.56Q117.88 56.00 118.39 56.75Q118.90 57.50 119.86 57.74Q120.82 57.98 122.56 58.10L122.56 58.10L122.56 60.20L106.60 60.20L106.60 58.10Q108.34 58.04 109.36 57.77Q110.38 57.50 110.92 56.78Q111.46 56.06 111.61 54.71Q111.76 53.36 111.76 51.08L111.76 51.08L111.76 44.06Q111.76 39.98 111.67 37.70Q111.58 35.42 111.07 34.34Q110.56 33.26 109.48 33.05Q108.40 32.84 106.48 32.84L106.48 32.84L106.48 30.74L116.98 28.46L117.82 35.90L118.06 35.90Q118.84 34.10 120.01 32.60Q121.18 31.10 122.56 30.05Q123.94 29.00 125.44 28.40Q126.94 27.80 128.50 27.80L128.50 27.80Q130.42 27.80 131.53 28.73Q132.64 29.66 132.64 31.22L132.64 31.22Q132.64 32.66 131.74 33.47Q130.84 34.28 129.16 34.28L129.16 34.28Q128.20 34.28 127.54 34.04Q126.88 33.80 126.37 33.53Q125.86 33.26 125.41 33.02Q124.96 32.78 124.42 32.78L124.42 32.78Q122.80 32.78 121.18 34.85Q119.56 36.92 118.66 40.10L118.66 40.10Q118.18 41.84 117.91 44.03Q117.64 46.22 117.64 48.62L117.64 48.62ZM161.74 52.94L163.60 54.62Q158.50 60.80 150.94 60.80L150.94 60.80Q147.40 60.80 144.52 59.63Q141.64 58.46 139.57 56.33Q137.50 54.20 136.36 51.23Q135.22 48.26 135.22 44.66L135.22 44.66Q135.22 41 136.42 37.88Q137.62 34.76 139.81 32.54Q142 30.32 145.03 29.06Q148.06 27.80 151.66 27.80L151.66 27.80Q157.48 27.80 160.66 30.95Q163.84 34.10 163.84 39.98L163.84 39.98Q163.84 40.82 163.51 41Q163.18 41.18 161.98 41.18L161.98 41.18L142.24 41.18Q142.12 41.66 142.06 42.35Q142 43.04 142 43.88L142 43.88Q142 47 142.75 49.55Q143.50 52.10 144.91 53.90Q146.32 55.70 148.27 56.69Q150.22 57.68 152.62 57.68L152.62 57.68Q155.14 57.68 157.30 56.57Q159.46 55.46 161.74 52.94L161.74 52.94ZM142.66 38.42L153.70 38.42Q154.90 38.42 155.62 38.36Q156.34 38.30 156.70 38.12Q157.06 37.94 157.18 37.61Q157.30 37.28 157.30 36.74L157.30 36.74Q157.30 33.98 155.53 32.33Q153.76 30.68 150.70 30.68L150.70 30.68Q144.22 30.68 142.66 38.42L142.66 38.42ZM207.76 60.20L186.16 60.20L186.16 57.92Q188.50 57.86 189.91 57.56Q191.32 57.26 192.07 56.54Q192.82 55.82 193.09 54.50Q193.36 53.18 193.36 51.08L193.36 51.08L193.36 23.12Q193.36 21.02 193.15 19.73Q192.94 18.44 192.31 17.69Q191.68 16.94 190.48 16.67Q189.28 16.40 187.36 16.28L187.36 16.28L187.36 14L205.30 14Q213.40 14 217.90 16.88Q222.40 19.76 222.40 24.98L222.40 24.98Q222.40 28.94 219.91 31.46Q217.42 33.98 212.02 35.60L212.02 35.60L212.02 35.84Q213.88 36.02 215.26 36.26Q216.64 36.50 217.72 36.83Q218.80 37.16 219.73 37.64Q220.66 38.12 221.56 38.72L221.56 38.72Q226.90 42.50 226.90 48.20L226.90 48.20Q226.90 51.38 225.13 54.11Q223.36 56.84 220.18 58.40L220.18 58.40Q219.16 58.94 218.08 59.27Q217 59.60 215.56 59.81Q214.12 60.02 212.23 60.11Q210.34 60.20 207.76 60.20L207.76 60.20ZM207.94 57.62L207.94 57.62Q218.80 57.62 218.80 48.32L218.80 48.32Q218.80 41.54 213.22 38.84L213.22 38.84Q212.26 38.42 211.36 38.12Q210.46 37.82 209.26 37.67Q208.06 37.52 206.41 37.46Q204.76 37.40 202.36 37.40L202.36 37.40L199.66 37.40L199.66 50.78Q199.66 54.44 201.58 56.03Q203.50 57.62 207.94 57.62ZM199.66 34.40L203.02 34.40Q204.88 34.40 206.14 34.34Q207.40 34.28 208.30 34.13Q209.20 33.98 209.89 33.71Q210.58 33.44 211.30 32.96L211.30 32.96Q213.22 31.76 214.03 30.08Q214.84 28.40 214.84 25.70L214.84 25.70Q214.84 20.96 212.53 18.89Q210.22 16.82 205.30 16.82L205.30 16.82L200.68 16.82Q199.66 16.82 199.66 17.84L199.66 17.84L199.66 34.40ZM250.84 47.18L250.84 42.44Q247.42 43.76 245.05 45.02Q242.68 46.28 241.24 47.54Q239.80 48.80 239.17 50.06Q238.54 51.32 238.54 52.64L238.54 52.64Q238.54 54.62 239.86 55.88Q241.18 57.14 243.34 57.14L243.34 57.14Q244.90 57.14 246.25 56.36Q247.60 55.58 248.62 54.23Q249.64 52.88 250.24 51.05Q250.84 49.22 250.84 47.18L250.84 47.18ZM242.20 43.64L250.84 39.86L250.84 37.40Q250.84 30.08 244.60 30.08L244.60 30.08Q243.58 30.08 242.86 30.26Q242.14 30.44 241.66 30.86Q241.18 31.28 240.79 32.06Q240.40 32.84 240.04 33.98L240.04 33.98Q239.38 35.72 238.75 36.29Q238.12 36.86 236.92 36.86L236.92 36.86Q233.92 36.86 233.92 33.86L233.92 33.86Q233.92 30.98 236.98 29.39Q240.04 27.80 245.68 27.80L245.68 27.80Q251.68 27.80 254.20 29.93Q256.72 32.06 256.72 37.16L256.72 37.16L256.72 50.60Q256.72 57.44 259.42 57.44L259.42 57.44Q260.26 57.44 261.04 57.23Q261.82 57.02 262.36 56.12L262.36 56.12L263.20 57.56Q262.48 58.94 260.56 59.87Q258.64 60.80 256.54 60.80L256.54 60.80Q253.90 60.80 252.61 59.12Q251.32 57.44 251.32 54.38L251.32 54.38L251.02 54.38Q249.46 57.32 246.70 59.03Q243.94 60.74 240.58 60.74L240.58 60.74Q236.80 60.74 234.64 58.82Q232.48 56.90 232.48 53.66L232.48 53.66Q232.48 52.22 232.99 50.90Q233.50 49.58 234.64 48.38Q235.78 47.18 237.64 46.01Q239.50 44.84 242.20 43.64L242.20 43.64ZM269.50 58.10L268.30 60.20L266.98 60.20L266.98 49.88L268.48 49.88Q270.82 58.34 277 58.34L277 58.34Q279.40 58.34 280.81 57.17Q282.22 56.00 282.22 53.60L282.22 53.60Q282.22 52.70 281.95 52.07Q281.68 51.44 280.93 50.75Q280.18 50.06 278.83 49.16Q277.48 48.26 275.26 46.88L275.26 46.88Q273.22 45.62 271.72 44.54Q270.22 43.46 269.20 42.35Q268.18 41.24 267.67 39.98Q267.16 38.72 267.16 37.04L267.16 37.04Q267.16 35 267.85 33.29Q268.54 31.58 269.74 30.38Q270.94 29.18 272.56 28.49Q274.18 27.80 276.10 27.80L276.10 27.80Q277.72 27.80 279.46 28.31Q281.20 28.82 282.52 29.66L282.52 29.66L283.72 28.40L284.86 28.40L284.86 37.04L283.30 37.04Q281.98 33.38 280.42 31.82Q278.86 30.26 276.58 30.26L276.58 30.26Q274.54 30.26 273.31 31.34Q272.08 32.42 272.08 34.34L272.08 34.34Q272.08 35.36 272.41 36.11Q272.74 36.86 273.46 37.58Q274.18 38.30 275.29 39.05Q276.40 39.80 277.96 40.76L277.96 40.76Q280.54 42.38 282.37 43.64Q284.20 44.90 285.34 46.13Q286.48 47.36 287.02 48.68Q287.56 50 287.56 51.68L287.56 51.68Q287.56 55.94 284.80 58.37Q282.04 60.80 277.54 60.80L277.54 60.80Q272.86 60.80 269.50 58.10L269.50 58.10ZM311.26 60.20L311.26 58.10Q313.24 58.10 313.99 57.92Q314.74 57.74 314.74 57.44L314.74 57.44Q314.68 56.96 313.78 55.70Q312.88 54.44 311.44 52.70L311.44 52.70L305.08 45.02L302.86 47.12L302.86 50.66Q302.86 53 303.07 54.41Q303.28 55.82 303.85 56.63Q304.42 57.44 305.53 57.74Q306.64 58.04 308.44 58.10L308.44 58.10L308.44 60.20L291.40 60.20L291.40 58.10Q293.20 58.04 294.31 57.74Q295.42 57.44 296.05 56.66Q296.68 55.88 296.92 54.56Q297.16 53.24 297.16 51.08L297.16 51.08L297.16 25.94Q297.16 21.38 297.07 19.04Q296.98 16.70 296.44 15.86L296.44 15.86Q295.90 15.02 294.64 14.87Q293.38 14.72 291.28 14.72L291.28 14.72L291.28 12.68L302.86 10.40L302.86 43.34L308.44 37.88Q311.14 35.18 312.46 33.89Q313.78 32.60 313.78 31.94L313.78 31.94Q313.78 31.28 312.52 30.89Q311.26 30.50 308.92 30.50L308.92 30.50L308.92 28.40L324.52 28.40L324.52 30.50Q323.38 30.50 322.54 30.62Q321.70 30.74 320.95 31.10Q320.20 31.46 319.36 32.09Q318.52 32.72 317.44 33.68L317.44 33.68L308.80 41.36L320.68 54.80Q321.52 55.82 322.21 56.45Q322.90 57.08 323.59 57.44Q324.28 57.80 325.09 57.95Q325.90 58.10 327.04 58.10L327.04 58.10L327.04 60.20L311.26 60.20ZM354.58 52.94L356.44 54.62Q351.34 60.80 343.78 60.80L343.78 60.80Q340.24 60.80 337.36 59.63Q334.48 58.46 332.41 56.33Q330.34 54.20 329.20 51.23Q328.06 48.26 328.06 44.66L328.06 44.66Q328.06 41 329.26 37.88Q330.46 34.76 332.65 32.54Q334.84 30.32 337.87 29.06Q340.90 27.80 344.50 27.80L344.50 27.80Q350.32 27.80 353.50 30.95Q356.68 34.10 356.68 39.98L356.68 39.98Q356.68 40.82 356.35 41Q356.02 41.18 354.82 41.18L354.82 41.18L335.08 41.18Q334.96 41.66 334.90 42.35Q334.84 43.04 334.84 43.88L334.84 43.88Q334.84 47 335.59 49.55Q336.34 52.10 337.75 53.90Q339.16 55.70 341.11 56.69Q343.06 57.68 345.46 57.68L345.46 57.68Q347.98 57.68 350.14 56.57Q352.30 55.46 354.58 52.94L354.58 52.94ZM335.50 38.42L346.54 38.42Q347.74 38.42 348.46 38.36Q349.18 38.30 349.54 38.12Q349.90 37.94 350.02 37.61Q350.14 37.28 350.14 36.74L350.14 36.74Q350.14 33.98 348.37 32.33Q346.60 30.68 343.54 30.68L343.54 30.68Q337.06 30.68 335.50 38.42L335.50 38.42ZM372.82 48.62L372.82 50.66Q372.82 53.12 372.94 54.56Q373.06 56.00 373.57 56.75Q374.08 57.50 375.04 57.74Q376.00 57.98 377.74 58.10L377.74 58.10L377.74 60.20L361.78 60.20L361.78 58.10Q363.52 58.04 364.54 57.77Q365.56 57.50 366.10 56.78Q366.64 56.06 366.79 54.71Q366.94 53.36 366.94 51.08L366.94 51.08L366.94 44.06Q366.94 39.98 366.85 37.70Q366.76 35.42 366.25 34.34Q365.74 33.26 364.66 33.05Q363.58 32.84 361.66 32.84L361.66 32.84L361.66 30.74L372.16 28.46L373.00 35.90L373.24 35.90Q374.02 34.10 375.19 32.60Q376.36 31.10 377.74 30.05Q379.12 29.00 380.62 28.40Q382.12 27.80 383.68 27.80L383.68 27.80Q385.60 27.80 386.71 28.73Q387.82 29.66 387.82 31.22L387.82 31.22Q387.82 32.66 386.92 33.47Q386.02 34.28 384.34 34.28L384.34 34.28Q383.38 34.28 382.72 34.04Q382.06 33.80 381.55 33.53Q381.04 33.26 380.59 33.02Q380.14 32.78 379.60 32.78L379.60 32.78Q377.98 32.78 376.36 34.85Q374.74 36.92 373.84 40.10L373.84 40.10Q373.36 41.84 373.09 44.03Q372.82 46.22 372.82 48.62L372.82 48.62ZM404.50 60.86L394.36 35.84Q393.64 34.04 393.07 32.99Q392.50 31.94 391.84 31.40Q391.18 30.86 390.37 30.71Q389.56 30.56 388.42 30.50L388.42 30.50L388.42 28.40L404.32 28.40L404.32 30.50Q403.12 30.56 402.34 30.62Q401.56 30.68 401.11 30.89Q400.66 31.10 400.48 31.49Q400.30 31.88 400.30 32.60L400.30 32.60Q400.30 33.62 400.57 34.52Q400.84 35.42 401.14 36.32L401.14 36.32L407.50 53.72L407.74 53.72L413.20 40.82Q414.46 37.82 415.00 36.02Q415.54 34.22 415.54 32.84L415.54 32.84Q415.54 31.46 414.82 30.98Q414.10 30.50 411.70 30.50L411.70 30.50L411.70 28.40L423.64 28.40L423.64 30.50Q422.68 30.50 421.90 30.98Q421.12 31.46 420.52 32.18L420.52 32.18Q420.04 32.84 419.53 33.95Q419.02 35.06 418.51 36.26Q418.00 37.46 417.58 38.63Q417.16 39.80 416.80 40.52L416.80 40.52L407.98 60.86L404.50 60.86ZM438.40 27.80L438.40 50.66Q438.40 53 438.61 54.41Q438.82 55.82 439.42 56.63Q440.02 57.44 441.10 57.74Q442.18 58.04 443.98 58.10L443.98 58.10L443.98 60.20L426.76 60.20L426.76 58.10Q428.56 58.04 429.70 57.71Q430.84 57.38 431.47 56.63Q432.10 55.88 432.31 54.53Q432.52 53.18 432.52 51.08L432.52 51.08L432.52 43.40Q432.52 39.92 432.43 37.67Q432.34 35.42 432.10 34.58L432.10 34.58Q431.80 33.20 430.72 32.69Q429.64 32.18 426.64 32.18L426.64 32.18L426.64 30.08L438.40 27.80ZM431.50 15.62L431.50 15.62Q431.50 14.06 432.58 12.98Q433.66 11.90 435.22 11.90L435.22 11.90Q436.78 11.90 437.86 12.98Q438.94 14.06 438.94 15.62L438.94 15.62Q438.94 17.18 437.86 18.26Q436.78 19.34 435.22 19.34L435.22 19.34Q433.66 19.34 432.58 18.26Q431.50 17.18 431.50 15.62ZM457.72 10.40L457.72 50.84Q457.72 53.12 457.90 54.50Q458.08 55.88 458.65 56.66Q459.22 57.44 460.27 57.74Q461.32 58.04 463.06 58.10L463.06 58.10L463.06 60.20L446.50 60.20L446.50 58.10Q448.30 58.04 449.38 57.71Q450.46 57.38 451.09 56.66Q451.72 55.94 451.93 54.65Q452.14 53.36 452.14 51.26L452.14 51.26L452.14 25.40Q452.14 22.16 452.05 19.97Q451.96 17.78 451.78 17L451.78 17Q451.48 15.62 450.37 15.14Q449.26 14.66 446.38 14.66L446.38 14.66L446.38 12.62L457.72 10.40ZM477.22 10.40L477.22 50.84Q477.22 53.12 477.40 54.50Q477.58 55.88 478.15 56.66Q478.72 57.44 479.77 57.74Q480.82 58.04 482.56 58.10L482.56 58.10L482.56 60.20L466.00 60.20L466.00 58.10Q467.80 58.04 468.88 57.71Q469.96 57.38 470.59 56.66Q471.22 55.94 471.43 54.65Q471.64 53.36 471.64 51.26L471.64 51.26L471.64 25.40Q471.64 22.16 471.55 19.97Q471.46 17.78 471.28 17L471.28 17Q470.98 15.62 469.87 15.14Q468.76 14.66 465.88 14.66L465.88 14.66L465.88 12.62L477.22 10.40ZM513.64 52.94L515.50 54.62Q510.40 60.80 502.84 60.80L502.84 60.80Q499.30 60.80 496.42 59.63Q493.54 58.46 491.47 56.33Q489.40 54.20 488.26 51.23Q487.12 48.26 487.12 44.66L487.12 44.66Q487.12 41 488.32 37.88Q489.52 34.76 491.71 32.54Q493.90 30.32 496.93 29.06Q499.96 27.80 503.56 27.80L503.56 27.80Q509.38 27.80 512.56 30.95Q515.74 34.10 515.74 39.98L515.74 39.98Q515.74 40.82 515.41 41Q515.08 41.18 513.88 41.18L513.88 41.18L494.14 41.18Q494.02 41.66 493.96 42.35Q493.90 43.04 493.90 43.88L493.90 43.88Q493.90 47 494.65 49.55Q495.40 52.10 496.81 53.90Q498.22 55.70 500.17 56.69Q502.12 57.68 504.52 57.68L504.52 57.68Q507.04 57.68 509.20 56.57Q511.36 55.46 513.64 52.94L513.64 52.94ZM494.56 38.42L505.60 38.42Q506.80 38.42 507.52 38.36Q508.24 38.30 508.60 38.12Q508.96 37.94 509.08 37.61Q509.20 37.28 509.20 36.74L509.20 36.74Q509.20 33.98 507.43 32.33Q505.66 30.68 502.60 30.68L502.60 30.68Q496.12 30.68 494.56 38.42L494.56 38.42Z"></path></svg>