<svg version="1.1" xmlns="http://www.w3.org/2000/svg" xmlns:xlink="http://www.w3.org/1999/xlink" role="img" width="252.20401000976562" height="75.41999816894531" viewBox="-12.079999923706055 10.579999923706055 252.20401000976562 75.41999816894531"><title>Mea Culpa</title><path fill="#000000" d="M-1.82 75.08L-1.82 75.08Q-4.52 75.08-6.86 74.39Q-9.20 73.70-10.64 72.08Q-12.08 70.46-12.08 67.70L-12.08 67.70Q-12.08 66.74-11.90 65.78L-11.90 65.78Q-11.78 65.42-11.48 65.42L-11.48 65.42Q-11.12 65.42-11.12 65.72L-11.12 65.72Q-11.12 66.02-11.15 66.35Q-11.18 66.68-11.18 66.98L-11.18 66.98Q-11.18 69.56-9.71 71.18Q-8.24 72.80-5.90 73.58Q-3.56 74.36-0.92 74.36L-0.92 74.36Q1.96 74.36 4.66 73.52L4.66 73.52Q7.54 72.62 10.15 70.85Q12.76 69.08 15.16 66.74L15.16 66.74Q10.90 65.66 7.78 62.96Q4.66 60.26 3.01 56.42Q1.36 52.58 1.36 48.26L1.36 48.26Q1.36 44.36 2.68 40.64L2.68 40.64Q4.30 36.08 7.42 31.82Q10.54 27.56 15.70 24.08Q20.86 20.60 28.51 18.38Q36.16 16.16 46.78 15.68L46.78 15.68Q48.04 15.62 49.81 15.62Q51.58 15.62 53.26 15.62L53.26 15.62Q54.46 15.32 55.36 15.32L55.36 15.32Q56.32 15.32 57.10 15.56L57.10 15.56Q57.28 15.62 57.28 15.92L57.28 15.92Q57.34 15.98 57.34 16.16L57.34 16.16Q57.34 16.58 56.86 16.58L56.86 16.58Q54.70 16.64 53.38 18.08Q52.06 19.52 50.74 21.80L50.74 21.80Q49.90 23.42 49.48 25.52Q49.06 27.62 48.94 30.08L48.94 30.08Q50.62 31.46 51.55 33.26Q52.48 35.06 52.36 37.16L52.36 37.16Q52.36 37.58 51.94 37.58L51.94 37.58Q51.46 37.58 51.46 37.10L51.46 37.10Q51.58 35.36 50.89 33.83Q50.20 32.30 48.94 31.04L48.94 31.04Q48.76 35.24 48.67 40.04Q48.58 44.84 47.32 49.40L47.32 49.40Q48.94 49.28 50.44 49.04L50.44 49.04Q52.60 45.50 54.94 41.42Q57.28 37.34 59.74 33.08Q62.20 28.82 64.84 24.86Q67.48 20.90 70.36 17.66L70.36 17.66Q73.66 13.94 76.96 12.26Q80.26 10.58 83.02 10.58L83.02 10.58Q86.20 10.58 88.27 12.65Q90.34 14.72 90.34 18.26L90.34 18.26Q90.34 22.16 87.31 27.47Q84.28 32.78 76.96 38.84L76.96 38.84Q72.28 42.68 66.22 45.32L66.22 45.32Q63.82 50 62.47 53.81Q61.12 57.62 61.12 60.08L61.12 60.08Q61.12 61.82 61.87 62.81Q62.62 63.80 64.18 63.80L64.18 63.80Q66.04 63.80 68.35 62.03Q70.66 60.26 72.94 57.23Q75.22 54.20 76.96 50.48L76.96 50.48Q77.14 50.18 77.38 50.18L77.38 50.18Q77.80 50.18 77.62 50.66L77.62 50.66Q75.88 54.26 73.63 57.62Q71.38 60.98 68.74 63.11Q66.10 65.24 63.16 65.24L63.16 65.24Q60.10 65.24 58.90 63.41Q57.70 61.58 57.70 58.82L57.70 58.82Q57.70 56.24 58.48 53.24Q59.26 50.24 60.40 47.60L60.40 47.60Q58.36 48.26 56.29 48.77Q54.22 49.28 52.12 49.64L52.12 49.64Q49.48 53.30 46.78 56.24Q44.08 59.18 41.53 60.86Q38.98 62.54 36.76 62.42L36.76 62.42Q36.28 62.42 36.28 62.06L36.28 62.06Q36.28 61.82 36.52 61.64L36.52 61.64Q39.04 59.90 40.57 56.93Q42.10 53.96 43 50.42L43 50.42L41.44 50.42Q39.22 50.42 37 50.03Q34.78 49.64 32.68 49.04L32.68 49.04Q30.10 53.96 26.80 58.40Q23.50 62.84 19.54 66.38L19.54 66.38Q23.32 66.32 26.50 64.52Q29.68 62.72 30.64 59.18L30.64 59.18Q30.70 58.88 31.06 58.88L31.06 58.88Q31.60 58.88 31.48 59.42L31.48 59.42Q30.70 62.18 28.72 63.95Q26.74 65.72 24.07 66.53Q21.40 67.34 18.58 67.22L18.58 67.22Q15.16 70.04 11.29 71.99Q7.42 73.94 2.98 74.66L2.98 74.66Q1.84 74.84 0.61 74.96Q-0.62 75.08-1.82 75.08ZM52.84 48.62L52.84 48.68Q54.94 48.26 56.95 47.69Q58.96 47.12 60.94 46.46L60.94 46.46Q62.92 42.32 65.53 38.24Q68.14 34.16 70.87 30.38Q73.60 26.60 76 23.45Q78.40 20.30 79.90 18.14L79.90 18.14Q80.20 17.78 80.44 17.78L80.44 17.78Q80.86 17.78 80.86 18.26L80.86 18.26Q80.86 18.56 80.68 18.74L80.68 18.74Q78.70 21.32 76.24 25.37Q73.78 29.42 71.32 34.25Q68.86 39.08 66.82 43.94L66.82 43.94Q69.04 42.80 71.08 41.51Q73.12 40.22 74.98 38.72L74.98 38.72Q79.96 34.76 83.05 30.86Q86.14 26.96 87.61 23.51Q89.08 20.06 89.08 17.54L89.08 17.54Q89.08 15.32 88.03 14.03Q86.98 12.74 85.06 12.74L85.06 12.74Q83.02 12.74 80.20 14.27Q77.38 15.80 73.84 19.34L73.84 19.34Q71.02 22.16 68.29 25.82Q65.56 29.48 62.92 33.47Q60.28 37.46 57.76 41.36Q55.24 45.26 52.84 48.62L52.84 48.62ZM15.88 66.02L15.88 66.02Q19.66 62.06 22.81 57.14Q25.96 52.22 28.54 47.60L28.54 47.60Q24.76 45.92 22.42 43.31Q20.08 40.70 20.32 37.16L20.32 37.16Q20.62 33.14 22.84 30.65Q25.06 28.16 28.42 26.96Q31.78 25.76 35.50 25.76L35.50 25.76Q38.26 25.76 41.20 26.42L41.20 26.42Q43.78 22.88 46.21 20.42Q48.64 17.96 50.92 16.64L50.92 16.64Q50.32 16.64 49.69 16.61Q49.06 16.58 48.40 16.58L48.40 16.58Q43 16.58 37.54 17.45Q32.08 18.32 26.92 20.12Q21.76 21.92 17.29 24.83Q12.82 27.74 9.46 31.76Q6.10 35.78 4.24 41.12L4.24 41.12Q2.86 45.14 2.86 48.86L2.86 48.86Q2.86 53 4.39 56.60Q5.92 60.20 8.86 62.66Q11.80 65.12 15.88 66.02ZM46.24 28.22L46.24 28.22Q46.54 26.84 46.99 25.55Q47.44 24.26 48.04 23.18L48.04 23.18Q48.94 21.62 50.56 19.67Q52.18 17.72 54.16 16.88L54.16 16.88L53.02 16.76Q50.86 17.90 48.49 20.63Q46.12 23.36 43.72 27.14L43.72 27.14Q45.10 27.56 46.24 28.22ZM29.14 46.52L29.14 46.52L32.50 40.40Q34.60 36.56 36.67 33.20Q38.74 29.84 40.72 27.08L40.72 27.08Q39.64 26.84 38.56 26.75Q37.48 26.66 36.40 26.66L36.40 26.66Q33.10 26.66 30.10 27.74Q27.10 28.82 25.15 31.13Q23.20 33.44 22.90 37.16L22.90 37.16Q22.72 40.22 24.43 42.59Q26.14 44.96 29.14 46.52ZM41.44 49.52L41.44 49.52L43.18 49.52Q44.20 45.08 44.56 40.43Q44.92 35.78 45.52 32.24L45.52 32.24L46.06 28.94Q45.46 28.64 44.77 28.31Q44.08 27.98 43.36 27.74L43.36 27.74Q41.32 31.04 39.37 35Q37.42 38.96 35.44 43.22L35.44 43.22L33.16 48.14Q35.02 48.68 37.12 49.10Q39.22 49.52 41.44 49.52ZM41.14 59.60L41.14 59.60Q43.24 58.88 45.40 56.27Q47.56 53.66 49.90 50L49.90 50Q49.18 50.06 48.46 50.15Q47.74 50.24 47.02 50.30L47.02 50.30Q46.24 52.88 44.83 55.22Q43.42 57.56 41.14 59.60ZM80.14 62.60L80.14 62.60Q77.56 62.60 76.48 60.83Q75.40 59.06 75.40 56.78L75.40 56.78Q75.40 55.40 75.70 54.08Q76 52.76 76.42 51.62L76.42 51.62Q77.08 50 78.31 48.17Q79.54 46.34 81.28 45.02Q83.02 43.70 85.06 43.70L85.06 43.70Q86.74 43.70 87.40 44.63Q88.06 45.56 88.06 46.94L88.06 46.94Q88.06 47.18 88.06 47.39Q88.06 47.60 88 47.90L88 47.90Q87.82 49.52 86.74 51.26Q85.66 53 84.04 54.17Q82.42 55.34 80.56 55.34L80.56 55.34Q79.48 55.34 78.64 54.74L78.64 54.74Q78.10 56.78 78.10 58.46L78.10 58.46Q78.10 59.84 78.61 60.74Q79.12 61.64 80.20 61.64L80.20 61.64Q81.46 61.64 83.23 60.53Q85 59.42 87.07 56.72Q89.14 54.02 91.30 49.34L91.30 49.34Q91.30 49.28 91.42 49.28L91.42 49.28Q91.60 49.28 91.81 49.43Q92.02 49.58 91.90 49.70L91.90 49.70Q88.96 56.36 85.69 59.48Q82.42 62.60 80.14 62.60ZM80.26 54.38L80.26 54.38Q81.58 54.38 82.84 53.39Q84.10 52.40 85.12 50.87Q86.14 49.34 86.74 47.78L86.74 47.78Q86.98 47.12 86.98 46.28L86.98 46.28Q86.98 45.50 86.71 44.93Q86.44 44.36 85.78 44.36L85.78 44.36Q84.70 44.36 83.44 45.71Q82.18 47.06 81.10 48.89Q80.02 50.72 79.48 52.22L79.48 52.22Q79.30 52.64 79.15 53.09Q79 53.54 78.88 54.02L78.88 54.02Q79.60 54.38 80.26 54.38ZM91.66 62.30L91.66 62.30Q89.62 62.30 88.87 61.16Q88.12 60.02 88.12 58.34L88.12 58.34Q88.12 56.60 88.72 54.68Q89.32 52.76 89.86 51.62L89.86 51.62Q91.78 47.60 95.23 45.47Q98.68 43.34 102.34 43.34L102.34 43.34Q102.82 43.34 103.33 43.34Q103.84 43.34 104.32 43.46L104.32 43.46Q105.52 43.64 105.52 43.76L105.52 43.76Q105.52 43.88 104.65 44Q103.78 44.12 103.36 44.12L103.36 44.12Q100.42 44.12 98.11 45.68Q95.80 47.24 94.18 49.64Q92.56 52.04 91.69 54.53Q90.82 57.02 90.82 58.82L90.82 58.82Q90.82 59.96 91.21 60.68Q91.60 61.40 92.38 61.40L92.38 61.40Q93.22 61.40 94.30 60.26Q95.38 59.12 96.40 57.47Q97.42 55.82 98.26 54.23Q99.10 52.64 99.52 51.80L99.52 51.80L102.10 46.40Q103.12 46.16 104.17 45.83Q105.22 45.50 106.18 45.08L106.18 45.08Q105.16 46.82 104.23 48.74Q103.30 50.66 102.34 52.52L102.34 52.52Q101.62 53.90 100.93 55.76Q100.24 57.62 100.24 59.12L100.24 59.12L100.24 59.36Q100.24 59.84 100.36 60.41Q100.48 60.98 101.02 60.98L101.02 60.98Q101.68 60.98 102.70 60.17Q103.72 59.36 104.14 58.94L104.14 58.94Q106.06 57.02 107.47 54.68Q108.88 52.34 110.08 49.94L110.08 49.94Q110.20 49.82 110.26 49.82L110.26 49.82Q110.74 49.82 110.62 50.30L110.62 50.30Q110.62 50.30 110.35 50.84Q110.08 51.38 110.02 51.44L110.02 51.44Q108.88 53.54 107.74 55.46Q106.60 57.38 105.04 59.12L105.04 59.12Q104.08 60.08 102.70 61.16Q101.32 62.24 99.94 62.24L99.94 62.24Q98.62 62.24 98.08 61.19Q97.54 60.14 97.54 58.82L97.54 58.82Q97.54 57.98 97.69 57.17Q97.84 56.36 98.02 55.76L98.02 55.76Q97.60 56.84 96.55 58.40Q95.50 59.96 94.21 61.13Q92.92 62.30 91.66 62.30ZM136.36 66.32L136.36 66.32Q132.70 66.32 129.79 64.82Q126.88 63.32 125.17 60.50Q123.46 57.68 123.46 53.66L123.46 53.66Q123.46 53.18 123.49 52.67Q123.52 52.16 123.58 51.68L123.58 51.68Q120.94 49.22 119.74 46.31Q118.54 43.40 118.54 40.52L118.54 40.52Q118.54 37.70 119.53 35.03Q120.52 32.36 122.14 30.32L122.14 30.32L122.20 30.20L121.66 29.30Q120.34 27.08 120.34 24.86L120.34 24.86Q120.34 22.64 121.63 20.81Q122.92 18.98 125.23 17.90Q127.54 16.82 130.60 16.82L130.60 16.82Q133.30 16.82 136.54 17.78Q139.78 18.74 143.26 21.02L143.26 21.02Q143.92 21.44 144.61 21.92Q145.30 22.40 145.96 22.94L145.96 22.94Q148.18 21.62 150.40 20.51Q152.62 19.40 154.84 18.62L154.84 18.62Q157.96 17.42 160.51 16.91Q163.06 16.40 165.04 16.40L165.04 16.40Q168.76 16.40 170.59 17.99Q172.42 19.58 172.42 22.04L172.42 22.04Q172.42 24.20 171.07 26.75Q169.72 29.30 167.02 31.85Q164.32 34.40 160.36 36.50L160.36 36.50Q158.38 37.52 156.34 38.30L156.34 38.30Q156.46 38.84 156.58 39.41Q156.70 39.98 156.76 40.58L156.76 40.58Q156.82 41 156.85 41.48Q156.88 41.96 156.88 42.44L156.88 42.44Q156.88 45.86 155.35 48.62Q153.82 51.38 151.21 53.30Q148.60 55.22 145.27 56.27Q141.94 57.32 138.40 57.32L138.40 57.32Q135.76 57.32 133.09 56.72Q130.42 56.12 127.96 54.80L127.96 54.80Q127.90 59.84 130.30 62.57Q132.70 65.30 136.90 65.30L136.90 65.30Q139.12 65.30 141.82 64.43Q144.52 63.56 147.46 61.88L147.46 61.88Q150.28 60.26 152.77 58.19Q155.26 56.12 157.27 53.93Q159.28 51.74 160.42 49.76L160.42 49.76Q160.54 49.52 160.78 49.52L160.78 49.52Q160.96 49.52 161.11 49.70Q161.26 49.88 161.14 50.18L161.14 50.18Q159.16 53.66 155.71 57.05Q152.26 60.44 148.12 62.84L148.12 62.84Q145.12 64.58 142.12 65.45Q139.12 66.32 136.36 66.32ZM156.10 37.40L156.10 37.40Q157.12 36.98 158.02 36.56Q158.92 36.14 159.76 35.66L159.76 35.66Q165.28 32.60 168.16 28.82Q171.04 25.04 171.04 22.10L171.04 22.10Q171.04 20 169.63 18.71Q168.22 17.42 165.22 17.42L165.22 17.42Q163.36 17.42 160.87 18.05Q158.38 18.68 155.20 20.06L155.20 20.06Q151.30 21.68 147.58 24.32L147.58 24.32Q150.46 26.90 152.74 30.29Q155.02 33.68 156.10 37.40ZM130.42 36.20L130.42 36.20Q133.24 32.72 136.93 29.51Q140.62 26.30 144.64 23.72L144.64 23.72L142.78 22.46Q139.72 20.36 136.75 19.46Q133.78 18.56 131.20 18.56L131.20 18.56Q127.30 18.56 124.75 20.36Q122.20 22.16 122.20 25.16L122.20 25.16Q122.20 26.90 123.28 29L123.28 29Q126.58 25.70 130.54 25.70L130.54 25.70Q131.38 25.70 132.16 25.85Q132.94 26 133.72 26.36L133.72 26.36Q133.96 26.42 133.96 26.66L133.96 26.66Q133.96 26.84 133.78 26.93Q133.60 27.02 133.30 26.90L133.30 26.90Q132.22 26.48 130.84 26.48L130.84 26.48Q126.88 26.48 123.76 29.90L123.76 29.90L123.88 30.08Q126.46 33.92 130.42 36.20ZM144.04 39.56L144.04 39.56Q149.86 39.56 155.26 37.70L155.26 37.70Q154.18 33.98 151.81 30.77Q149.44 27.56 146.44 25.10L146.44 25.10Q142.84 27.68 139.57 30.92Q136.30 34.16 133.84 37.82L133.84 37.82Q136.24 38.72 138.82 39.14Q141.40 39.56 144.04 39.56ZM123.94 49.28L123.94 49.28Q124.18 48.20 124.51 47.06Q124.84 45.92 125.26 44.72L125.26 44.72Q126.76 40.94 129.64 37.22L129.64 37.22Q127.60 36.08 125.89 34.58Q124.18 33.08 122.80 31.16L122.80 31.16L122.56 31.46Q119.92 34.76 119.92 39.32L119.92 39.32Q119.92 41.84 120.88 44.42Q121.84 47 123.94 49.28ZM139.72 55.94L139.72 55.94Q144.04 55.94 147.76 54.32Q151.48 52.70 153.73 49.70Q155.98 46.70 155.98 42.56L155.98 42.56Q155.98 41.90 155.92 41.24Q155.86 40.58 155.74 39.86L155.74 39.86L155.50 38.60Q149.86 40.52 143.62 40.52L143.62 40.52Q140.92 40.52 138.28 40.10Q135.64 39.68 133.18 38.84L133.18 38.84Q130.84 42.50 129.46 46.58L129.46 46.58Q128.98 48.26 128.62 49.76Q128.26 51.26 128.14 52.64L128.14 52.64Q128.38 52.82 128.62 52.97Q128.86 53.12 129.10 53.24L129.10 53.24Q131.68 54.62 134.38 55.28Q137.08 55.94 139.72 55.94ZM167.38 62.30L167.38 62.30Q165.04 62.30 165.04 59.78L165.04 59.78Q165.04 57.68 166.90 53.66L166.90 53.66Q167.44 52.58 168.13 51.08Q168.82 49.58 169.33 48.17Q169.84 46.76 169.84 45.86L169.84 45.86Q169.84 45.02 169.24 45.02L169.24 45.02Q168.52 45.02 167.80 45.92Q167.08 46.82 166.51 47.93Q165.94 49.04 165.58 49.70L165.58 49.70Q164.68 51.44 163.54 53.48Q162.40 55.52 161.26 57.08L161.26 57.08L161.20 57.08Q161.08 57.08 160.87 56.93Q160.66 56.78 160.72 56.72L160.72 56.72Q161.86 55.16 162.97 53.12Q164.08 51.08 164.86 49.40L164.86 49.40Q165.52 48.14 166.27 46.79Q167.02 45.44 168.04 44.51Q169.06 43.58 170.38 43.58L170.38 43.58Q172.60 43.58 172.60 45.32L172.60 45.32Q172.60 46.46 171.88 48.38Q171.16 50.30 169.96 53.24L169.96 53.24Q168.88 55.76 168.37 57.47Q167.86 59.18 167.86 60.14L167.86 60.14Q167.86 61.28 168.64 61.28L168.64 61.28Q169.48 61.28 171.34 59.72L171.34 59.72Q172.96 58.28 174.46 56.15Q175.96 54.02 177.70 50.36L177.70 50.36Q178.18 49.40 178.69 47.93Q179.20 46.46 179.59 45.32Q179.98 44.18 179.98 44.18L179.98 44.18Q181 43.94 182.26 43.55Q183.52 43.16 184.48 42.74L184.48 42.74Q183.88 43.34 182.77 45.44Q181.66 47.54 180.49 50.21Q179.32 52.88 178.48 55.40L178.48 55.40Q177.46 58.28 177.46 60.02L177.46 60.02Q177.46 61.46 178.36 61.46L178.36 61.46Q178.78 61.46 179.41 61.10Q180.04 60.74 180.94 59.96L180.94 59.96Q181.72 59.30 182.41 58.40Q183.10 57.50 183.76 56.54L183.76 56.54Q184.66 55.22 185.65 53.48Q186.64 51.74 187.84 49.40L187.84 49.40Q187.96 49.22 188.02 49.22L188.02 49.22Q188.20 49.22 188.35 49.37Q188.50 49.52 188.44 49.64L188.44 49.64Q185.20 56 182.74 59.15Q180.28 62.30 177.40 62.30L177.40 62.30Q176.26 62.30 175.75 61.52Q175.24 60.74 175.24 59.42L175.24 59.42Q175.24 58.40 175.48 57.14Q175.72 55.88 176.14 54.56L176.14 54.56Q173.92 58.40 171.88 60.35Q169.84 62.30 167.38 62.30ZM188.50 62.54L188.50 62.54Q187.36 62.54 186.46 61.61Q185.56 60.68 185.56 58.28L185.56 58.28Q185.56 56.66 186.22 54.08Q186.88 51.50 187.99 48.38Q189.10 45.26 190.45 41.99Q191.80 38.72 193.21 35.75Q194.62 32.78 195.85 30.44Q197.08 28.10 197.98 26.90L197.98 26.90Q199.54 24.80 201.19 23.69Q202.84 22.58 204.04 22.58L204.04 22.58Q206.02 22.58 206.02 25.04L206.02 25.04Q206.02 26.36 205.24 28.43Q204.46 30.50 202.66 33.38L202.66 33.38Q201.34 35.48 199.69 37.79Q198.04 40.10 196.36 42.26Q194.68 44.42 193.15 46.13Q191.62 47.84 190.54 48.80L190.54 48.80Q190.54 48.80 190.12 49.97Q189.70 51.14 189.13 52.91Q188.56 54.68 188.14 56.54Q187.72 58.40 187.72 59.78L187.72 59.78Q187.72 60.68 187.99 61.25Q188.26 61.82 188.86 61.82L188.86 61.82Q189.76 61.82 191.32 60.62L191.32 60.62Q192.28 59.90 193.18 58.91Q194.08 57.92 194.77 56.96Q195.46 56 195.70 55.58L195.70 55.58Q196.24 54.74 196.99 53.42Q197.74 52.10 198.40 50.93Q199.06 49.76 199.18 49.46L199.18 49.46Q199.30 49.34 199.36 49.34L199.36 49.34Q199.48 49.34 199.66 49.49Q199.84 49.64 199.72 49.76L199.72 49.76Q198.28 52.76 197.05 54.86Q195.82 56.96 194.56 58.43Q193.30 59.90 191.74 61.22L191.74 61.22Q191.08 61.82 190.21 62.18Q189.34 62.54 188.50 62.54ZM190.96 47.48L190.96 47.48Q192.40 45.80 194.38 43.25Q196.36 40.70 198.40 37.88Q200.44 35.06 201.94 32.60L201.94 32.60Q203.44 30.14 204.07 28.28Q204.70 26.42 204.70 25.28L204.70 25.28Q204.70 23.66 203.68 23.66L203.68 23.66Q203.02 23.66 201.91 24.71Q200.80 25.76 199.54 28.04L199.54 28.04Q198.64 29.66 197.56 31.94Q196.48 34.22 195.40 36.74Q194.32 39.26 193.36 41.51Q192.40 43.76 191.77 45.38Q191.14 47 190.96 47.48ZM186.46 86L186.46 86Q187.18 84.80 188.74 81.92Q190.30 79.04 192.28 75.17Q194.26 71.30 196.33 67.01Q198.40 62.72 200.14 58.76L200.14 58.76Q200.08 58.58 200.08 58.37Q200.08 58.16 200.08 57.98L200.08 57.98Q200.08 56.54 200.68 55.34Q201.28 54.14 202.18 53.66L202.18 53.66L202.36 53.60Q203.02 51.86 203.53 50.36Q204.04 48.86 204.28 47.72L204.28 47.72Q204.52 46.82 204.52 46.10L204.52 46.10Q204.52 45.08 203.92 45.08L203.92 45.08Q203.50 45.08 202.87 45.62Q202.24 46.16 201.58 47.06L201.58 47.06Q200.56 48.62 199.78 49.94Q199 51.26 198.22 52.64Q197.44 54.02 196.30 55.88L196.30 55.88Q196.18 56.06 195.91 56Q195.64 55.94 195.70 55.70L195.70 55.70Q196.84 53.78 197.92 51.71Q199 49.64 200.05 47.84Q201.10 46.04 202.15 44.90Q203.20 43.76 204.28 43.76L204.28 43.76Q205.66 43.76 206.17 44.84Q206.68 45.92 206.68 47.30L206.68 47.30Q206.68 48.08 206.56 48.86Q206.44 49.64 206.26 50.30L206.26 50.30Q206.74 49.16 207.73 47.63Q208.72 46.10 210.04 44.90Q211.36 43.70 212.62 43.70L212.62 43.70Q214.60 43.70 215.35 44.84Q216.10 45.98 216.10 47.60L216.10 47.60Q216.10 49.34 215.53 51.26Q214.96 53.18 214.36 54.38L214.36 54.38Q213.04 57.14 211 59.03Q208.96 60.92 206.50 61.82L206.50 61.82Q209.38 62 211.54 60.92Q213.70 59.84 215.38 57.98Q217.06 56.12 218.38 53.84Q219.70 51.56 220.84 49.34L220.84 49.34Q220.90 49.10 221.20 49.10L221.20 49.10Q221.38 49.10 221.50 49.25Q221.62 49.40 221.50 49.58L221.50 49.58Q220.30 51.98 218.98 54.29Q217.66 56.60 215.95 58.49Q214.24 60.38 211.99 61.49Q209.74 62.60 206.62 62.60L206.62 62.60Q204.64 62.60 203.38 62.18Q202.12 61.76 201.40 61.10L201.40 61.10L200.86 62.24L200.44 62.96Q199.60 64.64 198.40 67.19Q197.20 69.74 195.88 72.65Q194.56 75.56 193.39 78.20Q192.22 80.84 191.38 82.73Q190.54 84.62 190.30 85.10L190.30 85.10Q189.28 85.34 188.35 85.43Q187.42 85.52 186.46 86ZM203.74 61.10L203.74 61.10Q205.60 61.10 207.16 59.78Q208.72 58.46 209.95 56.60Q211.18 54.74 211.84 53.24L211.84 53.24Q212.08 52.70 212.47 51.59Q212.86 50.48 213.19 49.22Q213.52 47.96 213.52 46.88L213.52 46.88Q213.52 45.92 213.16 45.29Q212.80 44.66 211.90 44.66L211.90 44.66Q211.12 44.66 210.16 45.65Q209.20 46.64 208.21 48.11Q207.22 49.58 206.41 51.08Q205.60 52.58 205.06 53.60L205.06 53.60Q205.36 53.90 205.48 54.26Q205.60 54.62 205.54 54.74L205.54 54.74Q205.30 54.62 205.06 54.62Q204.82 54.62 204.58 54.62L204.58 54.62L201.94 60.08Q202.36 61.10 203.74 61.10ZM221.14 62.30L221.14 62.30Q219.10 62.30 218.35 61.16Q217.60 60.02 217.60 58.34L217.60 58.34Q217.60 56.60 218.20 54.68Q218.80 52.76 219.34 51.62L219.34 51.62Q221.26 47.60 224.71 45.47Q228.16 43.34 231.82 43.34L231.82 43.34Q232.30 43.34 232.81 43.34Q233.32 43.34 233.80 43.46L233.80 43.46Q235 43.64 235 43.76L235 43.76Q235 43.88 234.13 44Q233.26 44.12 232.84 44.12L232.84 44.12Q229.90 44.12 227.59 45.68Q225.28 47.24 223.66 49.64Q222.04 52.04 221.17 54.53Q220.30 57.02 220.30 58.82L220.30 58.82Q220.30 59.96 220.69 60.68Q221.08 61.40 221.86 61.40L221.86 61.40Q222.70 61.40 223.78 60.26Q224.86 59.12 225.88 57.47Q226.90 55.82 227.74 54.23Q228.58 52.64 229 51.80L229 51.80L231.58 46.40Q232.60 46.16 233.65 45.83Q234.70 45.50 235.66 45.08L235.66 45.08Q234.64 46.82 233.71 48.74Q232.78 50.66 231.82 52.52L231.82 52.52Q231.10 53.90 230.41 55.76Q229.72 57.62 229.72 59.12L229.72 59.12L229.72 59.36Q229.72 59.84 229.84 60.41Q229.96 60.98 230.50 60.98L230.50 60.98Q231.16 60.98 232.18 60.17Q233.20 59.36 233.62 58.94L233.62 58.94Q235.54 57.02 236.95 54.68Q238.36 52.34 239.56 49.94L239.56 49.94Q239.68 49.82 239.74 49.82L239.74 49.82Q240.22 49.82 240.10 50.30L240.10 50.30Q240.10 50.30 239.83 50.84Q239.56 51.38 239.50 51.44L239.50 51.44Q238.36 53.54 237.22 55.46Q236.08 57.38 234.52 59.12L234.52 59.12Q233.56 60.08 232.18 61.16Q230.80 62.24 229.42 62.24L229.42 62.24Q228.10 62.24 227.56 61.19Q227.02 60.14 227.02 58.82L227.02 58.82Q227.02 57.98 227.17 57.17Q227.32 56.36 227.50 55.76L227.50 55.76Q227.08 56.84 226.03 58.40Q224.98 59.96 223.69 61.13Q222.40 62.30 221.14 62.30Z"></path></svg>