<svg xmlns="http://www.w3.org/2000/svg" width="252.204" height="75.42" viewBox="-12.08 10.58 252.204 75.42"><path d="M-1.82 75.08q-2.7 0-5.04-.69t-3.78-2.31q-1.44-1.62-1.44-4.38 0-.96.18-1.92.12-.36.42-.36.36 0 .36.3t-.03.63-.03.63q0 2.58 1.47 4.2t3.81 2.4q2.34.78 4.98.78 2.88 0 5.58-.84 2.88-.9 5.49-2.67 2.61-1.77 5.01-4.11-4.26-1.08-7.38-3.78-3.12-2.7-4.77-6.54-1.65-3.84-1.65-8.16 0-3.9 1.32-7.62 1.62-4.56 4.74-8.82 3.12-4.26 8.28-7.74 5.16-3.48 12.81-5.7t18.27-2.7q1.26-.06 3.03-.06h3.45q1.2-.3 2.1-.3.96 0 1.74.24.18.06.18.36.06.06.06.24 0 .42-.48.42-2.16.06-3.48 1.5-1.32 1.44-2.64 3.72-.84 1.62-1.26 3.72-.42 2.1-.54 4.56 1.68 1.38 2.61 3.18.93 1.8.81 3.9 0 .42-.42.42-.48 0-.48-.48.12-1.74-.57-3.27t-1.95-2.79q-.18 4.2-.27 9-.09 4.8-1.35 9.36 1.62-.12 3.12-.36 2.16-3.54 4.5-7.62t4.8-8.34q2.46-4.26 5.1-8.22 2.64-3.96 5.52-7.2 3.3-3.72 6.6-5.4 3.3-1.68 6.06-1.68 3.18 0 5.25 2.07t2.07 5.61q0 3.9-3.03 9.21-3.03 5.31-10.35 11.37-4.68 3.84-10.74 6.48-2.4 4.68-3.75 8.49-1.35 3.81-1.35 6.27 0 1.74.75 2.73t2.31.99q1.86 0 4.17-1.77 2.31-1.77 4.59-4.8t4.02-6.75q.18-.3.42-.3.42 0 .24.48-1.74 3.6-3.99 6.96t-4.89 5.49q-2.64 2.13-5.58 2.13-3.06 0-4.26-1.83-1.2-1.83-1.2-4.59 0-2.58.78-5.58t1.92-5.64q-2.04.66-4.11 1.17-2.07.51-4.17.87-2.64 3.66-5.34 6.6-2.7 2.94-5.25 4.62-2.55 1.68-4.77 1.56-.48 0-.48-.36 0-.24.24-.42 2.52-1.74 4.05-4.71 1.53-2.97 2.43-6.51h-1.56q-2.22 0-4.44-.39t-4.32-.99q-2.58 4.92-5.88 9.36-3.3 4.44-7.26 7.98 3.78-.06 6.96-1.86t4.14-5.34q.06-.3.42-.3.54 0 .42.54-.78 2.76-2.76 4.53-1.98 1.77-4.65 2.58-2.67.81-5.49.69-3.42 2.82-7.29 4.77-3.87 1.95-8.31 2.67-1.14.18-2.37.3-1.23.12-2.43.12Zm54.66-26.46v.06q2.1-.42 4.11-.99 2.01-.57 3.99-1.23 1.98-4.14 4.59-8.22 2.61-4.08 5.34-7.86Q73.6 26.6 76 23.45t3.9-5.31q.3-.36.54-.36.42 0 .42.48 0 .3-.18.48-1.98 2.58-4.44 6.63-2.46 4.05-4.92 8.88-2.46 4.83-4.5 9.69 2.22-1.14 4.26-2.43 2.04-1.29 3.9-2.79 4.98-3.96 8.07-7.86 3.09-3.9 4.56-7.35 1.47-3.45 1.47-5.97 0-2.22-1.05-3.51-1.05-1.29-2.97-1.29-2.04 0-4.86 1.53-2.82 1.53-6.36 5.07-2.82 2.82-5.55 6.48-2.73 3.66-5.37 7.65t-5.16 7.89q-2.52 3.9-4.92 7.26Zm-36.96 17.4q3.78-3.96 6.93-8.88 3.15-4.92 5.73-9.54-3.78-1.68-6.12-4.29-2.34-2.61-2.1-6.15.3-4.02 2.52-6.51t5.58-3.69q3.36-1.2 7.08-1.2 2.76 0 5.7.66 2.58-3.54 5.01-6 2.43-2.46 4.71-3.78-.6 0-1.23-.03t-1.29-.03q-5.4 0-10.86.87-5.46.87-10.62 2.67-5.16 1.8-9.63 4.71-4.47 2.91-7.83 6.93-3.36 4.02-5.22 9.36-1.38 4.02-1.38 7.74 0 4.14 1.53 7.74 1.53 3.6 4.47 6.06 2.94 2.46 7.02 3.36Zm30.36-37.8q.3-1.38.75-2.67t1.05-2.37q.9-1.56 2.52-3.51 1.62-1.95 3.6-2.79l-1.14-.12q-2.16 1.14-4.53 3.87-2.37 2.73-4.77 6.51 1.38.42 2.52 1.08Zm-17.1 18.3 3.36-6.12q2.1-3.84 4.17-7.2 2.07-3.36 4.05-6.12-1.08-.24-2.16-.33-1.08-.09-2.16-.09-3.3 0-6.3 1.08t-4.95 3.39q-1.95 2.31-2.25 6.03-.18 3.06 1.53 5.43 1.71 2.37 4.71 3.93Zm12.3 3h1.74q1.02-4.44 1.38-9.09.36-4.65.96-8.19l.54-3.3q-.6-.3-1.29-.63-.69-.33-1.41-.57-2.04 3.3-3.99 7.26-1.95 3.96-3.93 8.22l-2.28 4.92q1.86.54 3.96.96 2.1.42 4.32.42Zm-.3 10.08q2.1-.72 4.26-3.33 2.16-2.61 4.5-6.27-.72.06-1.44.15t-1.44.15q-.78 2.58-2.19 4.92t-3.69 4.38Zm39 3q-2.58 0-3.66-1.77t-1.08-4.05q0-1.38.3-2.7.3-1.32.72-2.46.66-1.62 1.89-3.45t2.97-3.15q1.74-1.32 3.78-1.32 1.68 0 2.34.93.66.93.66 2.31v.45q0 .21-.06.51-.18 1.62-1.26 3.36-1.08 1.74-2.7 2.91-1.62 1.17-3.48 1.17-1.08 0-1.92-.6-.54 2.04-.54 3.72 0 1.38.51 2.28.51.9 1.59.9 1.26 0 3.03-1.11 1.77-1.11 3.84-3.81t4.23-7.38q0-.06.12-.06.18 0 .39.15.21.15.09.27-2.94 6.66-6.21 9.78-3.27 3.12-5.55 3.12Zm.12-8.22q1.32 0 2.58-.99t2.28-2.52q1.02-1.53 1.62-3.09.24-.66.24-1.5 0-.78-.27-1.35-.27-.57-.93-.57-1.08 0-2.34 1.35-1.26 1.35-2.34 3.18-1.08 1.83-1.62 3.33-.18.42-.33.87-.15.45-.27.93.72.36 1.38.36Zm11.4 7.92q-2.04 0-2.79-1.14t-.75-2.82q0-1.74.6-3.66.6-1.92 1.14-3.06 1.92-4.02 5.37-6.15 3.45-2.13 7.11-2.13h.99q.51 0 .99.12 1.2.18 1.2.3t-.87.24q-.87.12-1.29.12-2.94 0-5.25 1.56t-3.93 3.96q-1.62 2.4-2.49 4.89-.87 2.49-.87 4.29 0 1.14.39 1.86.39.72 1.17.72.84 0 1.92-1.14t2.1-2.79q1.02-1.65 1.86-3.24.84-1.59 1.26-2.43l2.58-5.4q1.02-.24 2.07-.57 1.05-.33 2.01-.75-1.02 1.74-1.95 3.66-.93 1.92-1.89 3.78-.72 1.38-1.41 3.24-.69 1.86-.69 3.36v.24q0 .48.12 1.05.12.57.66.57.66 0 1.68-.81t1.44-1.23q1.92-1.92 3.33-4.26 1.41-2.34 2.61-4.74.12-.12.18-.12.48 0 .36.48l-.27.54q-.27.54-.33.6-1.14 2.1-2.28 4.02-1.14 1.92-2.7 3.66-.96.96-2.34 2.04t-2.76 1.08q-1.32 0-1.86-1.05t-.54-2.37q0-.84.15-1.65.15-.81.33-1.41-.42 1.08-1.47 2.64t-2.34 2.73q-1.29 1.17-2.55 1.17Zm44.7 4.02q-3.66 0-6.57-1.5t-4.62-4.32q-1.71-2.82-1.71-6.84 0-.48.03-.99t.09-.99q-2.64-2.46-3.84-5.37-1.2-2.91-1.2-5.79 0-2.82.99-5.49.99-2.67 2.61-4.71l.06-.12-.54-.9q-1.32-2.22-1.32-4.44t1.29-4.05q1.29-1.83 3.6-2.91t5.37-1.08q2.7 0 5.94.96t6.72 3.24q.66.42 1.35.9.69.48 1.35 1.02 2.22-1.32 4.44-2.43t4.44-1.89q3.12-1.2 5.67-1.71t4.53-.51q3.72 0 5.55 1.59 1.83 1.59 1.83 4.05 0 2.16-1.35 4.71t-4.05 5.1q-2.7 2.55-6.66 4.65-1.98 1.02-4.02 1.8.12.54.24 1.11.12.57.18 1.17.06.42.09.9.03.48.03.96 0 3.42-1.53 6.18t-4.14 4.68q-2.61 1.92-5.94 2.97-3.33 1.05-6.87 1.05-2.64 0-5.31-.6-2.67-.6-5.13-1.92-.06 5.04 2.34 7.77 2.4 2.73 6.6 2.73 2.22 0 4.92-.87 2.7-.87 5.64-2.55 2.82-1.62 5.31-3.69 2.49-2.07 4.5-4.26t3.15-4.17q.12-.24.36-.24.18 0 .33.18.15.18.03.48-1.98 3.48-5.43 6.87-3.45 3.39-7.59 5.79-3 1.74-6 2.61-3 .87-5.76.87ZM156.1 37.4q1.02-.42 1.92-.84.9-.42 1.74-.9 5.52-3.06 8.4-6.84 2.88-3.78 2.88-6.72 0-2.1-1.41-3.39t-4.41-1.29q-1.86 0-4.35.63-2.49.63-5.67 2.01-3.9 1.62-7.62 4.26 2.88 2.58 5.16 5.97 2.28 3.39 3.36 7.11Zm-25.68-1.2q2.82-3.48 6.51-6.69 3.69-3.21 7.71-5.79l-1.86-1.26q-3.06-2.1-6.03-3-2.97-.9-5.55-.9-3.9 0-6.45 1.8-2.55 1.8-2.55 4.8 0 1.74 1.08 3.84 3.3-3.3 7.26-3.3.84 0 1.62.15.78.15 1.56.51.24.06.24.3 0 .18-.18.27-.18.09-.48-.03-1.08-.42-2.46-.42-3.96 0-7.08 3.42l.12.18q2.58 3.84 6.54 6.12Zm13.62 3.36q5.82 0 11.22-1.86-1.08-3.72-3.45-6.93-2.37-3.21-5.37-5.67-3.6 2.58-6.87 5.82t-5.73 6.9q2.4.9 4.98 1.32 2.58.42 5.22.42Zm-20.1 9.72q.24-1.08.57-2.22.33-1.14.75-2.34 1.5-3.78 4.38-7.5-2.04-1.14-3.75-2.64-1.71-1.5-3.09-3.42l-.24.3q-2.64 3.3-2.64 7.86 0 2.52.96 5.1.96 2.58 3.06 4.86Zm15.78 6.66q4.32 0 8.04-1.62 3.72-1.62 5.97-4.62 2.25-3 2.25-7.14 0-.66-.06-1.32t-.18-1.38l-.24-1.26q-5.64 1.92-11.88 1.92-2.7 0-5.34-.42-2.64-.42-5.1-1.26-2.34 3.66-3.72 7.74-.48 1.68-.84 3.18-.36 1.5-.48 2.88.24.18.48.33.24.15.48.27 2.58 1.38 5.28 2.04 2.7.66 5.34.66Zm27.66 6.36q-2.34 0-2.34-2.52 0-2.1 1.86-6.12.54-1.08 1.23-2.58t1.2-2.91q.51-1.41.51-2.31 0-.84-.6-.84-.72 0-1.44.9t-1.29 2.01q-.57 1.11-.93 1.77-.9 1.74-2.04 3.78-1.14 2.04-2.28 3.6h-.06q-.12 0-.33-.15-.21-.15-.15-.21 1.14-1.56 2.25-3.6t1.89-3.72q.66-1.26 1.41-2.61.75-1.35 1.77-2.28 1.02-.93 2.34-.93 2.22 0 2.22 1.74 0 1.14-.72 3.06-.72 1.92-1.92 4.86-1.08 2.52-1.59 4.23-.51 1.71-.51 2.67 0 1.14.78 1.14.84 0 2.7-1.56 1.62-1.44 3.12-3.57t3.24-5.79q.48-.96.99-2.43.51-1.47.9-2.61l.39-1.14q1.02-.24 2.28-.63 1.26-.39 2.22-.81-.6.6-1.71 2.7-1.11 2.1-2.28 4.77-1.17 2.67-2.01 5.19-1.02 2.88-1.02 4.62 0 1.44.9 1.44.42 0 1.05-.36.63-.36 1.53-1.14.78-.66 1.47-1.56t1.35-1.86q.9-1.32 1.89-3.06.99-1.74 2.19-4.08.12-.18.18-.18.18 0 .33.15.15.15.09.27-3.24 6.36-5.7 9.51-2.46 3.15-5.34 3.15-1.14 0-1.65-.78t-.51-2.1q0-1.02.24-2.28.24-1.26.66-2.58-2.22 3.84-4.26 5.79-2.04 1.95-4.5 1.95Zm21.12.24q-1.14 0-2.04-.93-.9-.93-.9-3.33 0-1.62.66-4.2t1.77-5.7q1.11-3.12 2.46-6.39 1.35-3.27 2.76-6.24 1.41-2.97 2.64-5.31 1.23-2.34 2.13-3.54 1.56-2.1 3.21-3.21 1.65-1.11 2.85-1.11 1.98 0 1.98 2.46 0 1.32-.78 3.39-.78 2.07-2.58 4.95-1.32 2.1-2.97 4.41-1.65 2.31-3.33 4.47-1.68 2.16-3.21 3.87t-2.61 2.67l-.42 1.17q-.42 1.17-.99 2.94-.57 1.77-.99 3.63-.42 1.86-.42 3.24 0 .9.27 1.47t.87.57q.9 0 2.46-1.2.96-.72 1.86-1.71.9-.99 1.59-1.95.69-.96.93-1.38.54-.84 1.29-2.16.75-1.32 1.41-2.49.66-1.17.78-1.47.12-.12.18-.12.12 0 .3.15t.06.27q-1.44 3-2.67 5.1-1.23 2.1-2.49 3.57-1.26 1.47-2.82 2.79-.66.6-1.53.96t-1.71.36Zm2.46-15.06q1.44-1.68 3.42-4.23 1.98-2.55 4.02-5.37 2.04-2.82 3.54-5.28 1.5-2.46 2.13-4.32.63-1.86.63-3 0-1.62-1.02-1.62-.66 0-1.77 1.05-1.11 1.05-2.37 3.33-.9 1.62-1.98 3.9t-2.16 4.8q-1.08 2.52-2.04 4.77-.96 2.25-1.59 3.87-.63 1.62-.81 2.1ZM186.46 86q.72-1.2 2.28-4.08 1.56-2.88 3.54-6.75t4.05-8.16q2.07-4.29 3.81-8.25-.06-.18-.06-.39v-.39q0-1.44.6-2.64.6-1.2 1.5-1.68l.18-.06q.66-1.74 1.17-3.24.51-1.5.75-2.64.24-.9.24-1.62 0-1.02-.6-1.02-.42 0-1.05.54-.63.54-1.29 1.44-1.02 1.56-1.8 2.88-.78 1.32-1.56 2.7-.78 1.38-1.92 3.24-.12.18-.39.12t-.21-.3q1.14-1.92 2.22-3.99 1.08-2.07 2.13-3.87 1.05-1.8 2.1-2.94t2.13-1.14q1.38 0 1.89 1.08t.51 2.46q0 .78-.12 1.56t-.3 1.44q.48-1.14 1.47-2.67t2.31-2.73q1.32-1.2 2.58-1.2 1.98 0 2.73 1.14t.75 2.76q0 1.74-.57 3.66-.57 1.92-1.17 3.12-1.32 2.76-3.36 4.65-2.04 1.89-4.5 2.79 2.88.18 5.04-.9t3.84-2.94q1.68-1.86 3-4.14 1.32-2.28 2.46-4.5.06-.24.36-.24.18 0 .3.15t0 .33q-1.2 2.4-2.52 4.71t-3.03 4.2q-1.71 1.89-3.96 3t-5.37 1.11q-1.98 0-3.24-.42-1.26-.42-1.98-1.08l-.54 1.14-.42.72q-.84 1.68-2.04 4.23-1.2 2.55-2.52 5.46t-2.49 5.55q-1.17 2.64-2.01 4.53-.84 1.89-1.08 2.37-1.02.24-1.95.33-.93.09-1.89.57Zm17.28-24.9q1.86 0 3.42-1.32 1.56-1.32 2.79-3.18t1.89-3.36q.24-.54.63-1.65.39-1.11.72-2.37.33-1.26.33-2.34 0-.96-.36-1.59-.36-.63-1.26-.63-.78 0-1.74.99t-1.95 2.46q-.99 1.47-1.8 2.97-.81 1.5-1.35 2.52.3.3.42.66.12.36.06.48-.24-.12-.48-.12h-.48l-2.64 5.46q.42 1.02 1.8 1.02Zm17.4 1.2q-2.04 0-2.79-1.14t-.75-2.82q0-1.74.6-3.66.6-1.92 1.14-3.06 1.92-4.02 5.37-6.15 3.45-2.13 7.11-2.13h.99q.51 0 .99.12 1.2.18 1.2.3t-.87.24q-.87.12-1.29.12-2.94 0-5.25 1.56t-3.93 3.96q-1.62 2.4-2.49 4.89-.87 2.49-.87 4.29 0 1.14.39 1.86.39.72 1.17.72.84 0 1.92-1.14t2.1-2.79q1.02-1.65 1.86-3.24.84-1.59 1.26-2.43l2.58-5.4q1.02-.24 2.07-.57 1.05-.33 2.01-.75-1.02 1.74-1.95 3.66-.93 1.92-1.89 3.78-.72 1.38-1.41 3.24-.69 1.86-.69 3.36v.24q0 .48.12 1.05.12.57.66.57.66 0 1.68-.81t1.44-1.23q1.92-1.92 3.33-4.26 1.41-2.34 2.61-4.74.12-.12.18-.12.48 0 .36.48l-.27.54q-.27.54-.33.6-1.14 2.1-2.28 4.02-1.14 1.92-2.7 3.66-.96.96-2.34 2.04t-2.76 1.08q-1.32 0-1.86-1.05t-.54-2.37q0-.84.15-1.65.15-.81.33-1.41-.42 1.08-1.47 2.64t-2.34 2.73q-1.29 1.17-2.55 1.17Z"/></svg>