<svg version="1.1" xmlns="http://www.w3.org/2000/svg" xmlns:xlink="http://www.w3.org/1999/xlink" role="img" width="236.30999755859375" height="46.720001220703125" viewBox="2.1700000762939453 13.460000038146973 236.30999755859375 46.720001220703125"><title>Parisienne</title><path fill="#000000" d="M55.08 13.46L55.55 14.13Q53.44 15.71 51.60 17.91L51.60 17.91Q53.38 19.02 54.61 20.35Q55.84 21.69 56.59 23.06Q57.34 24.44 57.66 25.79Q57.98 27.14 57.98 28.28L57.98 28.28Q57.98 31.15 56.90 33.27Q55.81 35.40 54.04 36.80Q52.27 38.21 49.97 38.90Q47.67 39.59 45.21 39.59L45.21 39.59Q42.46 39.59 39.79 38.97L39.79 38.97Q38.56 41.58 37.12 44.16Q35.69 46.74 34.00 49.09Q32.32 51.45 30.34 53.49Q28.36 55.53 26.09 57.00Q23.82 58.48 21.19 59.33Q18.55 60.18 15.56 60.18L15.56 60.18Q12.66 60.18 10.20 59.25Q7.74 58.31 5.95 56.51Q4.16 54.71 3.17 52.11Q2.17 49.52 2.17 46.18L2.17 46.18Q2.17 41.84 3.65 37.83Q5.13 33.82 7.72 30.33Q10.32 26.84 13.83 24.00Q17.35 21.16 21.42 19.14Q25.49 17.12 29.95 16.00Q34.40 14.89 38.85 14.89L38.85 14.89Q42.34 14.89 45.05 15.46Q47.76 16.03 49.84 16.97L49.84 16.97Q51.01 15.95 52.30 15.05Q53.59 14.16 55.08 13.46L55.08 13.46ZM37.33 36.54L37.33 36.54Q38.68 33.73 39.99 31.14Q41.31 28.54 42.67 26.21Q44.04 23.88 45.50 21.85Q46.97 19.81 48.67 18.08L48.67 18.08Q46.73 17.32 44.46 16.97Q42.19 16.62 39.61 16.62L39.61 16.62Q36.07 16.62 32.67 17.47Q29.27 18.32 26.12 19.80Q22.97 21.28 20.12 23.30Q17.26 25.32 14.81 27.69Q12.37 30.07 10.39 32.66Q8.41 35.25 7.02 37.89Q5.63 40.53 4.88 43.09Q4.13 45.65 4.13 47.97L4.13 47.97Q4.13 50.22 4.96 52.17Q5.78 54.12 7.23 55.55Q8.68 56.99 10.68 57.81Q12.69 58.63 15.09 58.63L15.09 58.63Q18.81 58.63 21.77 57.17Q24.73 55.70 27.25 52.99Q29.77 50.28 32.03 46.47Q34.28 42.66 36.63 37.98L36.63 37.98Q33.58 36.78 30.97 34.90L30.97 34.90L31.44 34.08Q32.85 34.78 34.30 35.41Q35.75 36.04 37.33 36.54ZM54.91 26.61L54.91 26.61Q54.91 24.00 53.78 22.16Q52.65 20.31 50.63 19.08L50.63 19.08Q47.96 22.54 45.55 27.12Q43.13 31.71 40.55 37.33L40.55 37.33Q41.40 37.48 42.25 37.55Q43.10 37.63 43.98 37.63L43.98 37.63Q46.21 37.63 48.18 36.83Q50.16 36.04 51.65 34.59Q53.15 33.14 54.03 31.12Q54.91 29.10 54.91 26.61ZM74.77 37.04L75.71 37.45Q75.33 38.21 74.64 39.44Q73.95 40.67 73.16 42.15Q72.37 43.63 71.56 45.24Q70.76 46.85 70.10 48.39Q69.44 49.93 69.01 51.29Q68.59 52.65 68.59 53.59L68.59 53.59Q68.59 54.53 68.95 54.81Q69.32 55.09 69.91 55.09L69.91 55.09Q70.76 55.09 71.65 54.59Q72.54 54.09 73.41 53.30Q74.27 52.51 75.09 51.51Q75.91 50.52 76.63 49.50Q77.35 48.49 77.93 47.57Q78.52 46.65 78.93 46.00L78.93 46.00L79.98 46.82Q79.49 47.76 78.81 48.85Q78.14 49.93 77.33 51.03Q76.53 52.13 75.59 53.15Q74.65 54.18 73.61 54.97Q72.57 55.76 71.43 56.23Q70.29 56.70 69.09 56.70L69.09 56.70Q67.33 56.70 66.51 55.64Q65.69 54.59 65.69 52.92L65.69 52.92Q65.69 52.80 65.70 52.41Q65.72 52.01 65.78 51.78L65.78 51.78Q64.31 53.62 62.98 54.82Q61.64 56.02 60.40 56.73Q59.15 57.43 58.00 57.71Q56.84 57.99 55.79 57.99L55.79 57.99Q54.67 57.99 53.69 57.62Q52.71 57.25 51.96 56.55Q51.21 55.85 50.79 54.82Q50.37 53.80 50.37 52.45L50.37 52.45Q50.37 50.78 51.11 48.63Q51.86 46.47 53.76 43.98L53.76 43.98Q55.38 41.84 57.12 40.38Q58.86 38.91 60.55 38.02Q62.23 37.13 63.75 36.75Q65.28 36.37 66.48 36.37L66.48 36.37Q69.17 36.37 70.55 37.26Q71.93 38.15 72.22 40.00L72.22 40.00Q72.81 39.27 73.45 38.53Q74.10 37.80 74.77 37.04L74.77 37.04ZM66.71 48.58L66.71 48.58Q67.09 47.97 67.65 47.01Q68.21 46.06 68.82 45.05Q69.44 44.04 70.02 43.10Q70.61 42.17 71.05 41.52L71.05 41.52Q71.05 41.26 70.98 40.67Q70.90 40.09 70.58 39.49Q70.26 38.88 69.55 38.45Q68.85 38.01 67.59 38.01L67.59 38.01Q66.68 38.01 65.56 38.28Q64.43 38.56 63.15 39.22Q61.88 39.88 60.53 40.96Q59.18 42.05 57.84 43.66L57.84 43.66Q55.81 46.09 54.72 48.54Q53.62 50.98 53.62 52.95L53.62 52.95Q53.62 54.62 54.38 55.53Q55.14 56.43 56.55 56.43L56.55 56.43Q58.16 56.43 59.56 55.72Q60.97 55.00 62.20 53.86Q63.43 52.71 64.54 51.32Q65.66 49.93 66.71 48.58ZM96.33 46.00L97.42 46.82Q96.98 47.47 96.38 48.57Q95.78 49.67 94.98 50.94Q94.19 52.21 93.24 53.53Q92.29 54.85 91.16 55.91Q90.03 56.96 88.71 57.63Q87.40 58.31 85.90 58.31L85.90 58.31Q85.08 58.31 84.35 58.06Q83.62 57.81 83.06 57.28Q82.50 56.76 82.18 55.98Q81.86 55.20 81.86 54.15L81.86 54.15Q81.86 52.71 82.43 51.15Q83.00 49.58 83.76 48.11Q84.53 46.65 85.29 45.43Q86.05 44.22 86.40 43.48L86.40 43.48Q86.75 42.75 86.75 42.22L86.75 42.22Q86.75 41.84 86.50 41.55Q86.25 41.26 85.89 40.98Q85.52 40.70 85.13 40.39Q84.73 40.09 84.47 39.65L84.47 39.65Q83.73 40.82 82.97 42.02L82.97 42.02Q82.30 43.04 81.51 44.32Q80.72 45.59 79.98 46.82L79.98 46.82L78.93 46.00L85.20 36.19L86.05 36.63Q85.99 36.80 85.86 37.19Q85.73 37.57 85.73 38.01L85.73 38.01Q85.73 38.33 85.83 38.64Q85.93 38.94 86.25 39.21L86.25 39.21Q87.43 40.26 88.10 40.83Q88.77 41.40 89.08 41.74Q89.39 42.08 89.46 42.30Q89.54 42.52 89.54 42.87L89.54 42.87Q89.54 43.22 89.42 43.72Q89.30 44.22 89.02 44.92Q88.74 45.62 88.26 46.58Q87.78 47.53 87.04 48.79L87.04 48.79Q86.61 49.55 86.18 50.33Q85.76 51.10 85.42 51.89Q85.08 52.68 84.88 53.47Q84.67 54.27 84.67 55.00L84.67 55.00Q84.67 55.55 84.83 55.89Q84.99 56.23 85.26 56.40Q85.52 56.58 85.83 56.64Q86.14 56.70 86.43 56.70L86.43 56.70Q87.40 56.70 88.35 56.13Q89.30 55.55 90.22 54.65Q91.15 53.74 92.01 52.58Q92.88 51.42 93.67 50.22Q94.46 49.02 95.13 47.92Q95.80 46.82 96.33 46.00L96.33 46.00ZM109.49 30.95L109.49 30.95Q109.49 31.53 109.19 32.16Q108.90 32.79 108.45 33.29Q107.99 33.79 107.44 34.11Q106.88 34.43 106.32 34.43L106.32 34.43Q105.82 34.43 105.56 34.07Q105.30 33.70 105.30 33.17L105.30 33.17Q105.30 32.70 105.47 32.06Q105.65 31.41 106 30.84Q106.35 30.27 106.85 29.86Q107.35 29.45 107.99 29.45L107.99 29.45Q108.61 29.45 109.05 29.92Q109.49 30.39 109.49 30.95ZM103.07 37.04L104.01 37.45Q103.63 38.21 102.94 39.46Q102.25 40.70 101.46 42.18Q100.67 43.66 99.85 45.29Q99.03 46.91 98.37 48.45Q97.71 49.99 97.30 51.34Q96.89 52.68 96.89 53.62L96.89 53.62Q96.89 54.47 97.24 54.78Q97.59 55.09 98.24 55.09L98.24 55.09Q99.44 55.09 100.58 54.29Q101.72 53.50 102.85 52.23Q103.98 50.96 105.06 49.31Q106.15 47.67 107.23 46.00L107.23 46.00L108.29 46.82Q107.44 48.35 106.37 50.08Q105.30 51.80 103.98 53.28Q102.66 54.76 101.08 55.73Q99.50 56.70 97.62 56.70L97.62 56.70Q95.86 56.70 94.93 55.64Q93.99 54.59 93.99 52.92L93.99 52.92Q93.99 50.96 94.90 48.82Q95.80 46.68 97.17 44.58Q98.53 42.49 100.13 40.55Q101.72 38.62 103.07 37.04L103.07 37.04ZM116.63 33.93L116.63 33.93Q116.49 34.20 116.25 34.50Q116.02 34.81 115.80 35.21Q115.58 35.60 115.42 36.13Q115.26 36.66 115.26 37.39L115.26 37.39Q115.26 38.01 115.57 39.06Q115.87 40.12 116.22 41.48Q116.58 42.84 116.88 44.44Q117.19 46.03 117.19 47.73L117.19 47.73Q117.19 50.22 116.52 52.13Q115.84 54.03 114.73 55.38L114.73 55.38Q117.02 54.15 119.21 51.85Q121.41 49.55 123.64 46.00L123.64 46.00L124.63 46.88Q123.37 48.96 121.78 51.00Q120.18 53.04 118.28 54.66Q116.37 56.29 114.17 57.30Q111.98 58.31 109.52 58.31L109.52 58.31Q107.32 58.31 105.81 57.27Q104.30 56.23 103.95 54.15L103.95 54.15L105.00 53.94Q105.00 54.12 105.17 54.51Q105.33 54.91 105.68 55.29Q106.03 55.67 106.63 55.96Q107.23 56.26 108.11 56.26L108.11 56.26Q109.28 56.26 110.19 55.72Q111.10 55.17 111.77 54.29Q112.45 53.42 112.91 52.29Q113.38 51.16 113.66 49.96Q113.94 48.76 114.06 47.62Q114.17 46.47 114.17 45.54L114.17 45.54Q114.17 44.60 114.10 43.46Q114.03 42.31 113.94 41.27Q113.85 40.23 113.78 39.46Q113.71 38.68 113.71 38.45L113.71 38.45L113.71 38.39Q113.32 38.80 112.80 39.59Q112.27 40.38 111.67 41.32Q111.07 42.25 110.47 43.22Q109.87 44.19 109.38 44.98Q108.90 45.77 108.59 46.28Q108.29 46.79 108.29 46.82L108.29 46.82L107.23 46.00Q107.26 45.97 107.96 44.74Q108.67 43.51 109.82 41.62Q110.98 39.73 112.45 37.43Q113.91 35.13 115.46 32.97L115.46 32.97L116.63 33.93ZM136.79 30.95L136.79 30.95Q136.79 31.53 136.50 32.16Q136.21 32.79 135.75 33.29Q135.30 33.79 134.74 34.11Q134.18 34.43 133.63 34.43L133.63 34.43Q133.13 34.43 132.87 34.07Q132.60 33.70 132.60 33.17L132.60 33.17Q132.60 32.70 132.78 32.06Q132.95 31.41 133.30 30.84Q133.66 30.27 134.15 29.86Q134.65 29.45 135.30 29.45L135.30 29.45Q135.91 29.45 136.35 29.92Q136.79 30.39 136.79 30.95ZM130.38 37.04L131.31 37.45Q130.93 38.21 130.24 39.46Q129.55 40.70 128.76 42.18Q127.97 43.66 127.15 45.29Q126.33 46.91 125.67 48.45Q125.01 49.99 124.60 51.34Q124.19 52.68 124.19 53.62L124.19 53.62Q124.19 54.47 124.54 54.78Q124.90 55.09 125.54 55.09L125.54 55.09Q126.74 55.09 127.88 54.29Q129.03 53.50 130.16 52.23Q131.28 50.96 132.37 49.31Q133.45 47.67 134.54 46.00L134.54 46.00L135.59 46.82Q134.74 48.35 133.67 50.08Q132.60 51.80 131.28 53.28Q129.96 54.76 128.38 55.73Q126.80 56.70 124.93 56.70L124.93 56.70Q123.17 56.70 122.23 55.64Q121.29 54.59 121.29 52.92L121.29 52.92Q121.29 50.96 122.20 48.82Q123.11 46.68 124.47 44.58Q125.83 42.49 127.43 40.55Q129.03 38.62 130.38 37.04L130.38 37.04ZM136.76 50.25L136.76 50.25Q136.70 50.60 136.67 50.96Q136.64 51.31 136.64 51.66L136.64 51.66Q136.64 52.71 136.95 53.67Q137.26 54.62 137.86 55.33Q138.46 56.05 139.35 56.46Q140.25 56.87 141.39 56.87L141.39 56.87Q145.23 56.87 148.80 54.27Q152.38 51.66 155.92 46.00L155.92 46.00L156.92 46.88Q154.98 50.11 152.99 52.32Q151 54.53 149.02 55.91Q147.04 57.28 145.14 57.90Q143.24 58.51 141.51 58.51L141.51 58.51Q140.25 58.51 138.84 58.16Q137.44 57.81 136.25 56.99Q135.06 56.17 134.29 54.79Q133.51 53.42 133.51 51.37L133.51 51.37Q133.51 49.17 134.26 47.13Q135.00 45.10 136.21 43.34Q137.41 41.58 138.96 40.13Q140.51 38.68 142.11 37.65Q143.71 36.63 145.23 36.06Q146.75 35.49 147.92 35.49L147.92 35.49Q148.69 35.49 149.48 35.72Q150.27 35.96 150.90 36.45Q151.53 36.95 151.92 37.77Q152.32 38.59 152.32 39.73L152.32 39.73Q152.32 41.29 151.60 42.65Q150.88 44.01 149.68 45.17Q148.48 46.33 146.90 47.25Q145.32 48.17 143.59 48.82Q141.86 49.46 140.10 49.84Q138.34 50.22 136.76 50.25ZM137.00 48.99L137.00 48.99Q138.96 48.79 140.69 48.17Q142.42 47.56 143.85 46.66Q145.29 45.77 146.42 44.71Q147.54 43.66 148.30 42.58Q149.07 41.49 149.48 40.50Q149.89 39.50 149.89 38.71L149.89 38.71Q149.89 37.92 149.46 37.45Q149.04 36.98 148.45 36.98L148.45 36.98Q147.16 36.98 145.55 37.90Q143.94 38.83 142.33 40.45Q140.72 42.08 139.30 44.28Q137.88 46.47 137.00 48.99ZM180.38 41.73L180.38 41.73Q180.38 42.99 179.95 44.29Q179.51 45.59 178.83 46.90Q178.16 48.20 177.40 49.46Q176.63 50.72 175.96 51.89Q175.29 53.06 174.85 54.13Q174.41 55.20 174.41 56.08L174.41 56.08Q174.41 56.76 174.70 56.99Q174.99 57.22 175.35 57.22L175.35 57.22Q176.46 57.22 177.84 56.13Q179.21 55.03 180.63 53.36Q182.05 51.69 183.46 49.72Q184.87 47.76 186.01 46.00L186.01 46.00L187.06 46.82Q186.83 47.18 186.21 48.22Q185.60 49.26 184.69 50.59Q183.78 51.92 182.66 53.37Q181.53 54.82 180.24 56.04Q178.95 57.25 177.59 58.04Q176.22 58.84 174.85 58.84L174.85 58.84Q174.06 58.84 173.41 58.57Q172.77 58.31 172.31 57.84Q171.86 57.37 171.60 56.74Q171.33 56.11 171.33 55.41L171.33 55.41Q171.33 54.27 171.84 52.93Q172.36 51.60 173.12 50.19Q173.88 48.79 174.79 47.37Q175.70 45.95 176.46 44.66Q177.22 43.37 177.73 42.27Q178.25 41.17 178.25 40.38L178.25 40.38Q178.25 39.47 177.76 38.86Q177.28 38.24 176.40 38.24L176.40 38.24Q175.46 38.24 174.23 39.02Q173.00 39.79 171.48 41.29Q169.96 42.78 168.15 44.96Q166.35 47.15 164.24 49.93L164.24 49.93Q163.04 51.54 161.90 53.04L161.90 53.04Q161.40 53.68 160.90 54.35Q160.40 55.03 159.91 55.69Q159.41 56.35 158.97 56.95Q158.53 57.55 158.18 57.99L158.18 57.99L155.60 56.93L159.03 52.21Q159.76 51.22 160.52 50.08Q161.28 48.93 162.03 47.72Q162.78 46.50 163.45 45.27Q164.13 44.04 164.71 42.87L164.71 42.87Q165.56 41.11 165.88 39.95Q166.21 38.80 166.21 38.09L166.21 38.09Q166.21 37.30 165.91 37.05Q165.62 36.80 165.09 36.80L165.09 36.80Q164.54 36.80 163.82 37.38Q163.10 37.95 162.34 38.84Q161.58 39.73 160.80 40.86Q160.02 41.99 159.32 43.10Q158.62 44.22 158.00 45.21Q157.39 46.21 156.98 46.82L156.98 46.82L155.92 46.00Q157.42 43.66 158.63 41.71Q159.85 39.76 160.98 38.36Q162.10 36.95 163.17 36.17Q164.24 35.40 165.44 35.40L165.44 35.40Q166.09 35.40 166.69 35.66Q167.29 35.93 167.74 36.44Q168.20 36.95 168.46 37.68Q168.72 38.42 168.72 39.38L168.72 39.38Q168.72 40.14 168.55 40.96L168.55 40.96Q169.84 39.71 170.95 38.88Q172.06 38.06 173.00 37.58Q173.94 37.10 174.73 36.89Q175.52 36.69 176.17 36.69L176.17 36.69Q176.72 36.69 177.46 36.89Q178.19 37.10 178.83 37.65Q179.48 38.21 179.93 39.19Q180.38 40.17 180.38 41.73ZM210.47 41.73L210.47 41.73Q210.47 42.99 210.03 44.29Q209.59 45.59 208.92 46.90Q208.25 48.20 207.48 49.46Q206.72 50.72 206.05 51.89Q205.38 53.06 204.94 54.13Q204.50 55.20 204.50 56.08L204.50 56.08Q204.50 56.76 204.79 56.99Q205.08 57.22 205.43 57.22L205.43 57.22Q206.55 57.22 207.92 56.13Q209.30 55.03 210.72 53.36Q212.14 51.69 213.55 49.72Q214.96 47.76 216.10 46.00L216.10 46.00L217.15 46.82Q216.92 47.18 216.30 48.22Q215.69 49.26 214.78 50.59Q213.87 51.92 212.74 53.37Q211.62 54.82 210.33 56.04Q209.04 57.25 207.67 58.04Q206.31 58.84 204.94 58.84L204.94 58.84Q204.14 58.84 203.50 58.57Q202.86 58.31 202.40 57.84Q201.95 57.37 201.68 56.74Q201.42 56.11 201.42 55.41L201.42 55.41Q201.42 54.27 201.93 52.93Q202.45 51.60 203.21 50.19Q203.97 48.79 204.88 47.37Q205.79 45.95 206.55 44.66Q207.31 43.37 207.82 42.27Q208.33 41.17 208.33 40.38L208.33 40.38Q208.33 39.47 207.85 38.86Q207.37 38.24 206.49 38.24L206.49 38.24Q205.55 38.24 204.32 39.02Q203.09 39.79 201.57 41.29Q200.04 42.78 198.24 44.96Q196.44 47.15 194.33 49.93L194.33 49.93Q193.13 51.54 191.99 53.04L191.99 53.04Q191.49 53.68 190.99 54.35Q190.49 55.03 189.99 55.69Q189.50 56.35 189.06 56.95Q188.62 57.55 188.27 57.99L188.27 57.99L185.69 56.93L189.12 52.21Q189.85 51.22 190.61 50.08Q191.37 48.93 192.12 47.72Q192.87 46.50 193.54 45.27Q194.21 44.04 194.80 42.87L194.80 42.87Q195.65 41.11 195.97 39.95Q196.29 38.80 196.29 38.09L196.29 38.09Q196.29 37.30 196 37.05Q195.71 36.80 195.18 36.80L195.18 36.80Q194.62 36.80 193.91 37.38Q193.19 37.95 192.43 38.84Q191.66 39.73 190.89 40.86Q190.11 41.99 189.41 43.10Q188.71 44.22 188.09 45.21Q187.47 46.21 187.06 46.82L187.06 46.82L186.01 46.00Q187.50 43.66 188.72 41.71Q189.94 39.76 191.06 38.36Q192.19 36.95 193.26 36.17Q194.33 35.40 195.53 35.40L195.53 35.40Q196.18 35.40 196.78 35.66Q197.38 35.93 197.83 36.44Q198.29 36.95 198.55 37.68Q198.81 38.42 198.81 39.38L198.81 39.38Q198.81 40.14 198.64 40.96L198.64 40.96Q199.93 39.71 201.04 38.88Q202.15 38.06 203.09 37.58Q204.03 37.10 204.82 36.89Q205.61 36.69 206.25 36.69L206.25 36.69Q206.81 36.69 207.54 36.89Q208.28 37.10 208.92 37.65Q209.56 38.21 210.02 39.19Q210.47 40.17 210.47 41.73ZM218.32 50.25L218.32 50.25Q218.27 50.60 218.24 50.96Q218.21 51.31 218.21 51.66L218.21 51.66Q218.21 52.71 218.51 53.67Q218.82 54.62 219.42 55.33Q220.02 56.05 220.92 56.46Q221.81 56.87 222.95 56.87L222.95 56.87Q226.79 56.87 230.37 54.27Q233.94 51.66 237.48 46.00L237.48 46.00L238.48 46.88Q236.55 50.11 234.55 52.32Q232.56 54.53 230.58 55.91Q228.61 57.28 226.70 57.90Q224.80 58.51 223.07 58.51L223.07 58.51Q221.81 58.51 220.40 58.16Q219.00 57.81 217.81 56.99Q216.63 56.17 215.85 54.79Q215.07 53.42 215.07 51.37L215.07 51.37Q215.07 49.17 215.82 47.13Q216.57 45.10 217.77 43.34Q218.97 41.58 220.52 40.13Q222.07 38.68 223.67 37.65Q225.27 36.63 226.79 36.06Q228.31 35.49 229.49 35.49L229.49 35.49Q230.25 35.49 231.04 35.72Q231.83 35.96 232.46 36.45Q233.09 36.95 233.49 37.77Q233.88 38.59 233.88 39.73L233.88 39.73Q233.88 41.29 233.16 42.65Q232.45 44.01 231.24 45.17Q230.04 46.33 228.46 47.25Q226.88 48.17 225.15 48.82Q223.42 49.46 221.66 49.84Q219.91 50.22 218.32 50.25ZM218.56 48.99L218.56 48.99Q220.52 48.79 222.25 48.17Q223.98 47.56 225.41 46.66Q226.85 45.77 227.98 44.71Q229.11 43.66 229.87 42.58Q230.63 41.49 231.04 40.50Q231.45 39.50 231.45 38.71L231.45 38.71Q231.45 37.92 231.02 37.45Q230.60 36.98 230.01 36.98L230.01 36.98Q228.72 36.98 227.11 37.90Q225.50 38.83 223.89 40.45Q222.28 42.08 220.86 44.28Q219.44 46.47 218.56 48.99Z"></path></svg>