<svg xmlns="http://www.w3.org/2000/svg" width="236.31" height="46.72" viewBox="2.17 13.46 236.31 46.72"><path d="m55.08 13.46.47.67q-2.11 1.58-3.95 3.78 1.78 1.11 3.01 2.44 1.23 1.34 1.98 2.71.75 1.38 1.07 2.73.32 1.35.32 2.49 0 2.87-1.08 4.99-1.09 2.13-2.86 3.53-1.77 1.41-4.07 2.1-2.3.69-4.76.69-2.75 0-5.42-.62-1.23 2.61-2.67 5.19-1.43 2.58-3.12 4.93-1.68 2.36-3.66 4.4-1.98 2.04-4.25 3.51-2.27 1.48-4.9 2.33-2.64.85-5.63.85-2.9 0-5.36-.93-2.46-.94-4.25-2.74-1.79-1.8-2.78-4.4-1-2.59-1-5.93 0-4.34 1.48-8.35t4.07-7.5q2.6-3.49 6.11-6.33 3.52-2.84 7.59-4.86 4.07-2.02 8.53-3.14 4.45-1.11 8.9-1.11 3.49 0 6.2.57t4.79 1.51q1.17-1.02 2.46-1.92 1.29-.89 2.78-1.59ZM37.33 36.54q1.35-2.81 2.66-5.4 1.32-2.6 2.68-4.93 1.37-2.33 2.83-4.36 1.47-2.04 3.17-3.77-1.94-.76-4.21-1.11-2.27-.35-4.85-.35-3.54 0-6.94.85-3.4.85-6.55 2.33t-6 3.5q-2.86 2.02-5.31 4.39-2.44 2.38-4.42 4.97t-3.37 5.23q-1.39 2.64-2.14 5.2-.75 2.56-.75 4.88 0 2.25.83 4.2.82 1.95 2.27 3.38 1.45 1.44 3.45 2.26 2.01.82 4.41.82 3.72 0 6.68-1.46 2.96-1.47 5.48-4.18 2.52-2.71 4.78-6.52 2.25-3.81 4.6-8.49-3.05-1.2-5.66-3.08l.47-.82q1.41.7 2.86 1.33 1.45.63 3.03 1.13Zm17.58-9.93q0-2.61-1.13-4.45-1.13-1.85-3.15-3.08-2.67 3.46-5.08 8.04-2.42 4.59-5 10.21.85.15 1.7.22.85.08 1.73.08 2.23 0 4.2-.8 1.98-.79 3.47-2.24 1.5-1.45 2.38-3.47.88-2.02.88-4.51Zm19.86 10.43.94.41q-.38.76-1.07 1.99-.69 1.23-1.48 2.71t-1.6 3.09q-.8 1.61-1.46 3.15-.66 1.54-1.09 2.9-.42 1.36-.42 2.3 0 .94.36 1.22.37.28.96.28.85 0 1.74-.5t1.76-1.29q.86-.79 1.68-1.79.82-.99 1.54-2.01.72-1.01 1.3-1.93.59-.92 1-1.57l1.05.82q-.49.94-1.17 2.03-.67 1.08-1.48 2.18-.8 1.1-1.74 2.12-.94 1.03-1.98 1.82t-2.18 1.26q-1.14.47-2.34.47-1.76 0-2.58-1.06-.82-1.05-.82-2.72 0-.12.01-.51.02-.4.08-.63-1.47 1.84-2.8 3.04-1.34 1.2-2.58 1.91-1.25.7-2.4.98-1.16.28-2.21.28-1.12 0-2.1-.37t-1.73-1.07q-.75-.7-1.17-1.73-.42-1.02-.42-2.37 0-1.67.74-3.82.75-2.16 2.65-4.65 1.62-2.14 3.36-3.6 1.74-1.47 3.43-2.36 1.68-.89 3.2-1.27 1.53-.38 2.73-.38 2.69 0 4.07.89 1.38.89 1.67 2.74.59-.73 1.23-1.47.65-.73 1.32-1.49Zm-8.06 11.54q.38-.61.94-1.57.56-.95 1.17-1.96.62-1.01 1.2-1.95.59-.93 1.03-1.58 0-.26-.07-.85-.08-.58-.4-1.18-.32-.61-1.03-1.04-.7-.44-1.96-.44-.91 0-2.03.27-1.13.28-2.41.94-1.27.66-2.62 1.74-1.35 1.09-2.69 2.7-2.03 2.43-3.12 4.88-1.1 2.44-1.1 4.41 0 1.67.76 2.58.76.9 2.17.9 1.61 0 3.01-.71 1.41-.72 2.64-1.86 1.23-1.15 2.34-2.54 1.12-1.39 2.17-2.74ZM96.33 46l1.09.82q-.44.65-1.04 1.75-.6 1.1-1.4 2.37-.79 1.27-1.74 2.59-.95 1.32-2.08 2.38-1.13 1.05-2.45 1.72-1.31.68-2.81.68-.82 0-1.55-.25-.73-.25-1.29-.78-.56-.52-.88-1.3-.32-.78-.32-1.83 0-1.44.57-3 .57-1.57 1.33-3.04.77-1.46 1.53-2.68.76-1.21 1.11-1.95.35-.73.35-1.26 0-.38-.25-.67-.25-.29-.61-.57-.37-.28-.76-.59-.4-.3-.66-.74l-1.5 2.37q-.67 1.02-1.46 2.3-.79 1.27-1.53 2.5L78.93 46l6.27-9.81.85.44q-.06.17-.19.56-.13.38-.13.82 0 .32.1.63.1.3.42.57 1.18 1.05 1.85 1.62.67.57.98.91.31.34.38.56.08.22.08.57t-.12.85q-.12.5-.4 1.2t-.76 1.66q-.48.95-1.22 2.21-.43.76-.86 1.54-.42.77-.76 1.56t-.54 1.58q-.21.8-.21 1.53 0 .55.16.89.16.34.43.51.26.18.57.24.31.06.6.06.97 0 1.92-.57.95-.58 1.87-1.48.93-.91 1.79-2.07.87-1.16 1.66-2.36.79-1.2 1.46-2.3.67-1.1 1.2-1.92Zm13.16-15.05q0 .58-.3 1.21-.29.63-.74 1.13-.46.5-1.01.82-.56.32-1.12.32-.5 0-.76-.36-.26-.37-.26-.9 0-.47.17-1.11.18-.65.53-1.22.35-.57.85-.98.5-.41 1.14-.41.62 0 1.06.47.44.47.44 1.03Zm-6.42 6.09.94.41q-.38.76-1.07 2.01-.69 1.24-1.48 2.72-.79 1.48-1.61 3.11-.82 1.62-1.48 3.16t-1.07 2.89q-.41 1.34-.41 2.28 0 .85.35 1.16.35.31 1 .31 1.2 0 2.34-.8 1.14-.79 2.27-2.06 1.13-1.27 2.21-2.92 1.09-1.64 2.17-3.31l1.06.82q-.85 1.53-1.92 3.26-1.07 1.72-2.39 3.2-1.32 1.48-2.9 2.45-1.58.97-3.46.97-1.76 0-2.69-1.06-.94-1.05-.94-2.72 0-1.96.91-4.1.9-2.14 2.27-4.24 1.36-2.09 2.96-4.03 1.59-1.93 2.94-3.51Zm13.56-3.11q-.14.27-.38.57-.23.31-.45.71-.22.39-.38.92t-.16 1.26q0 .62.31 1.67.3 1.06.65 2.42.36 1.36.66 2.96.31 1.59.31 3.29 0 2.49-.67 4.4-.68 1.9-1.79 3.25 2.29-1.23 4.48-3.53 2.2-2.3 4.43-5.85l.99.88q-1.26 2.08-2.85 4.12-1.6 2.04-3.5 3.66-1.91 1.63-4.11 2.64-2.19 1.01-4.65 1.01-2.2 0-3.71-1.04-1.51-1.04-1.86-3.12l1.05-.21q0 .18.17.57.16.4.51.78t.95.67q.6.3 1.48.3 1.17 0 2.08-.54.91-.55 1.58-1.43.68-.87 1.14-2 .47-1.13.75-2.33.28-1.2.4-2.34.11-1.15.11-2.08 0-.94-.07-2.08-.07-1.15-.16-2.19t-.16-1.81q-.07-.78-.07-1.01v-.06q-.39.41-.91 1.2-.53.79-1.13 1.73-.6.93-1.2 1.9l-1.09 1.76-.79 1.3q-.3.51-.3.54l-1.06-.82q.03-.03.73-1.26.71-1.23 1.86-3.12 1.16-1.89 2.63-4.19 1.46-2.3 3.01-4.46l1.17.96Zm20.16-2.98q0 .58-.29 1.21t-.75 1.13q-.45.5-1.01.82-.56.32-1.11.32-.5 0-.76-.36-.27-.37-.27-.9 0-.47.18-1.11.17-.65.52-1.22.36-.57.85-.98.5-.41 1.15-.41.61 0 1.05.47.44.47.44 1.03Zm-6.41 6.09.93.41q-.38.76-1.07 2.01-.69 1.24-1.48 2.72-.79 1.48-1.61 3.11-.82 1.62-1.48 3.16t-1.07 2.89q-.41 1.34-.41 2.28 0 .85.35 1.16.36.31 1 .31 1.2 0 2.34-.8 1.15-.79 2.28-2.06 1.12-1.27 2.21-2.92 1.08-1.64 2.17-3.31l1.05.82q-.85 1.53-1.92 3.26-1.07 1.72-2.39 3.2-1.32 1.48-2.9 2.45-1.58.97-3.45.97-1.76 0-2.7-1.06-.94-1.05-.94-2.72 0-1.96.91-4.1.91-2.14 2.27-4.24 1.36-2.09 2.96-4.03 1.6-1.93 2.95-3.51Zm6.38 13.21q-.06.35-.09.71-.03.35-.03.7 0 1.05.31 2.01.31.95.91 1.66.6.72 1.49 1.13.9.41 2.04.41 3.84 0 7.41-2.6 3.58-2.61 7.12-8.27l1 .88q-1.94 3.23-3.93 5.44-1.99 2.21-3.97 3.59-1.98 1.37-3.88 1.99-1.9.61-3.63.61-1.26 0-2.67-.35-1.4-.35-2.59-1.17t-1.96-2.2q-.78-1.37-.78-3.42 0-2.2.75-4.24.74-2.03 1.95-3.79 1.2-1.76 2.75-3.21t3.15-2.48q1.6-1.02 3.12-1.59 1.52-.57 2.69-.57.77 0 1.56.23.79.24 1.42.73.63.5 1.02 1.32.4.82.4 1.96 0 1.56-.72 2.92-.72 1.36-1.92 2.52t-2.78 2.08q-1.58.92-3.31 1.57-1.73.64-3.49 1.02-1.76.38-3.34.41Zm.24-1.26q1.96-.2 3.69-.82 1.73-.61 3.16-1.51 1.44-.89 2.57-1.95 1.12-1.05 1.88-2.13.77-1.09 1.18-2.08.41-1 .41-1.79t-.43-1.26q-.42-.47-1.01-.47-1.29 0-2.9.92-1.61.93-3.22 2.55-1.61 1.63-3.03 3.83-1.42 2.19-2.3 4.71Zm43.38-7.26q0 1.26-.43 2.56-.44 1.3-1.12 2.61-.67 1.3-1.43 2.56-.77 1.26-1.44 2.43-.67 1.17-1.11 2.24-.44 1.07-.44 1.95 0 .68.29.91.29.23.65.23 1.11 0 2.49-1.09 1.37-1.1 2.79-2.77t2.83-3.64q1.41-1.96 2.55-3.72l1.05.82q-.23.36-.85 1.4-.61 1.04-1.52 2.37t-2.03 2.78q-1.13 1.45-2.42 2.67-1.29 1.21-2.65 2-1.37.8-2.74.8-.79 0-1.44-.27-.64-.26-1.1-.73-.45-.47-.71-1.1-.27-.63-.27-1.33 0-1.14.51-2.48.52-1.33 1.28-2.74.76-1.4 1.67-2.82.91-1.42 1.67-2.71.76-1.29 1.27-2.39.52-1.1.52-1.89 0-.91-.49-1.52-.48-.62-1.36-.62-.94 0-2.17.78-1.23.77-2.75 2.27-1.52 1.49-3.33 3.67-1.8 2.19-3.91 4.97-1.2 1.61-2.34 3.11-.5.64-1 1.31-.5.68-.99 1.34-.5.66-.94 1.26-.44.6-.79 1.04l-2.58-1.06 3.43-4.72q.73-.99 1.49-2.13.76-1.15 1.51-2.36.75-1.22 1.42-2.45.68-1.23 1.26-2.4.85-1.76 1.17-2.92.33-1.15.33-1.86 0-.79-.3-1.04-.29-.25-.82-.25-.55 0-1.27.58-.72.57-1.48 1.46t-1.54 2.02q-.78 1.13-1.48 2.24L158 45.21q-.61 1-1.02 1.61l-1.06-.82q1.5-2.34 2.71-4.29 1.22-1.95 2.35-3.35 1.12-1.41 2.19-2.19 1.07-.77 2.27-.77.65 0 1.25.26.6.27 1.05.78.46.51.72 1.24.26.74.26 1.7 0 .76-.17 1.58 1.29-1.25 2.4-2.08 1.11-.82 2.05-1.3.94-.48 1.73-.69.79-.2 1.44-.2.55 0 1.29.2.73.21 1.37.76.65.56 1.1 1.54.45.98.45 2.54Zm30.09 0q0 1.26-.44 2.56t-1.11 2.61q-.67 1.3-1.44 2.56-.76 1.26-1.43 2.43-.67 1.17-1.11 2.24-.44 1.07-.44 1.95 0 .68.29.91.29.23.64.23 1.12 0 2.49-1.09 1.38-1.1 2.8-2.77t2.83-3.64q1.41-1.96 2.55-3.72l1.05.82q-.23.36-.85 1.4-.61 1.04-1.52 2.37t-2.04 2.78q-1.12 1.45-2.41 2.67-1.29 1.21-2.66 2-1.36.8-2.73.8-.8 0-1.44-.27-.64-.26-1.1-.73-.45-.47-.72-1.1-.26-.63-.26-1.33 0-1.14.51-2.48.52-1.33 1.28-2.74.76-1.4 1.67-2.82.91-1.42 1.67-2.71.76-1.29 1.27-2.39t.51-1.89q0-.91-.48-1.52-.48-.62-1.36-.62-.94 0-2.17.78-1.23.77-2.75 2.27-1.53 1.49-3.33 3.67-1.8 2.19-3.91 4.97-1.2 1.61-2.34 3.11-.5.64-1 1.31-.5.68-1 1.34-.49.66-.93 1.26-.44.6-.79 1.04l-2.58-1.06 3.43-4.72q.73-.99 1.49-2.13.76-1.15 1.51-2.36.75-1.22 1.42-2.45.67-1.23 1.26-2.4.85-1.76 1.17-2.92.32-1.15.32-1.86 0-.79-.29-1.04t-.82-.25q-.56 0-1.27.58-.72.57-1.48 1.46-.77.89-1.54 2.02-.78 1.13-1.48 2.24l-1.32 2.11q-.62 1-1.03 1.61l-1.05-.82q1.49-2.34 2.71-4.29 1.22-1.95 2.34-3.35 1.13-1.41 2.2-2.19 1.07-.77 2.27-.77.65 0 1.25.26.6.27 1.05.78.46.51.72 1.24.26.74.26 1.7 0 .76-.17 1.58 1.29-1.25 2.4-2.08 1.11-.82 2.05-1.3.94-.48 1.73-.69.79-.2 1.43-.2.56 0 1.29.2.74.21 1.38.76.64.56 1.1 1.54.45.98.45 2.54Zm7.85 8.52q-.05.35-.08.71-.03.35-.03.7 0 1.05.3 2.01.31.95.91 1.66.6.72 1.5 1.13.89.41 2.03.41 3.84 0 7.42-2.6 3.57-2.61 7.11-8.27l1 .88q-1.93 3.23-3.93 5.44-1.99 2.21-3.97 3.59-1.97 1.37-3.88 1.99-1.9.61-3.63.61-1.26 0-2.67-.35-1.4-.35-2.59-1.17-1.18-.82-1.96-2.2-.78-1.37-.78-3.42 0-2.2.75-4.24.75-2.03 1.95-3.79 1.2-1.76 2.75-3.21t3.15-2.48q1.6-1.02 3.12-1.59 1.52-.57 2.7-.57.76 0 1.55.23.79.24 1.42.73.63.5 1.03 1.32.39.82.39 1.96 0 1.56-.72 2.92-.71 1.36-1.92 2.52-1.2 1.16-2.78 2.08-1.58.92-3.31 1.57-1.73.64-3.49 1.02-1.75.38-3.34.41Zm.24-1.26q1.96-.2 3.69-.82 1.73-.61 3.16-1.51 1.44-.89 2.57-1.95 1.13-1.05 1.89-2.13.76-1.09 1.17-2.08.41-1 .41-1.79t-.43-1.26q-.42-.47-1.01-.47-1.29 0-2.9.92-1.61.93-3.22 2.55-1.61 1.63-3.03 3.83-1.42 2.19-2.3 4.71Z"/></svg>