<svg xmlns="http://www.w3.org/2000/svg" width="414.87" height="54.84" viewBox="4.11 2.59 414.87 54.84"><path d="M33.78 29.57q0 1.49-.19 2.93-.19 1.43-.28 2.93-.2-.21-.45-.34-.25-.13-.51-.13-.32 0-.62.2-.29.21-.29.53 0 .35.34.47.33.12.68.12.3 0 .42-.03 0 .35-.2.72-.19.36-.46.71-.28.36-.59.66l-.54.54q-.18.18-.38.5-.21.33-.46.63-.25.31-.51.53-.26.22-.53.22-.29 0-.47-.16-.17-.16-.41-.16-.32 0-.39.33-.07.34-.07.66v.36q0 .14-.62.38-.62.23-1.48.51t-1.79.56q-.92.27-1.53.54-1.21.5-2.44.82-1.23.32-2.55.32-.96 0-1.86-.25-.89-.25-1.78-.56-.9-.3-1.79-.55-.89-.25-1.86-.25-.38 0-1 .12-.61.11-.93.35-.15.11-.3.42-.14.31-.35.31-.14 0-.41-.12-.26-.11-.38-.17-.67-.35-1.14-.93-.47-.57-.79-1.24-.33-.67-.47-1.42-.15-.75-.15-1.45 0-.5.1-.98.11-.49.11-.99 0-.7-.16-1.37-.17-.68-.17-1.38 0-.5.17-1 .16-.49.16-.99 0-.38-.18-.72-.17-.34-.17-.72 0-.26.19-.44.19-.17.19-.41 0-.35-.03-.7t-.03-.7q0-.18.01-.52.02-.33.08-.65.05-.33.2-.56.15-.24.41-.24.53 0 1.07.66t1 1.54q.45.88.74 1.76.3.88.3 1.32 0 .14-.12.28-.12.13-.29.13.11.2.26.61.15.41.15.65 0 .35-.11.67-.1.32-.1.68 0 .29.13.55.13.27.28.5.24.35.41.53.18.17.38.25.21.07.46.1t.66.06q.58.85 1.31 1.58.74.73 1.59 1.32 1.31.29 2.6.47 1.29.17 2.61.17 1.08 0 1.89-.23.81-.24 1.49-.62.69-.38 1.34-.86l1.35-1.01q.49-.35 1.05-.68.56-.32 1.08-.67.53-.35 1-.78.47-.42.79-.98.21-.35.6-.72.4-.36.4-.8 0-.18-.03-.26-.12-.94-.16-1.84-.05-.89-.11-1.83-.05-.88-.38-1.33-.32-.45-.8-.76-.49-.31-1.04-.6-.56-.29-1.09-.82-.55-.56-1.24-.71-.69-.14-1.42-.17t-1.45-.1q-.72-.08-1.34-.55-.17-.11-.29-.11-.26 0-.51.16t-.54.16q-.44 0-.9-.12-.45-.12-.89-.26-.44-.15-.88-.29-.44-.15-.88-.21-.58-.09-.95-.12t-.67-.1q-.31-.07-.66-.23-.35-.16-.88-.52-1.53-.99-3.25-1.46-.33-.82-.85-1.67l-.63-.4q-.31-.19-.6-.42-.18-.29-.46-1.03-.28-.73-.54-1.56-.26-.84-.45-1.57-.19-.73-.19-1.06 0-.67.14-1.29.15-.61.68-1.11.08-.06.22-.16.13-.1.13-.25t-.22-.22q-.22-.07-.22-.31 0-.03.03-.1t.03-.13q.2-.65.61-1.23.41-.59.94-1.11.53-.53 1.1-.99.57-.45 1.1-.83.38-.26.66-.67.27-.41.6-.59.2 0 .41-.02.2-.01.41-.01.23 0 .42.01.19.02.43.02.32-.12.44-.28.11-.16.23-.31.12-.14.31-.23t.69-.09q.32 0 .64.02.32.01.64.01 1.12 0 2.22-.03t2.21-.03q.79 0 1.57.02.77.01 1.56.13.53.06 1.03.22t1.05.16q.53 0 .75-.21.22-.2.35-.44.13-.23.31-.43.18-.21.62-.21.61 0 1.27.32t1.24.53l-.02.12q-.09.26-.09.58 0 .5.16.98.16.49.34.96.17.47.33.93.16.47.16 1 0 .32-.06.6-.05.28-.05.6 0 .59.23.84.24.25.24.45 0 .23-.21.4-.21.16-.21.48 0 .76.09 1.51t.09 1.51q0 .26-.01.79-.02.53-.12 1.04-.1.51-.32.89t-.63.38q-.44 0-.85-.33-.41-.34-.68-.66-.38-.41-.55-.9-.18-.48-.3-1.01-.11-.53-.26-1.04-.15-.51-.44-.95-.47-.67-.89-1.36-.43-.69-.84-1.39-.32-.53-.55-.74-.24-.2-.5-.27-.27-.08-.6-.08-.34 0-.84-.09-.53-.08-1.04-.26t-1.02-.34q-.52-.16-1.04-.29-.53-.13-1.06-.13-.85 0-1.73.26-.88.27-1.75.66-.88.4-1.73.82-.85.43-1.64.72-.74 1.55-.74 3.34 0 1.29.3 2.11.29.82.8 1.39.52.57 1.17 1.01.66.44 1.4.94.76.5 1.5.66.75.16 1.63.16.5 0 .98-.03.49-.03.98-.03.56 0 1.06.15.5.14.98.33t.98.34q.5.15 1.03.15.49 0 .95-.06.45-.06.92-.06.41 0 .73.19.33.19.65.44t.66.45q.33.21.74.24.59.29.97.53.38.23.69.49.31.27.59.65.27.38.63.94.32.55.85.96.52.41.85 1 .11.2.14.48.03.28.09.53t.19.44q.13.19.42.22.03.32.05.63.01.31.01.63Zm35.34.35q0 1.26-.27 2.46-.26 1.2-.44 2.43-.06.41-.07.75-.02.34-.07.64-.06.31-.21.62t-.44.63q-.38.41-.53.86l-.29.96q-.17.49-.39.74t-.47.43q-.25.17-.53.33-.28.17-.57.49-.18.2-.22.41-.05.2-.08.39-.02.19-.13.37-.1.18-.39.29-.47.21-.68.46-.2.25-.52.57-.33.32-.84.63t-1.08.54q-.57.23-1.16.38t-1.03.15q-.55 0-1.09-.12-.55-.12-1.1-.12-.32 0-.49.11-.16.1-.27.22-.12.11-.25.21-.13.11-.4.11-.5 0-1.46-.4-.97-.39-2.04-.88-1.07-.48-2.07-.88-.99-.39-1.52-.39-.47 0-.75.34-.27.33-.45.85-.18.51-.25 1.11-.07.6-.09 1.13-.01.52 0 .88l.02.35q0 .29-.1.38-.11.09-.28.09-.12 0-.24-.02-.11-.01-.26-.04 0 .35.13.76.13.41.32.86l.37.9q.18.44.26.82.21.93.43 1.34.22.41.57.56.35.15.88.13.53-.01 1.35.08.38.05.82.16.44.1.79.32.35.22.58.54.24.32.24.79 0 .97-.57 1.38-.58.41-1.45.41-1.21 0-2.39-.18-1.19-.17-2.42-.17-1.29 0-2.56.14-1.28.15-2.54.15-.32 0-.89-.12-.57-.11-1.14-.33-.57-.22-1-.53-.42-.31-.42-.69 0-.26.3-.51.31-.25.71-.43.39-.17.8-.27.41-.11.65-.11.52 0 .98-.16.45-.16.89-.34.44-.17.88-.33t.94-.16q.26-1.12.34-2.23.07-1.11.07-2.23 0-.79-.02-1.58-.01-.79-.01-1.58 0-1.55.22-3.08.22-1.52.22-3.1 0-.97-.07-1.94-.08-.96-.14-1.93-.08-.12-.2-.78-.12-.65-.22-1.45-.1-.79-.16-1.5-.06-.72-.06-.96 0-.32.1-.57.1-.25.22-.44t.22-.33q.1-.15.1-.27 0-.03-.08-.2-.09-.18-.19-.44-.11-.27-.19-.59-.09-.32-.09-.64 0-.94.22-1.88t.22-1.87q0-1.26-.91-2.2-.44-.44-.7-.67-.27-.24-.53-.34-.27-.1-.62-.15-.35-.04-.96-.13-.33-.03-.9-.19-.57-.16-1.13-.4-.55-.23-.98-.55-.42-.32-.42-.71 0-.49.47-.86t1.1-.59q.63-.22 1.27-.32t1.03-.1q.41 0 .82.07.41.08.7.37.32-.32.79-.43.47-.1.91-.1 1.26 0 1.93.38.68.38 1.07.84.4.45.65.83.24.38.63.38.23 0 .45-.08.22-.09.45-.21.62-.29 1.85-.72 1.23-.42 2.61-.82 1.37-.39 2.63-.66 1.26-.26 1.91-.26.32 0 .92.16.6.16 1.33.41.74.25 1.53.59.79.33 1.46.69.68.35 1.17.68.5.34.68.6.32.53.69.91.36.38.98.59.17.23.22.5.04.26.04.55v.56q0 .59.21.91.2.32.44.54.23.22.44.41.2.19.2.54 0 .21-.12.37-.11.16-.11.34 0 .43.2.89.21.45.44 1 .24.54.44 1.15.21.62.21 1.35ZM55.7 17.44q0-.15-.15-.29-.15-.15-.29-.15-.3 0-.37.31t-.07.54q0-.06.03-.06.06 0 .09.03l-.12.06q.2 0 .54-.07.34-.08.34-.37Zm9.96 13.39q0-.88-.24-1.72-.23-.83-.58-1.61-.35-.77-.79-1.51-.44-.73-.88-1.43-.12-.18-.15-.4-.03-.22-.03-.44t-.04-.44q-.05-.22-.19-.39-.24-.26-.44-.31-.21-.04-.4-.07-.19-.03-.41-.15-.22-.12-.42-.53-.15-.26-.63-.58-.49-.32-1.06-.62-.57-.29-1.11-.48-.54-.19-.83-.19-.59 0-1.16.25t-1.16.25q-.41 0-.75-.15-.33-.15-.64-.31t-.63-.3q-.32-.15-.67-.15h-.15q.06.29.06.47 0 .26-.12.42-.12.16-.31.28-.19.12-.41.22-.22.1-.39.22-.27.32-.28.64-.02.33-.31.33-.2 0-.32-.06 0 .2-.12.29-.12.09-.26.15-.15.06-.3.13-.14.07-.17.25-.38.03-.7.45-.33.43-.56 1.07-.23.65-.41 1.44-.18.79-.29 1.54-.12.74-.18 1.37-.06.63-.06.95 0 1.06.13 2.1.14 1.04.14 2.09 0 .8-.05 1.59-.04.79-.1 1.61.73.79 1.41 1.58.67.79 1.42 1.42.74.63 1.65 1.06.91.42 2.11.45.47 0 .94.12.47.11.94.23.46.12.92.22.45.1.92.1.44 0 .94-.19.5-.19.98-.48t.92-.63q.44-.34.74-.66.23-.26.57-.38.33-.12.57-.35.17-.18.23-.38.06-.21.11-.41.04-.21.13-.4.09-.19.35-.34.56-.29.7-.42.15-.13.15-.48v-.56q0-.29.14-.43.15-.13.33-.26.17-.13.32-.35.15-.22.15-.75 0-.38-.06-.74-.06-.37-.06-.75t.13-.7q.13-.33.29-.62.16-.29.3-.57.13-.28.13-.6Zm35.97 7.23q0 .8-.24 1.35-.25.56-.65 1-.39.44-.91.82-.51.38-1.04.82-.41.35-.73.53-.32.17-.63.29-.31.12-.64.23-.34.12-.78.33-.59.29-.98.54-.4.25-.79.45-.4.21-.87.34-.47.13-1.17.22-1.17.15-2.36.35-1.18.21-2.36.21-.23 0-.48-.11-.25-.1-.57-.2-.32-.1-.72-.21-.39-.1-.95-.1-.59 0-.94-.18-.35-.17-.63-.41-.28-.23-.57-.51-.29-.28-.76-.48-1.76-.79-2.99-1.91-1.23-1.11-2.11-2.49-.88-1.37-1.46-2.98-.59-1.62-1-3.37-.32-1.23-.32-2.46 0-1.62.76-2.99-.29-.82-.29-1.59 0-.55.32-1.65.32-1.1.83-2.21.52-1.12 1.12-2.01.6-.89 1.13-1.1.41-.14.57-.25.16-.1.16-.57 0-.35.28-.58.27-.24.67-.39.4-.14.79-.26.4-.12.66-.23 1.08-.53 2.07-.9.98-.36 1.96-.61t2.03-.37q1.06-.12 2.26-.12.65 0 1.26.18.62.18 1.19.45.57.28 1.13.62.55.34 1.08.66h-.03q.44.06.83.25.4.19.84.25.41.5 1.07.95.66.45 1.29.95.63.5 1.08 1.07.46.57.46 1.3 0 .12-.02.24-.01.12-.04.26l.11-.14q.12.08.22.29.11.2.19.45.09.25.15.5t.09.4q.23.38.63.61.39.24.63.65-.29.29-.29.76 0 .5.2.98.21.48.21.98 0 .59-.06 1.13-.06.54-.06 1.13 0 .44-.34.67-.33.24-.73.41-.4.18-.72.35-.32.18-.32.5 0 .23-.28.22-.28-.01-.45-.01-1.29 0-2.57-.33-1.27-.32-2.53-.32-1.38 0-2.73.19-1.34.19-2.72.19-1.03 0-2.04-.06T84 30.97q-.27 0-1 .11-.73.1-1.54.26-.8.16-1.53.38-.74.22-1.03.43-.03.14-.03.41 0 1.37.81 2.84.8 1.46 2.12 2.66 1.32 1.21 2.96 2t3.31.79q.97 0 1.92.07t1.86.43q.79-.39 1.45-.88.66-.5 1.27-1.06.62-.55 1.21-1.14.58-.59 1.2-1.17.11-.12.57-.22.45-.1.98-.18.53-.07 1.01-.12.48-.04.66-.04.67 0 1.26.21.17.67.17 1.31Zm-4.39-11.89q0-.44-.15-.85-.14-.41-.23-.85-.15-.82-.15-1.6 0-.77-.23-1.56h-.03q0 .17-.12.33t-.32.16q-.35 0-.67-.17-.33-.18-.56-.44-1.11-.5-2.01-.94-.89-.44-1.78-.77-.9-.34-1.91-.53-1.01-.19-2.33-.19-.12 0-.22.01-.1.02-.19.11l.15.32-.24.06q-.79.14-1.3.27-.51.14-.92.37-.41.23-.81.57-.39.34-1.01.87-.29.26-.63.39t-.67.24q-.34.1-.65.22-.3.11-.51.38-.21.73-.6 1.42-.4.69-.4 1.45 0 .44.37.77.37.34.94.58.57.23 1.26.41.69.17 1.36.26.67.09 1.24.13.58.04.9.04 1.11 0 2.2-.21 1.08-.22 2.19-.22 1.15 0 2.29.1 1.14.1 2.28.1.3 0 .88-.03.59-.03 1.16-.16t1-.38q.42-.25.42-.66Zm37.3 11.98q0 .3-.22.41-.22.12-.43.24-.32.17-.53.41-.2.23-.38.51-.17.28-.32.59-.15.3-.32.57-.41.61-1.13.85-.72.23-1.42.44-.7.2-1.28.57-.57.36-.71 1.24h-.15q-.67 0-1.24.24-.58.23-1.15.51t-1.15.51q-.59.24-1.23.24-.36 0-.66-.12-.31-.12-.62-.26-.31-.15-.61-.27-.31-.12-.66-.12-.47 0-.91.06-.44.06-.88.06-.32 0-.76-.07t-.82-.25q-.38-.18-.65-.45-.26-.28-.26-.69 0-.15.03-.24-.15.15-.32.19-.18.05-.36.05-.87 0-1.62-.4-.75-.39-1.41-.97-.66-.57-1.23-1.23-.57-.65-1.13-1.21-.67-.68-1.04-1.55-.36-.88-.86-1.7-1.06-1.7-1.29-3.45-.23-1.74-.23-3.64 0-.35.04-.81.04-.45.19-.66.12-.14.29-.22.18-.07.34-.14.16-.08.28-.17.12-.08.12-.26 0-.41-.21-.75-.2-.33-.2-.74 0-.3.13-.5.13-.21.28-.44.23-.38.42-1.28.19-.89.41-1.78.22-.9.56-1.58.33-.69.89-.69.41 0 .76.11.35.12.76.12.36 0 .68-.09l.03-.23q0-.35-.22-.44-.22-.09-.47-.12-.25-.03-.47-.07-.22-.04-.22-.31 0-.17.16-.31.16-.13.38-.23t.46-.19q.23-.09.35-.18.29-.23.41-.45t.22-.43q.1-.2.31-.35.2-.14.67-.26.41-.09.82-.1.41-.02.82-.03.41-.02.82-.05.41-.03.82-.14l-.29-.3q.14-.26.41-.42.26-.16.6-.25.34-.09.67-.1.34-.02.6-.02 1.03 0 2 .27.96.26 1.93.26.41 0 .8-.1.4-.1.81-.1.62 0 1.16.3.54.31 1.04.57l.11.03q.27 0 .44-.2.18-.21.36-.21.14 0 .23.14.09.13.18.24.23.27.63.34.39.07.54.31.2.35.47.48.26.13.52.19.27.06.56.12.29.06.56.26v.82q.58.77 1.1 1.16.51.4.9.82.4.43.62 1.06.22.63.22 1.83 0 1.29-.22 2.25-.22.97-.76 1.63-.54.66-1.45 1-.91.33-2.26.3l-1.9-.03q-.24-.38-.68-1.07-.44-.68-.88-1.43-.44-.75-.77-1.41-.34-.66-.34-1.01 0-.44.07-.88.08-.44.08-.88-.21-.55-.54-.9-.34-.36-.78-.55-.44-.19-.95-.25-.52-.05-1.04-.05-.76 0-1.51.11-.75.12-1.45.38 0-.26-.13-.48-.14-.22-.46-.22-.41 0-.99.31-.59.31-1.19.75t-1.1.92q-.5.48-.73.83-.21.3-.56.91-.35.62-.75 1.23-.39.62-.82 1.1-.42.48-.77.51.09.41.23 1.1.15.69.27 1.45.11.76.2 1.45.09.69.09 1.07 0 .68.23 1.26.24.59.24 1.26 0 .5-.13 1-.14.5-.14.99 0 .44.14.59.13.15.54.26.47.15.66.5.19.35.32.72t.32.63q.19.26.69.26h.15l.35-.03q.35.47.42 1.06.08.58.43 1.05.2-.03.26-.17l.12-.3q.06-.14.19-.26t.48-.12q.32 0 .53.18.2.17.38.39t.37.4q.19.18.48.18.5 0 1.1-.19.6-.2 1.23-.44.63-.25 1.24-.52.62-.26 1.12-.41 1.2-.35 2.25-1.02 1.06-.68 1.7-1.79.32-.59.78-1.08.45-.5.72-1.12.29 0 .58-.03.3-.03.62-.03h.28q.19 0 .39.03.21.03.37.09t.16.15q0 .26-.19.42-.19.16-.41.3-.22.13-.4.29-.17.16-.17.45l.32-.03q.35 0 .94.18.58.18 1.15.48.58.31 1 .69.43.38.43.79Zm-2.11 1.64q0-.17-.14-.3-.13-.14-.3-.14-.21 0-.36.27-.14.26-.14.41 0 .17.2.16.21-.02.27-.02.14 0 .3-.07.17-.07.17-.31Zm24.49-32.37q0 .85-.28 1.74-.28.9-.81 1.64-.52.75-1.27 1.23-.75.49-1.66.49-.61 0-1.52-.19t-1.74-.56q-.84-.37-1.44-.95-.6-.59-.6-1.38 0-.7.16-1.45t.19-1.51q.3-.14.59-.52.29-.39.57-.78.28-.4.56-.72.28-.32.57-.35l-.15.06q.41-.18.87-.29.45-.12.92-.12.61 0 1.48.31.86.3 1.65.8.79.5 1.35 1.17.56.68.56 1.38Zm14.18 35.65q0 .5-.19.94-.19.44-.53.78t-.78.54q-.44.21-.96.21-.21 0-.27-.06-.06-.06-.2-.21-.41-.44-1-.51-.58-.07-1.21-.15-.63-.07-1.21-.32-.57-.25-.92-1.01-.23-.5-.5-.65-.26-.14-.82-.14-1.29 0-2.46.41t-2.31.92q-1.14.51-2.33.92-1.19.41-2.45.41-.7 0-1.39-.13t-1.33-.42q-.15.14-.34.2-.19.06-.42.06-.21 0-.4-.03-.19-.03-.34-.03-.03 0-.32.11-.29.1-.35.13l.18.29q-.18.26-.79.51-.62.25-1.34.43-.72.17-1.39.29-.67.12-1.02.12-.94 0-1.54-.31-.6-.31-1.19-1.07-.2-.29-.51-.59-.31-.29-.59-.6-.28-.3-.47-.65-.19-.36-.19-.74 0-.44.47-.73t1.11-.48q.65-.19 1.29-.27.65-.07 1-.07.7 0 1.41.19.7.19 1.4.19.65 0 1.23-.17.59-.18 1.23-.18.56 0 1.1.07.54.08 1.1.08.7 0 1.36-.25.66-.25 1.25-.66.23-1.44.33-2.87.11-1.44.11-2.9 0-1.44-.24-2.88-.23-1.43-.23-2.84 0-.11.06-.13.06-.01.13-.03.07-.01.13-.06.06-.04.06-.22 0-.61-.18-1.2-.17-.58-.17-1.2 0-.76.2-1.49.21-.74.21-1.5 0-.52-.24-1.05-.23-.53-.61-.94-.38-.41-.88-.66-.5-.25-1.06-.25-.61 0-1.21.15t-1.25.34q-.64.19-1.3.33-.66.15-1.39.15-.85 0-1.67-.12-.82-.11-1.67-.26-.41-.06-.92-.12-.52-.06-.99-.2-.46-.15-.79-.44-.32-.3-.32-.85 0-1.03.37-1.57.36-.54.91-.81.54-.26 1.21-.32.68-.06 1.29-.12l2.21-.16q1.1-.07 2.21-.07 1.38 0 2.71.16 1.34.16 2.71.16.97 0 1.85.3.88.29 1.54.89.66.6 1.04 1.51t.38 2.11q0 .79-.34 1.54-.33.74-.86 1.33.2.38.41.51.2.13.38.24.17.1.29.26.12.16.12.6 0 .23.07.54.08.31.4.34 0 1.58-.03 3.12t-.03 3.09q0 1.32.01 2.64.02 1.31.22 2.63.12.82.47 1.26.35.44 1.26.44 1.32 0 2.61-.28 1.29-.27 2.61-.27.76 0 1.45.38t1.32.82q.63.44 1.21.82.59.38 1.11.38.24 0 .39.16.14.16.22.38.07.22.08.45.02.24.02.41Zm33.69-4.01q0 .5-.18.94-.17.44-.32.91-.12.41-.16.67-.04.26-.13.45t-.28.36q-.19.16-.6.36-.88.47-1.86.95-.98.49-1.98.49-.85 0-1.6-.4-.74-.39-1.37-.88-.63-.48-1.14-.89-.52-.41-.87-.41-.38 0-.66.2-.28.21-.56.44-.27.24-.61.44-.34.21-.84.21-.41 0-.84.14-.44.15-.88.34-.44.19-.9.38-.45.19-.83.31-1.32.35-2.65.41-1.34.06-2.68.06-.36 0-1.09-.02-.73-.01-1.48-.14-.74-.13-1.32-.43-.57-.29-.57-.82 0-.11.03-.2-.2.23-.47.38-.26.15-.58.15-.47 0-1.15-.65-.67-.64-1.28-1.49-.62-.85-1.06-1.69-.44-.83-.44-1.24 0-.33.19-.59.19-.26.19-.59 0-.41-.1-.77-.1-.37-.1-.78 0-.53.2-1.13.21-.6.5-1.2.29-.6.62-1.17.32-.57.58-1.07.29-.58.82-.94.53-.35 1.12-.61.58-.26 1.17-.53.58-.26 1.02-.7.44.5 1.14.5.74 0 1.44-.22t1.44-.22q.58 0 1.12.11.55.12 1.13.12.65 0 .95-.16.31-.16.78-.57.47-.41 1.19-.63.71-.22 1.49-.35.78-.13 1.55-.28.78-.15 1.4-.43.61-.27.99-.76.38-.48.38-1.33 0-.94-.54-1.98t-1.39-1.9q-.85-.87-1.88-1.42-1.02-.56-1.96-.56-.12 0-.23.03-.12.03-.21.03-.7.12-1.58.16-.88.04-1.64.26-.76.22-1.29.74-.53.51-.53 1.51 0 .58.1 1.15.11.57.11 1.16 0 .88-.43 1.46-.42.59-1.08.94-.66.35-1.45.49-.79.13-1.52.13-.88 0-1.53-.24-.64-.23-1.05-1.08-.33-.62-.69-1.33-.37-.72-.37-1.45 0-.8.28-1.48.28-.69.63-1.35.35-.66.69-1.32.34-.66.48-1.42.21-.12.57-.24.37-.11.79-.23.43-.12.82-.22.4-.1.66-.19.71-.2 1.37-.48.66-.28 1.34-.52.69-.23 1.38-.41.69-.17 1.42-.2l.91-.03q1.26 0 2.58.22t2.58.69q1.26.47 2.38 1.16 1.13.68 2.01 1.62.65.7 1.07 1.66.43.95.67 2 .25 1.06.36 2.13.1 1.07.1 1.97 0 1.24-.08 2.42-.07 1.19-.07 2.42 0 1.17.13 2.33.14 1.16.31 2.31.18 1.16.31 2.32.13 1.15.13 2.3.06.7.19.86.13.16.28.16.64 0 1.04-.39.39-.4.72-.88.32-.49.7-.9.38-.41.97-.41.26 0 .54.03t.51.13q.24.11.38.3.15.19.15.51Zm-9.64-7.29q0-.18-.01-.62-.02-.44-.08-.89-.06-.46-.19-.81-.13-.35-.39-.35-.06 0-.15.04-.09.05-.15.05-1.11.61-1.9 1.01-.79.39-1.57.64-.77.25-1.65.34-.88.09-2.2.09-.18 0-.97.14-.79.15-1.73.34-.93.19-1.75.38t-1.03.25q-.38.15-.54.29-.16.15-.25.33-.09.17-.18.36-.08.19-.32.4-.29.23-.63.38-.33.15-.63.44-.44.44-.82 1.16-.38.71-.38 1.36 0 .79.41 1.4.41.62 1.09 1.06.67.44 1.52.76t1.71.5q.87.17 1.67.26.81.09 1.39.09.71 0 1.67-.1.97-.11 1.94-.32.96-.22 1.81-.61.85-.38 1.35-.96.21-.24.29-.43.09-.19.19-.38.11-.19.24-.39.13-.21.42-.44.68-.56 1.04-1.23.37-.68.55-1.41.17-.73.2-1.52t.03-1.61Zm42.19 10.89q0 1.03-.69 1.63-.69.6-1.66.91-.96.31-2 .39-1.04.09-1.78.09-.96 0-1.59-.17-.63-.18-1.1-.37-.47-.19-.82-.37-.35-.17-.73-.17-.5 0-.98.17-.49.18-.99.18-.35 0-.57-.12-.22-.12-.36-.28-.15-.16-.28-.27-.13-.12-.31-.12-.2 0-.32.16t-.27.37q-.14.2-.42.36-.28.16-.81.16-.61 0-1.2-.13-.58-.13-1.2-.13-.61 0-1.21.22t-1.13.22q-.24 0-.35-.16-.12-.16-.27-.16-.5 0-1.04.23-.54.24-1.1.24-.29 0-.57-.08-.28-.07-.57-.07-.5 0-.99.23-.5.24-1.24.24-.26 0-1.15-.08-.9-.07-1.83-.22-.94-.14-1.69-.36-.74-.22-.74-.49 0-.76.27-1.52.28-.76.28-1.46v-.06q-.38 0-.44-.41.06-.12.19-.19.13-.08.28-.12.15-.04.26-.13.12-.09.12-.27v-.11q1.17.11 2.3.14 1.13.03 2.36.03 1.14 0 2.53-.07 1.4-.07 2.58-.42 1.19-.36 1.99-1.07.81-.72.81-2.01v-.67q-.15-3.23-.31-6.35-.16-3.12-.16-6.34 0-.85-.13-1.66-.13-.8-.13-1.62 0-1.03.36-2.05.37-1.03 1.16-1.73-.03-.18-.15-.25-.11-.07-.29-.1l-.34-.06q-.16-.03-.27-.09-.18-.09-.24-.41-.06-.32-.1-.7-.04-.38-.09-.75-.04-.37-.19-.57.09-.85.29-1.67.21-.82.21-1.67 0-.62-.16-.97T218 8.8l-.36-.43q-.17-.19-.17-.48 0-.24.15-.44l-.23-.03q-.3 0-.44.15-.15.14-.28.32-.13.17-.28.32-.15.15-.41.15-.2 0-.47-.09-.5.15-.94.15-1.02 0-2.03-.28-1.01-.28-2.04-.28-.55 0-1.08.04-.53.05-1.06.05-.76 0-1.52-.18-.76-.17-1.35-.76v-.35q0-1.55 1.04-2.35 1.04-.79 2.54-.79 1.02 0 2.02.27.99.26 2.02.26.56 0 1.17-.12.62-.11 1.26-.26.65-.15 1.3-.26.66-.12 1.31-.12.99 0 1.87.42.88.43 1.76.81l-.03.23q0 .27.13.49.14.22.31.44.18.22.31.44t.13.48q0 .26-.07.51-.08.25-.08.52 0 .64.25 1.23.25.58.25 1.26 0 .7-.16 1.37-.16.68-.16 1.38 0 .85.21 1.7.2.85.2 1.7 0 .7-.22 1.37-.22.68-.22 1.35 0 .5.13.98.13.49.31.96.18.46.31.95.13.48.13 1.01v.58q0 .47-.07.9-.08.42-.4.8.15.56.31 1.21.16.64.16 1.23 0 .29-.04.63-.05.33-.15.67-.1.34-.28.61-.17.28-.41.46.38 1.11.5 2.25.12 1.15.17 2.29.03.35.12.91l.18 1.1q.09.54.16.99.07.46.07.63 0 .5-.17.97-.18.47-.18.97 0 .38.18.8.17.43.64.43.35 0 .6-.16.25-.17.54-.36.3-.19.69-.35.4-.16 1.07-.16.76 0 1.44.21.67.2 1.43.2.56 0 1.13-.1.57-.1 1.11-.24.55-.13 1.1-.24.56-.12 1.14-.12 1.18 0 1.98.67.81.68.81 1.99ZM220.52 6.19q-.12-.12-.28-.23-.16-.12-.36-.12-.15 0-.25.13t-.1.28l.14.35q.12.06.18.06.23 0 .39-.16t.28-.31Zm1.76 8.14q0-.23-.13-.48-.13-.25-.43-.25-.09 0-.19.03t-.16.06v1.26q.24.12.35.12.3 0 .43-.25t.13-.49Zm68.03.62q0 .12-.15.47t-.34.76q-.19.41-.39.76-.21.35-.32.47l.05.03q-.05 0-.11.03h-.15q-.12.03-.25.03h-.28l.12-.03q-.67-.03-1.22-.25-.54-.22-.89-.84-.06-.11-.17-.42-.12-.31-.24-.66-.12-.35-.19-.66-.07-.31-.07-.45 0-.24.04-.5t.04-.5q0-.91-.17-1.79-.18-.87-.18-1.78 0-.59.15-1.15.15-.55.53-1.02h-.15q-.35 0-.56-.22-.2-.22-.67-.22-1.11 0-2.17.26-1.05.27-2.22.27-.47 0-.94-.02-.47-.01-.97-.01-.91 0-1.79.2-.87.21-1.69.21-.09 0-.09-.03 0-.06.2-.16.21-.1.21-.16 0-.12-.19-.12h-.25q-.24 0-.4.23-.16.24-.48.33-.44.11-.94.11h-.97q-.29 0-.84-.03-.56-.03-1.12-.13-.55-.1-1.01-.32-.45-.22-.51-.63-.32.09-.43.31-.1.22-.17.45-.08.24-.22.43-.15.19-.59.22-.82.05-1.05.52-.24.47-.24 1.06 0 .32.03.64t.03.65q0 1.17-.04 2.33-.05 1.15-.05 2.33 0 .49.02 1.33.01.83.12 1.64.1.8.3 1.43.21.63.59.72.23.06.5.08.26.01.52.01 1.03 0 2.01-.23.98-.24 2.01-.24.41 0 .77.12.37.12.75.12.56 0 .87-.55.3-.54.44-1.26.13-.71.16-1.45.03-.73.03-1.08 0-.73-.05-1.45-.04-.72-.04-1.45h.17q.74 0 1.38.23.65.24 1.35.24.29 0 .44-.03 0 .58.2 1.17.21.59.21 1.2 0 .76-.82.97.23.41.38.82.14.41.14.85 0 .32-.05.63-.06.31-.06.63 0 .29.19.45.19.16.19.37 0 .35-.28.88t-.28 1.08q0 .65.12 1.35.12.7.26 1.46.15.77.27 1.54.11.78.11 1.57 0 .47-.04.97-.04.49-.21.95-.16.45-.43.83-.28.38-.72.65-.56-.06-.94-.34-.38-.28-.63-.67-.25-.4-.38-.88t-.19-.98q-.12-.76-.12-1.41 0-.64-.28-1.1-.28-.45-1.05-.72-.78-.26-2.42-.26-.47 0-1.33.09-.87.09-1.72.31-.84.22-1.47.63-.63.41-.63 1.02 0 .35.07.69.07.34.07.69 0 .29-.03.58-.03.3-.03.62 0 .79.09 1.57.09.77.09 1.56 0 .85-.22 1.67t-.22 1.67q0 .94.45 1.48.46.55 1.16.82.7.28 1.52.37.82.09 1.53.09 1.4 0 2.81-.18 1.41-.17 2.81-.17.88 0 1.76.08.88.09 1.76.09.67 0 1.49-.04.82-.05 1.57-.28.75-.23 1.29-.69.54-.45.69-1.3.03-.24.16-.34.13-.1.29-.17.16-.08.28-.17.12-.08.12-.29 0-.23-.18-.54-.17-.31-.23-.57-.12-.56-.13-1.13-.02-.57-.02-1.13 0-.88.28-1.54t.28-1.45q0-.23-.02-.44-.01-.2-.01-.44 0-.17.26-.35.27-.17.62-.3.35-.14.7-.22.35-.09.53-.09.73 0 1.2.51t.72 1.25q.25.73.33 1.52.09.79.09 1.35 0 .91-.15 2.05-.14 1.14-.39 2.34t-.57 2.33q-.32 1.13-.65 1.98-.17.41-.33.61-.16.21-.36.34-.19.13-.41.26-.22.14-.48.43-.23.26-.89.35-.66.09-1.39.09-.56 0-1.06-.03t-.76-.03q-.97 0-1.57.23-.6.24-1.13.24-.38 0-.49-.16-.12-.16-.36-.16-.2 0-.38.17-.17.18-.52.18-.36 0-.72-.02-.37-.01-.75-.01-2.2 0-4.36.13-2.17.13-4.37.19-1.49.06-2.96.35-1.46.3-2.96.3-.52 0-1.2-.11-.67-.1-1.27-.36-.6-.27-1.01-.72-.41-.46-.41-1.13 0-.64.47-1.23.46-.59 1.12-1.08.66-.5 1.37-.93.7-.42 1.14-.8-.03-.24-.03-.44v-.41q0-.44.01-.88.02-.44.16-.88.06-.26.31-.63t.25-.63q0-.2-.07-.38-.08-.18-.13-.38-.33-.79-.46-1.41-.13-.61-.13-1.49 0-.53.01-.92.02-.4.06-.77.05-.36.15-.76.1-.39.28-.89-.12-.21-.27-.62-.14-.41-.14-.64l.41-4.16q-.03-.09-.03-.29 0-.27.09-.53.08-.27.08-.56 0-.67-.23-1.33t-.23-1.33q0-.24.11-.56.12-.32.25-.7.13-.39.25-.84.12-.45.12-.98 0-.41-.19-.7-.19-.3-.19-.68 0-.35.17-.7.18-.35.18-.76 0-.59-.22-1.13-.22-.54-.45-1.04-.36-.73-.55-1.19-.19-.45-.45-.73-.26-.28-.72-.41-.45-.13-1.3-.19-.41-.03-.78-.25-.36-.22-.64-.57t-.46-.76q-.17-.41-.17-.79 0-.53.47-.9.46-.36 1.2-.58.73-.22 1.64-.35.91-.14 1.77-.21.86-.07 1.58-.1.72-.03 1.1-.09.59-.09 1.14-.12.56-.03 1.15-.03 1.14 0 2.3.08 1.15.07 2.3.07 1.23 0 2.41-.23 1.19-.24 2.42-.24 1.11 0 2.2.25 1.08.25 2.14.25 1.02 0 2.02-.25.99-.25 2.02-.25.44 0 .88.09.64.7 1.18 1.17.55.47.94.95.4.49.65 1.13.24.65.33 1.7.03.38.03.92 0 .55.03 1.06t.16.92q.13.41.43.5 0 .41-.41.41.03.41.17.83.15.43.3.85.14.43.26.85.12.43.12.81Zm-25.37 7.21q-.18 0-.33.05-.14.06-.2.27 1.11.64 1.77 1.21.66.58 1.03.93.36.35.54.39.17.05.35-.36.23-.53-.07-1-.31-.47-.85-.79-.55-.32-1.18-.51-.62-.19-1.06-.19Zm60.73 20.5q0 1.03-.69 1.63-.69.6-1.66.91-.96.31-2 .39-1.04.09-1.78.09-.96 0-1.59-.17-.63-.18-1.1-.37-.47-.19-.82-.37-.35-.17-.73-.17-.5 0-.98.17-.49.18-.99.18-.35 0-.57-.12-.22-.12-.36-.28-.15-.16-.28-.27-.13-.12-.31-.12-.2 0-.32.16t-.27.37q-.14.2-.42.36-.28.16-.81.16-.61 0-1.2-.13-.58-.13-1.2-.13-.61 0-1.21.22t-1.13.22q-.24 0-.35-.16-.12-.16-.27-.16-.5 0-1.04.23-.54.24-1.1.24-.29 0-.57-.08-.28-.07-.57-.07-.5 0-.99.23-.5.24-1.23.24-.27 0-1.16-.08-.9-.07-1.83-.22-.94-.14-1.69-.36-.74-.22-.74-.49 0-.76.27-1.52.28-.76.28-1.46v-.06q-.38 0-.44-.41.06-.12.19-.19.13-.08.28-.12.15-.04.26-.13.12-.09.12-.27v-.11q1.17.11 2.3.14 1.13.03 2.36.03 1.14 0 2.53-.07 1.4-.07 2.58-.42 1.19-.36 1.99-1.07.81-.72.81-2.01v-.67q-.15-3.23-.31-6.35-.16-3.12-.16-6.34 0-.85-.13-1.66-.13-.8-.13-1.62 0-1.03.36-2.05.37-1.03 1.16-1.73-.03-.18-.15-.25-.11-.07-.29-.1l-.34-.06q-.16-.03-.27-.09-.18-.09-.24-.41-.06-.32-.1-.7-.04-.38-.09-.75-.04-.37-.19-.57.09-.85.29-1.67.21-.82.21-1.67 0-.62-.16-.97t-.37-.58l-.36-.43q-.17-.19-.17-.48 0-.24.15-.44l-.23-.03q-.3 0-.44.15-.15.14-.28.32-.13.17-.28.32-.15.15-.41.15-.2 0-.47-.09-.5.15-.94.15-1.02 0-2.03-.28-1.01-.28-2.04-.28-.55 0-1.08.04-.53.05-1.06.05-.76 0-1.52-.18-.76-.17-1.35-.76v-.35q0-1.55 1.04-2.35 1.04-.79 2.54-.79 1.02 0 2.02.27.99.26 2.02.26.56 0 1.17-.12.62-.11 1.26-.26.65-.15 1.3-.26.66-.12 1.31-.12.99 0 1.87.42.88.43 1.76.81l-.03.23q0 .27.13.49.14.22.31.44.18.22.31.44t.13.48q0 .26-.07.51-.08.25-.08.52 0 .64.25 1.23.25.58.25 1.26 0 .7-.16 1.37-.16.68-.16 1.38 0 .85.21 1.7.2.85.2 1.7 0 .7-.22 1.37-.22.68-.22 1.35 0 .5.13.98.13.49.31.96.18.46.31.95.13.48.13 1.01v.58q0 .47-.07.9-.08.42-.4.8.15.56.31 1.21.16.64.16 1.23 0 .29-.04.63-.05.33-.15.67-.1.34-.28.61-.17.28-.41.46.38 1.11.5 2.25.12 1.15.17 2.29.03.35.12.91l.18 1.1q.09.54.16.99.07.46.07.63 0 .5-.17.97-.18.47-.18.97 0 .38.18.8.17.43.64.43.35 0 .6-.16.25-.17.54-.36.3-.19.69-.35.4-.16 1.07-.16.76 0 1.44.21.67.2 1.43.2.56 0 1.13-.1.57-.1 1.11-.24.55-.13 1.1-.24.56-.12 1.14-.12 1.18 0 1.98.67.81.68.81 1.99ZM308.85 6.19q-.12-.12-.28-.23-.16-.12-.36-.12-.15 0-.25.13t-.1.28l.14.35q.12.06.18.06.23 0 .39-.16t.28-.31Zm1.76 8.14q0-.23-.13-.48-.13-.25-.43-.25-.09 0-.19.03t-.16.06v1.26q.24.12.35.12.3 0 .43-.25t.13-.49Zm35.1-6.91q0 .85-.28 1.74-.28.9-.81 1.64-.52.75-1.27 1.23-.75.49-1.66.49-.61 0-1.52-.19t-1.74-.56q-.84-.37-1.44-.95-.6-.59-.6-1.38 0-.7.16-1.45t.19-1.51q.3-.14.59-.52.29-.39.57-.78.28-.4.56-.72.27-.32.57-.35l-.15.06q.41-.18.87-.29.45-.12.92-.12.61 0 1.48.31.86.3 1.65.8.79.5 1.35 1.17.56.68.56 1.38Zm14.18 35.65q0 .5-.19.94-.19.44-.53.78t-.78.54q-.44.21-.96.21-.21 0-.27-.06-.06-.06-.2-.21-.41-.44-1-.51-.58-.07-1.21-.15-.63-.07-1.21-.32-.57-.25-.92-1.01-.23-.5-.5-.65-.26-.14-.82-.14-1.29 0-2.46.41t-2.31.92q-1.15.51-2.33.92-1.19.41-2.45.41-.7 0-1.39-.13t-1.33-.42q-.15.14-.34.2-.19.06-.42.06-.21 0-.4-.03-.19-.03-.34-.03-.03 0-.32.11-.29.1-.35.13l.18.29q-.18.26-.8.51-.61.25-1.33.43-.72.17-1.39.29-.67.12-1.03.12-.93 0-1.53-.31t-1.19-1.07q-.21-.29-.51-.59-.31-.29-.59-.6-.28-.3-.47-.65-.19-.36-.19-.74 0-.44.47-.73t1.11-.48q.65-.19 1.29-.27.65-.07 1-.07.7 0 1.41.19.7.19 1.4.19.65 0 1.23-.17.59-.18 1.23-.18.56 0 1.1.07.54.08 1.1.08.7 0 1.36-.25.66-.25 1.25-.66.23-1.44.33-2.87.11-1.44.11-2.9 0-1.44-.24-2.88-.23-1.43-.23-2.84 0-.11.06-.13.05-.01.13-.03.07-.01.13-.06.06-.04.06-.22 0-.61-.18-1.2-.17-.58-.17-1.2 0-.76.2-1.49.21-.74.21-1.5 0-.52-.24-1.05-.23-.53-.61-.94-.38-.41-.88-.66-.5-.25-1.06-.25-.61 0-1.21.15t-1.25.34q-.64.19-1.3.33-.66.15-1.39.15-.85 0-1.67-.12-.82-.11-1.67-.26-.41-.06-.92-.12-.52-.06-.99-.2-.47-.15-.79-.44-.32-.3-.32-.85 0-1.03.37-1.57.36-.54.9-.81.55-.26 1.22-.32.67-.06 1.29-.12l2.21-.16q1.1-.07 2.21-.07 1.38 0 2.71.16 1.34.16 2.71.16.97 0 1.85.3.88.29 1.54.89.66.6 1.04 1.51t.38 2.11q0 .79-.34 1.54-.34.74-.86 1.33.2.38.41.51.2.13.38.24.17.1.29.26.12.16.12.6 0 .23.07.54.07.31.4.34 0 1.58-.03 3.12t-.03 3.09q0 1.32.01 2.64.02 1.31.22 2.63.12.82.47 1.26.35.44 1.26.44 1.32 0 2.61-.28 1.29-.27 2.61-.27.76 0 1.45.38.68.38 1.31.82.63.44 1.22.82.59.38 1.11.38.24 0 .38.16.15.16.22.38.08.22.09.45.02.24.02.41Zm27.68-9.28q0 .93-.2 1.77-.21.83-.47 1.64-.27.81-.54 1.64-.28.84-.43 1.71-.26 1.47-1.05 2.44-.79.96-1.91 1.53-1.11.58-2.47.85-1.37.28-2.8.43-1.44.15-2.83.2-1.39.06-2.56.21-.44-.32-.73-.7-.3-.38-.56-.72-.26-.34-.59-.56-.32-.22-.85-.22-.17 0-.27-.48-.11-.49-.19-1.09-.09-.6-.2-1.08-.1-.48-.27-.48-.68 0-1.07-.3-.4-.29-.62-.74-.22-.46-.29-1.01-.07-.56-.07-1.09 0-.41-.18-.76-.18-.35-.38-.69-.21-.33-.38-.69-.18-.35-.18-.73 0-.44.05-1.1.04-.66.08-1.36.05-.7.09-1.38.05-.67.05-1.11 0-.53.13-.88t.31-.61q.17-.27.3-.47.14-.21.14-.47 0-.35-.17-.59-.16-.23-.16-.47 0-.32.21-.63.2-.3.29-.63.32-1.29.32-2.54 0-.27-.01-.52-.02-.25-.05-.48-.67-.56-1.49-.72-.82-.16-1.64-.23-.82-.08-1.58-.19-.76-.12-1.29-.62-.44-.41-.79-.92-.35-.51-.94-.69-.41-.15-.69-.4-.28-.24-.28-.71 0-.71.43-1.07.42-.37 1.01-.59.58-.22 1.21-.38t1.07-.48q.44-.33 1.06-.33.26 0 .51.02.25.01.51.01.74 0 1.22-.25.48-.24.76-.67.28-.42.38-.98.11-.56.11-1.2 0-.94-.12-1.82-.12-.88-.12-1.81 0-1.09.29-2 .3-.9 1.12-1.67.17-.14.38-.38.2-.23.44-.45.23-.22.48-.37.25-.14.51-.14.18 0 .31.07t.28.19q.64.64.83.95.19.31.19.72 0 .23-.01.51t-.01.72q0 .94.23 1.85.23.9.23 1.55 0 .56-.22 1.07t-.22 1.07q0 .41.2.74.19.34.43.66.25.33.46.66.2.34.2.78.3.2 1.32.37 1.03.16 2.29.26t2.55.16q1.29.06 2.13.06.77 0 1.18.12.41.11.69.24.27.14.51.28.23.15.61.18.47.06.81.25.34.19.34.74 0 .71-.37 1.12-.37.41-.91.61-.54.21-1.16.25-.61.05-1.14.05-.85 0-1.7-.06t-1.7-.06q-1.4 0-2.55.26-1.14.27-1.97.88-.84.62-1.29 1.63-.46 1.01-.46 2.53 0 1.5.19 2.93.19 1.44.19 2.93 0 1.41.05 2.26.04.85.34 1.43.38.85.61 1.94.23 1.08.6 2.05.37.96 1.03 1.62.66.66 1.94.66.44 0 1.18-.11.73-.12 1.46-.37t1.26-.65q.53-.39.53-.98 0-.5-.29-1.01-.3-.51-.3-1.1 0-.41.19-.71.19-.31.5-.56.31-.25.65-.44.33-.19.65-.34.53-.67 1.28-1.13.75-.45 1.6-.45.58 0 1.12.21.55.2 1.01.52.09.53.09 1.09Zm31.41 4.27q0 .8-.25 1.35-.25.56-.65 1-.39.44-.9.82-.52.38-1.04.82-.41.35-.74.53-.32.17-.63.29-.3.12-.64.23-.34.12-.78.33-.58.29-.98.54-.39.25-.79.45-.39.21-.86.34-.47.13-1.18.22-1.17.15-2.35.35-1.19.21-2.36.21-.24 0-.49-.11-.24-.1-.57-.2-.32-.1-.71-.21-.4-.1-.96-.1-.58 0-.93-.18-.36-.17-.63-.41-.28-.23-.58-.51-.29-.28-.76-.48-1.75-.79-2.99-1.91-1.23-1.11-2.1-2.49-.88-1.37-1.47-2.98-.59-1.62-1-3.37-.32-1.23-.32-2.46 0-1.62.76-2.99-.29-.82-.29-1.59 0-.55.32-1.65.33-1.1.84-2.21.51-1.12 1.11-2.01.6-.89 1.13-1.1.41-.14.57-.25.16-.1.16-.57 0-.35.28-.58.28-.24.67-.39.4-.14.8-.26.39-.12.65-.23 1.09-.53 2.07-.9.98-.36 1.96-.61t2.04-.37q1.05-.12 2.25-.12.65 0 1.26.18.62.18 1.19.45.57.28 1.13.62.56.34 1.08.66h-.03q.44.06.84.25.39.19.83.25.41.5 1.07.95.66.45 1.29.95.63.5 1.09 1.07.45.57.45 1.3 0 .12-.01.24-.02.12-.05.26l.12-.14q.12.08.22.29.1.2.19.45t.15.5l.08.4q.24.38.63.61.4.24.63.65-.29.29-.29.76 0 .5.2.98.21.48.21.98 0 .59-.06 1.13-.06.54-.06 1.13 0 .44-.33.67-.34.24-.74.41-.39.18-.71.35-.33.18-.33.5 0 .23-.27.22-.28-.01-.46-.01-1.29 0-2.56-.33-1.28-.32-2.54-.32-1.37 0-2.72.19t-2.73.19q-1.02 0-2.03-.06-1.01-.06-2.04-.06-.26 0-.99.11-.74.1-1.54.26-.81.16-1.54.38t-1.03.43q-.03.14-.03.41 0 1.37.81 2.84.81 1.46 2.12 2.66 1.32 1.21 2.96 2t3.31.79q.97 0 1.92.07.96.07 1.86.43.79-.39 1.45-.88.66-.5 1.28-1.06.61-.55 1.2-1.14.59-.59 1.2-1.17.12-.12.57-.22.46-.1.98-.18.53-.07 1.01-.12.49-.04.66-.04.68 0 1.26.21.18.67.18 1.31Zm-4.4-11.89q0-.44-.14-.85-.15-.41-.24-.85-.14-.82-.14-1.6 0-.77-.24-1.56h-.03q0 .17-.11.33-.12.16-.33.16-.35 0-.67-.17-.32-.18-.56-.44-1.11-.5-2-.94-.9-.44-1.79-.77-.89-.34-1.91-.53-1.01-.19-2.32-.19-.12 0-.22.01-.11.02-.19.11l.14.32-.23.06q-.79.14-1.31.27-.51.14-.92.37-.41.23-.8.57l-1.02.87q-.29.26-.63.39-.33.13-.67.24-.34.1-.64.22-.31.11-.52.38-.2.73-.6 1.42-.39.69-.39 1.45 0 .44.36.77.37.34.94.58.57.23 1.26.41.69.17 1.36.26.68.09 1.25.13.57.04.89.04 1.12 0 2.2-.21 1.08-.22 2.2-.22 1.14 0 2.28.1t2.29.1q.29 0 .88-.03.58-.03 1.15-.16t1-.38q.42-.25.42-.66Z"/></svg>