<svg version="1.1" xmlns="http://www.w3.org/2000/svg" xmlns:xlink="http://www.w3.org/1999/xlink" role="img" width="414.8700256347656" height="54.84000015258789" viewBox="4.110000133514404 2.5900001525878906 414.8700256347656 54.84000015258789"><title>Special Elite</title><path fill="#000000" d="M33.78 29.57L33.78 29.57Q33.78 31.06 33.59 32.50Q33.40 33.93 33.31 35.43L33.31 35.43Q33.11 35.22 32.86 35.09Q32.61 34.96 32.35 34.96L32.35 34.96Q32.03 34.96 31.73 35.16Q31.44 35.37 31.44 35.69L31.44 35.69Q31.44 36.04 31.78 36.16Q32.11 36.28 32.46 36.28L32.46 36.28Q32.76 36.28 32.88 36.25L32.88 36.25Q32.88 36.60 32.68 36.97Q32.49 37.33 32.22 37.68Q31.94 38.04 31.63 38.34Q31.32 38.65 31.09 38.88L31.09 38.88Q30.91 39.06 30.71 39.38Q30.50 39.71 30.25 40.01Q30.00 40.32 29.74 40.54Q29.48 40.76 29.21 40.76L29.21 40.76Q28.92 40.76 28.74 40.60Q28.57 40.44 28.33 40.44L28.33 40.44Q28.01 40.44 27.94 40.77Q27.87 41.11 27.87 41.43L27.87 41.43L27.87 41.79Q27.87 41.93 27.25 42.17Q26.63 42.40 25.77 42.68Q24.91 42.96 23.98 43.24Q23.06 43.51 22.45 43.78L22.45 43.78Q21.24 44.28 20.01 44.60Q18.78 44.92 17.46 44.92L17.46 44.92Q16.50 44.92 15.60 44.67Q14.71 44.42 13.82 44.11Q12.92 43.81 12.03 43.56Q11.14 43.31 10.17 43.31L10.17 43.31Q9.79 43.31 9.17 43.43Q8.56 43.54 8.24 43.78L8.24 43.78Q8.09 43.89 7.94 44.20Q7.80 44.51 7.59 44.51L7.59 44.51Q7.45 44.51 7.18 44.39Q6.92 44.28 6.80 44.22L6.80 44.22Q6.13 43.87 5.66 43.29Q5.19 42.72 4.87 42.05Q4.54 41.38 4.40 40.63Q4.25 39.88 4.25 39.18L4.25 39.18Q4.25 38.68 4.35 38.20Q4.46 37.71 4.46 37.21L4.46 37.21Q4.46 36.51 4.30 35.84Q4.13 35.16 4.13 34.46L4.13 34.46Q4.13 33.96 4.30 33.46Q4.46 32.97 4.46 32.47L4.46 32.47Q4.46 32.09 4.28 31.75Q4.11 31.41 4.11 31.03L4.11 31.03Q4.11 30.77 4.30 30.59Q4.49 30.42 4.49 30.18L4.49 30.18Q4.49 29.83 4.46 29.48Q4.43 29.13 4.43 28.78L4.43 28.78Q4.43 28.60 4.44 28.26Q4.46 27.93 4.52 27.61Q4.57 27.28 4.72 27.05Q4.87 26.81 5.13 26.81L5.13 26.81Q5.66 26.81 6.20 27.47Q6.74 28.13 7.20 29.01Q7.65 29.89 7.94 30.77Q8.24 31.65 8.24 32.09L8.24 32.09Q8.24 32.23 8.12 32.37Q8.00 32.50 7.83 32.50L7.83 32.50Q7.94 32.70 8.09 33.11Q8.24 33.52 8.24 33.76L8.24 33.76Q8.24 34.11 8.13 34.43Q8.03 34.75 8.03 35.11L8.03 35.11Q8.03 35.40 8.16 35.66Q8.29 35.93 8.44 36.16L8.44 36.16Q8.68 36.51 8.85 36.69Q9.03 36.86 9.23 36.94Q9.44 37.01 9.69 37.04Q9.94 37.07 10.35 37.10L10.35 37.10Q10.93 37.95 11.66 38.68Q12.40 39.41 13.25 40.00L13.25 40.00Q14.56 40.29 15.85 40.47Q17.14 40.64 18.46 40.64L18.46 40.64Q19.54 40.64 20.35 40.41Q21.16 40.17 21.84 39.79Q22.53 39.41 23.18 38.93Q23.82 38.45 24.53 37.92L24.53 37.92Q25.02 37.57 25.58 37.24Q26.14 36.92 26.66 36.57Q27.19 36.22 27.66 35.79Q28.13 35.37 28.45 34.81L28.45 34.81Q28.66 34.46 29.05 34.09Q29.45 33.73 29.45 33.29L29.45 33.29Q29.45 33.11 29.42 33.03L29.42 33.03Q29.30 32.09 29.26 31.19Q29.21 30.30 29.15 29.36L29.15 29.36Q29.10 28.48 28.77 28.03Q28.45 27.58 27.97 27.27Q27.48 26.96 26.93 26.67Q26.37 26.38 25.84 25.85L25.84 25.85Q25.29 25.29 24.60 25.14Q23.91 25.00 23.18 24.97Q22.45 24.94 21.73 24.87Q21.01 24.79 20.39 24.32L20.39 24.32Q20.22 24.21 20.10 24.21L20.10 24.21Q19.84 24.21 19.59 24.37Q19.34 24.53 19.05 24.53L19.05 24.53Q18.61 24.53 18.15 24.41Q17.70 24.29 17.26 24.15Q16.82 24.00 16.38 23.86Q15.94 23.71 15.50 23.65L15.50 23.65Q14.92 23.56 14.55 23.53Q14.18 23.50 13.88 23.43Q13.57 23.36 13.22 23.20Q12.87 23.04 12.34 22.68L12.34 22.68Q10.81 21.69 9.09 21.22L9.09 21.22Q8.76 20.40 8.24 19.55L8.24 19.55Q7.91 19.34 7.61 19.15Q7.30 18.96 7.01 18.73L7.01 18.73Q6.83 18.44 6.55 17.70Q6.27 16.97 6.01 16.14Q5.75 15.30 5.56 14.57Q5.37 13.84 5.37 13.51L5.37 13.51Q5.37 12.84 5.51 12.22Q5.66 11.61 6.19 11.11L6.19 11.11Q6.27 11.05 6.41 10.95Q6.54 10.85 6.54 10.70L6.54 10.70Q6.54 10.55 6.32 10.48Q6.10 10.41 6.10 10.17L6.10 10.17Q6.10 10.14 6.13 10.07Q6.16 10.00 6.16 9.94L6.16 9.94Q6.36 9.29 6.77 8.71Q7.18 8.12 7.71 7.60Q8.24 7.07 8.81 6.61Q9.38 6.16 9.91 5.78L9.91 5.78Q10.29 5.52 10.57 5.11Q10.84 4.70 11.17 4.52L11.17 4.52Q11.37 4.52 11.58 4.50Q11.78 4.49 11.99 4.49L11.99 4.49Q12.22 4.49 12.41 4.50Q12.60 4.52 12.84 4.52L12.84 4.52Q13.16 4.40 13.28 4.24Q13.39 4.08 13.51 3.93Q13.63 3.79 13.82 3.70Q14.01 3.61 14.51 3.61L14.51 3.61Q14.83 3.61 15.15 3.63Q15.47 3.64 15.79 3.64L15.79 3.64Q16.91 3.64 18.01 3.61Q19.11 3.58 20.22 3.58L20.22 3.58Q21.01 3.58 21.79 3.60Q22.56 3.61 23.35 3.73L23.35 3.73Q23.88 3.79 24.38 3.95Q24.88 4.11 25.43 4.11L25.43 4.11Q25.96 4.11 26.18 3.90Q26.40 3.70 26.53 3.46Q26.66 3.23 26.84 3.03Q27.02 2.82 27.46 2.82L27.46 2.82Q28.07 2.82 28.73 3.14Q29.39 3.46 29.97 3.67L29.97 3.67L29.95 3.79Q29.86 4.05 29.86 4.37L29.86 4.37Q29.86 4.87 30.02 5.35Q30.18 5.84 30.36 6.31Q30.53 6.78 30.69 7.24Q30.85 7.71 30.85 8.24L30.85 8.24Q30.85 8.56 30.79 8.84Q30.74 9.12 30.74 9.44L30.74 9.44Q30.74 10.03 30.97 10.28Q31.21 10.53 31.21 10.73L31.21 10.73Q31.21 10.96 31 11.13Q30.79 11.29 30.79 11.61L30.79 11.61Q30.79 12.37 30.88 13.12Q30.97 13.87 30.97 14.63L30.97 14.63Q30.97 14.89 30.96 15.42Q30.94 15.95 30.84 16.46Q30.74 16.97 30.52 17.35Q30.30 17.73 29.89 17.73L29.89 17.73Q29.45 17.73 29.04 17.40Q28.63 17.06 28.36 16.74L28.36 16.74Q27.98 16.33 27.81 15.84Q27.63 15.36 27.51 14.83Q27.40 14.30 27.25 13.79Q27.10 13.28 26.81 12.84L26.81 12.84Q26.34 12.17 25.92 11.48Q25.49 10.79 25.08 10.09L25.08 10.09Q24.76 9.56 24.53 9.35Q24.29 9.15 24.03 9.08Q23.76 9.00 23.43 9.00Q23.09 9.00 22.59 8.91L22.59 8.91Q22.06 8.83 21.55 8.65Q21.04 8.47 20.53 8.31Q20.01 8.15 19.49 8.02Q18.96 7.89 18.43 7.89L18.43 7.89Q17.58 7.89 16.70 8.15Q15.82 8.42 14.95 8.81Q14.07 9.21 13.22 9.63Q12.37 10.06 11.58 10.35L11.58 10.35Q10.84 11.90 10.84 13.69L10.84 13.69Q10.84 14.98 11.14 15.80Q11.43 16.62 11.94 17.19Q12.46 17.76 13.11 18.20Q13.77 18.64 14.51 19.14L14.51 19.14Q15.27 19.64 16.01 19.80Q16.76 19.96 17.64 19.96L17.64 19.96Q18.14 19.96 18.62 19.93Q19.11 19.90 19.60 19.90L19.60 19.90Q20.16 19.90 20.66 20.05Q21.16 20.19 21.64 20.38Q22.12 20.57 22.62 20.72Q23.12 20.87 23.65 20.87L23.65 20.87Q24.14 20.87 24.60 20.81Q25.05 20.75 25.52 20.75L25.52 20.75Q25.93 20.75 26.25 20.94Q26.58 21.13 26.90 21.38Q27.22 21.63 27.56 21.83Q27.89 22.04 28.30 22.07L28.30 22.07Q28.89 22.36 29.27 22.60Q29.65 22.83 29.96 23.09Q30.27 23.36 30.55 23.74Q30.82 24.12 31.18 24.68L31.18 24.68Q31.50 25.23 32.03 25.64Q32.55 26.05 32.88 26.64L32.88 26.64Q32.99 26.84 33.02 27.12Q33.05 27.40 33.11 27.65Q33.17 27.90 33.30 28.09Q33.43 28.28 33.72 28.31L33.72 28.31Q33.75 28.63 33.77 28.94Q33.78 29.25 33.78 29.57ZM69.12 29.92L69.12 29.92Q69.12 31.18 68.85 32.38Q68.59 33.58 68.41 34.81L68.41 34.81Q68.35 35.22 68.34 35.56Q68.32 35.90 68.27 36.20Q68.21 36.51 68.06 36.82Q67.91 37.13 67.62 37.45L67.62 37.45Q67.24 37.86 67.09 38.31Q66.95 38.77 66.80 39.27L66.80 39.27Q66.63 39.76 66.41 40.01Q66.19 40.26 65.94 40.44Q65.69 40.61 65.41 40.77Q65.13 40.94 64.84 41.26L64.84 41.26Q64.66 41.46 64.62 41.67Q64.57 41.87 64.54 42.06Q64.52 42.25 64.41 42.43Q64.31 42.61 64.02 42.72L64.02 42.72Q63.55 42.93 63.34 43.18Q63.14 43.43 62.82 43.75L62.82 43.75Q62.49 44.07 61.98 44.38Q61.47 44.69 60.90 44.92Q60.33 45.15 59.74 45.30Q59.15 45.45 58.71 45.45L58.71 45.45Q58.16 45.45 57.62 45.33Q57.07 45.21 56.52 45.21L56.52 45.21Q56.20 45.21 56.03 45.32Q55.87 45.42 55.76 45.54Q55.64 45.65 55.51 45.75Q55.38 45.86 55.11 45.86L55.11 45.86Q54.61 45.86 53.65 45.46Q52.68 45.07 51.61 44.58Q50.54 44.10 49.54 43.70Q48.55 43.31 48.02 43.31L48.02 43.31Q47.55 43.31 47.27 43.65Q47.00 43.98 46.82 44.50Q46.64 45.01 46.57 45.61Q46.50 46.21 46.48 46.74Q46.47 47.26 46.48 47.62Q46.50 47.97 46.50 47.97L46.50 47.97Q46.50 48.26 46.40 48.35Q46.29 48.44 46.12 48.44L46.12 48.44Q46 48.44 45.88 48.42Q45.77 48.41 45.62 48.38L45.62 48.38Q45.62 48.73 45.75 49.14Q45.88 49.55 46.07 50.00Q46.26 50.46 46.44 50.90Q46.62 51.34 46.70 51.72L46.70 51.72Q46.91 52.65 47.13 53.06Q47.35 53.47 47.70 53.62Q48.05 53.77 48.58 53.75Q49.11 53.74 49.93 53.83L49.93 53.83Q50.31 53.88 50.75 53.99Q51.19 54.09 51.54 54.31Q51.89 54.53 52.12 54.85Q52.36 55.17 52.36 55.64L52.36 55.64Q52.36 56.61 51.79 57.02Q51.21 57.43 50.34 57.43L50.34 57.43Q49.13 57.43 47.95 57.25Q46.76 57.08 45.53 57.08L45.53 57.08Q44.24 57.08 42.97 57.22Q41.69 57.37 40.43 57.37L40.43 57.37Q40.11 57.37 39.54 57.25Q38.97 57.14 38.40 56.92Q37.83 56.70 37.40 56.39Q36.98 56.08 36.98 55.70L36.98 55.70Q36.98 55.44 37.28 55.19Q37.59 54.94 37.99 54.76Q38.38 54.59 38.79 54.49Q39.20 54.38 39.44 54.38L39.44 54.38Q39.96 54.38 40.42 54.22Q40.87 54.06 41.31 53.88Q41.75 53.71 42.19 53.55Q42.63 53.39 43.13 53.39L43.13 53.39Q43.39 52.27 43.47 51.16Q43.54 50.05 43.54 48.93L43.54 48.93Q43.54 48.14 43.52 47.35Q43.51 46.56 43.51 45.77L43.51 45.77Q43.51 44.22 43.73 42.69Q43.95 41.17 43.95 39.59L43.95 39.59Q43.95 38.62 43.88 37.65Q43.80 36.69 43.74 35.72L43.74 35.72Q43.66 35.60 43.54 34.94Q43.42 34.29 43.32 33.49Q43.22 32.70 43.16 31.99Q43.10 31.27 43.10 31.03L43.10 31.03Q43.10 30.71 43.20 30.46Q43.30 30.21 43.42 30.02Q43.54 29.83 43.64 29.69Q43.74 29.54 43.74 29.42L43.74 29.42Q43.74 29.39 43.66 29.22Q43.57 29.04 43.47 28.78Q43.36 28.51 43.28 28.19Q43.19 27.87 43.19 27.55L43.19 27.55Q43.19 26.61 43.41 25.67Q43.63 24.73 43.63 23.80L43.63 23.80Q43.63 22.54 42.72 21.60L42.72 21.60Q42.28 21.16 42.02 20.93Q41.75 20.69 41.49 20.59Q41.22 20.49 40.87 20.44Q40.52 20.40 39.91 20.31L39.91 20.31Q39.58 20.28 39.01 20.12Q38.44 19.96 37.88 19.72Q37.33 19.49 36.90 19.17Q36.48 18.85 36.48 18.46L36.48 18.46Q36.48 17.97 36.95 17.60Q37.42 17.23 38.05 17.01Q38.68 16.79 39.32 16.69Q39.96 16.59 40.35 16.59L40.35 16.59Q40.76 16.59 41.17 16.66Q41.58 16.74 41.87 17.03L41.87 17.03Q42.19 16.71 42.66 16.60Q43.13 16.50 43.57 16.50L43.57 16.50Q44.83 16.50 45.50 16.88Q46.18 17.26 46.57 17.72Q46.97 18.17 47.22 18.55Q47.46 18.93 47.85 18.93L47.85 18.93Q48.08 18.93 48.30 18.85Q48.52 18.76 48.75 18.64L48.75 18.64Q49.37 18.35 50.60 17.92Q51.83 17.50 53.21 17.10Q54.58 16.71 55.84 16.44Q57.10 16.18 57.75 16.18L57.75 16.18Q58.07 16.18 58.67 16.34Q59.27 16.50 60.00 16.75Q60.74 17 61.53 17.34Q62.32 17.67 62.99 18.03Q63.67 18.38 64.16 18.71Q64.66 19.05 64.84 19.31L64.84 19.31Q65.16 19.84 65.53 20.22Q65.89 20.60 66.51 20.81L66.51 20.81Q66.68 21.04 66.73 21.31Q66.77 21.57 66.77 21.86L66.77 21.86L66.77 22.42Q66.77 23.01 66.98 23.33Q67.18 23.65 67.42 23.87Q67.65 24.09 67.86 24.28Q68.06 24.47 68.06 24.82L68.06 24.82Q68.06 25.03 67.94 25.19Q67.83 25.35 67.83 25.53L67.83 25.53Q67.83 25.96 68.03 26.42Q68.24 26.87 68.47 27.42Q68.71 27.96 68.91 28.57Q69.12 29.19 69.12 29.92ZM55.70 17.44L55.70 17.44Q55.70 17.29 55.55 17.15Q55.40 17 55.26 17L55.26 17Q54.96 17 54.89 17.31Q54.82 17.62 54.82 17.85L54.82 17.85Q54.82 17.79 54.85 17.79L54.85 17.79Q54.91 17.79 54.94 17.82L54.94 17.82L54.82 17.88Q55.02 17.88 55.36 17.81Q55.70 17.73 55.70 17.44ZM65.66 30.83L65.66 30.83Q65.66 29.95 65.42 29.11Q65.19 28.28 64.84 27.50Q64.49 26.73 64.05 25.99Q63.61 25.26 63.17 24.56L63.17 24.56Q63.05 24.38 63.02 24.16Q62.99 23.94 62.99 23.72Q62.99 23.50 62.95 23.28Q62.90 23.06 62.76 22.89L62.76 22.89Q62.52 22.63 62.32 22.58Q62.11 22.54 61.92 22.51Q61.73 22.48 61.51 22.36Q61.29 22.24 61.09 21.83L61.09 21.83Q60.94 21.57 60.46 21.25Q59.97 20.93 59.40 20.63Q58.83 20.34 58.29 20.15Q57.75 19.96 57.46 19.96L57.46 19.96Q56.87 19.96 56.30 20.21Q55.73 20.46 55.14 20.46L55.14 20.46Q54.73 20.46 54.39 20.31Q54.06 20.16 53.75 20.00Q53.44 19.84 53.12 19.70Q52.80 19.55 52.45 19.55L52.45 19.55L52.30 19.55Q52.36 19.84 52.36 20.02L52.36 20.02Q52.36 20.28 52.24 20.44Q52.12 20.60 51.93 20.72Q51.74 20.84 51.52 20.94Q51.30 21.04 51.13 21.16L51.13 21.16Q50.86 21.48 50.85 21.80Q50.83 22.13 50.54 22.13L50.54 22.13Q50.34 22.13 50.22 22.07L50.22 22.07Q50.22 22.27 50.10 22.36Q49.98 22.45 49.84 22.51Q49.69 22.57 49.54 22.64Q49.40 22.71 49.37 22.89L49.37 22.89Q48.99 22.92 48.67 23.34Q48.34 23.77 48.11 24.41Q47.88 25.06 47.70 25.85Q47.52 26.64 47.41 27.39Q47.29 28.13 47.23 28.76Q47.17 29.39 47.17 29.71L47.17 29.71Q47.17 30.77 47.30 31.81Q47.44 32.85 47.44 33.90L47.44 33.90Q47.44 34.70 47.39 35.49Q47.35 36.28 47.29 37.10L47.29 37.10Q48.02 37.89 48.70 38.68Q49.37 39.47 50.12 40.10Q50.86 40.73 51.77 41.16Q52.68 41.58 53.88 41.61L53.88 41.61Q54.35 41.61 54.82 41.73Q55.29 41.84 55.76 41.96Q56.22 42.08 56.68 42.18Q57.13 42.28 57.60 42.28L57.60 42.28Q58.04 42.28 58.54 42.09Q59.04 41.90 59.52 41.61Q60.00 41.32 60.44 40.98Q60.88 40.64 61.18 40.32L61.18 40.32Q61.41 40.06 61.75 39.94Q62.08 39.82 62.32 39.59L62.32 39.59Q62.49 39.41 62.55 39.21Q62.61 39.00 62.66 38.80Q62.70 38.59 62.79 38.40Q62.88 38.21 63.14 38.06L63.14 38.06Q63.70 37.77 63.84 37.64Q63.99 37.51 63.99 37.16L63.99 37.16L63.99 36.60Q63.99 36.31 64.13 36.17Q64.28 36.04 64.46 35.91Q64.63 35.78 64.78 35.56Q64.93 35.34 64.93 34.81L64.93 34.81Q64.93 34.43 64.87 34.07Q64.81 33.70 64.81 33.32L64.81 33.32Q64.81 32.94 64.94 32.62Q65.07 32.29 65.23 32Q65.39 31.71 65.53 31.43Q65.66 31.15 65.66 30.83ZM101.63 38.06L101.63 38.06Q101.63 38.86 101.39 39.41Q101.14 39.97 100.74 40.41Q100.35 40.85 99.83 41.23Q99.32 41.61 98.79 42.05L98.79 42.05Q98.38 42.40 98.06 42.58Q97.74 42.75 97.43 42.87Q97.12 42.99 96.79 43.10Q96.45 43.22 96.01 43.43L96.01 43.43Q95.42 43.72 95.03 43.97Q94.63 44.22 94.24 44.42Q93.84 44.63 93.37 44.76Q92.90 44.89 92.20 44.98L92.20 44.98Q91.03 45.13 89.84 45.33Q88.66 45.54 87.48 45.54L87.48 45.54Q87.25 45.54 87.00 45.43Q86.75 45.33 86.43 45.23Q86.11 45.13 85.71 45.02Q85.32 44.92 84.76 44.92L84.76 44.92Q84.17 44.92 83.82 44.74Q83.47 44.57 83.19 44.33Q82.91 44.10 82.62 43.82Q82.33 43.54 81.86 43.34L81.86 43.34Q80.10 42.55 78.87 41.43Q77.64 40.32 76.76 38.94Q75.88 37.57 75.30 35.96Q74.71 34.34 74.30 32.59L74.30 32.59Q73.98 31.36 73.98 30.13L73.98 30.13Q73.98 28.51 74.74 27.14L74.74 27.14Q74.45 26.32 74.45 25.55L74.45 25.55Q74.45 25.00 74.77 23.90Q75.09 22.80 75.60 21.69Q76.12 20.57 76.72 19.68Q77.32 18.79 77.85 18.58L77.85 18.58Q78.26 18.44 78.42 18.33Q78.58 18.23 78.58 17.76L78.58 17.76Q78.58 17.41 78.86 17.18Q79.13 16.94 79.53 16.79Q79.93 16.65 80.32 16.53Q80.72 16.41 80.98 16.30L80.98 16.30Q82.06 15.77 83.05 15.40Q84.03 15.04 85.01 14.79Q85.99 14.54 87.04 14.42Q88.10 14.30 89.30 14.30L89.30 14.30Q89.95 14.30 90.56 14.48Q91.18 14.66 91.75 14.93Q92.32 15.21 92.88 15.55Q93.43 15.89 93.96 16.21L93.96 16.21L93.93 16.21Q94.37 16.27 94.76 16.46Q95.16 16.65 95.60 16.71L95.60 16.71Q96.01 17.21 96.67 17.66Q97.33 18.11 97.96 18.61Q98.59 19.11 99.04 19.68Q99.50 20.25 99.50 20.98L99.50 20.98Q99.50 21.10 99.48 21.22Q99.47 21.34 99.44 21.48L99.44 21.48L99.55 21.34Q99.67 21.42 99.77 21.63Q99.88 21.83 99.96 22.08Q100.05 22.33 100.11 22.58Q100.17 22.83 100.20 22.98L100.20 22.98Q100.43 23.36 100.83 23.59Q101.22 23.83 101.46 24.24L101.46 24.24Q101.17 24.53 101.17 25.00L101.17 25.00Q101.17 25.50 101.37 25.98Q101.58 26.46 101.58 26.96L101.58 26.96Q101.58 27.55 101.52 28.09Q101.46 28.63 101.46 29.22L101.46 29.22Q101.46 29.66 101.12 29.89Q100.79 30.13 100.39 30.30Q99.99 30.48 99.67 30.65Q99.35 30.83 99.35 31.15L99.35 31.15Q99.35 31.38 99.07 31.37Q98.79 31.36 98.62 31.36L98.62 31.36Q97.33 31.36 96.05 31.03Q94.78 30.71 93.52 30.71L93.52 30.71Q92.14 30.71 90.79 30.90Q89.45 31.09 88.07 31.09L88.07 31.09Q87.04 31.09 86.03 31.03Q85.02 30.97 84.00 30.97L84.00 30.97Q83.73 30.97 83.00 31.08Q82.27 31.18 81.46 31.34Q80.66 31.50 79.93 31.72Q79.19 31.94 78.90 32.15L78.90 32.15Q78.87 32.29 78.87 32.56L78.87 32.56Q78.87 33.93 79.68 35.40Q80.48 36.86 81.80 38.06Q83.12 39.27 84.76 40.06Q86.40 40.85 88.07 40.85L88.07 40.85Q89.04 40.85 89.99 40.92Q90.94 40.99 91.85 41.35L91.85 41.35Q92.64 40.96 93.30 40.47Q93.96 39.97 94.57 39.41Q95.19 38.86 95.78 38.27Q96.36 37.68 96.98 37.10L96.98 37.10Q97.09 36.98 97.55 36.88Q98.00 36.78 98.53 36.70Q99.06 36.63 99.54 36.58Q100.02 36.54 100.20 36.54L100.20 36.54Q100.87 36.54 101.46 36.75L101.46 36.75Q101.63 37.42 101.63 38.06ZM97.24 26.17L97.24 26.17Q97.24 25.73 97.09 25.32Q96.95 24.91 96.86 24.47L96.86 24.47Q96.71 23.65 96.71 22.87Q96.71 22.10 96.48 21.31L96.48 21.31L96.45 21.31Q96.45 21.48 96.33 21.64Q96.21 21.80 96.01 21.80L96.01 21.80Q95.66 21.80 95.34 21.63Q95.01 21.45 94.78 21.19L94.78 21.19Q93.67 20.69 92.77 20.25Q91.88 19.81 90.99 19.48Q90.09 19.14 89.08 18.95Q88.07 18.76 86.75 18.76L86.75 18.76Q86.63 18.76 86.53 18.77Q86.43 18.79 86.34 18.88L86.34 18.88L86.49 19.20L86.25 19.26Q85.46 19.40 84.95 19.53Q84.44 19.67 84.03 19.90Q83.62 20.13 83.22 20.47Q82.83 20.81 82.21 21.34L82.21 21.34Q81.92 21.60 81.58 21.73Q81.24 21.86 80.91 21.97Q80.57 22.07 80.26 22.19Q79.96 22.30 79.75 22.57L79.75 22.57Q79.54 23.30 79.15 23.99Q78.75 24.68 78.75 25.44L78.75 25.44Q78.75 25.88 79.12 26.21Q79.49 26.55 80.06 26.79Q80.63 27.02 81.32 27.20Q82.01 27.37 82.68 27.46Q83.35 27.55 83.92 27.59Q84.50 27.63 84.82 27.63L84.82 27.63Q85.93 27.63 87.02 27.42Q88.10 27.20 89.21 27.20L89.21 27.20Q90.36 27.20 91.50 27.30Q92.64 27.40 93.78 27.40L93.78 27.40Q94.08 27.40 94.66 27.37Q95.25 27.34 95.82 27.21Q96.39 27.08 96.82 26.83Q97.24 26.58 97.24 26.17ZM134.54 38.15L134.54 38.15Q134.54 38.45 134.32 38.56Q134.10 38.68 133.89 38.80L133.89 38.80Q133.57 38.97 133.36 39.21Q133.16 39.44 132.98 39.72Q132.81 40.00 132.66 40.31Q132.51 40.61 132.34 40.88L132.34 40.88Q131.93 41.49 131.21 41.73Q130.49 41.96 129.79 42.17Q129.09 42.37 128.51 42.74Q127.94 43.10 127.80 43.98L127.80 43.98L127.65 43.98Q126.98 43.98 126.41 44.22Q125.83 44.45 125.26 44.73Q124.69 45.01 124.11 45.24Q123.52 45.48 122.88 45.48L122.88 45.48Q122.52 45.48 122.22 45.36Q121.91 45.24 121.60 45.10Q121.29 44.95 120.99 44.83Q120.68 44.71 120.33 44.71L120.33 44.71Q119.86 44.71 119.42 44.77Q118.98 44.83 118.54 44.83L118.54 44.83Q118.22 44.83 117.78 44.76Q117.34 44.69 116.96 44.51Q116.58 44.33 116.31 44.06Q116.05 43.78 116.05 43.37L116.05 43.37Q116.05 43.22 116.08 43.13L116.08 43.13Q115.93 43.28 115.76 43.32Q115.58 43.37 115.40 43.37L115.40 43.37Q114.53 43.37 113.78 42.97Q113.03 42.58 112.37 42.00Q111.71 41.43 111.14 40.77Q110.57 40.12 110.01 39.56L110.01 39.56Q109.34 38.88 108.97 38.01Q108.61 37.13 108.11 36.31L108.11 36.31Q107.05 34.61 106.82 32.86Q106.59 31.12 106.59 29.22L106.59 29.22Q106.59 28.87 106.63 28.41Q106.67 27.96 106.82 27.75L106.82 27.75Q106.94 27.61 107.11 27.53Q107.29 27.46 107.45 27.39Q107.61 27.31 107.73 27.22Q107.85 27.14 107.85 26.96L107.85 26.96Q107.85 26.55 107.64 26.21Q107.44 25.88 107.44 25.47L107.44 25.47Q107.44 25.17 107.57 24.97Q107.70 24.76 107.85 24.53L107.85 24.53Q108.08 24.15 108.27 23.25Q108.46 22.36 108.68 21.47Q108.90 20.57 109.24 19.89Q109.57 19.20 110.13 19.20L110.13 19.20Q110.54 19.20 110.89 19.31Q111.24 19.43 111.65 19.43L111.65 19.43Q112.01 19.43 112.33 19.34L112.33 19.34L112.36 19.11Q112.36 18.76 112.14 18.67Q111.92 18.58 111.67 18.55Q111.42 18.52 111.20 18.48Q110.98 18.44 110.98 18.17L110.98 18.17Q110.98 18.00 111.14 17.86Q111.30 17.73 111.52 17.63Q111.74 17.53 111.98 17.44Q112.21 17.35 112.33 17.26L112.33 17.26Q112.62 17.03 112.74 16.81Q112.86 16.59 112.96 16.38Q113.06 16.18 113.27 16.03Q113.47 15.89 113.94 15.77L113.94 15.77Q114.35 15.68 114.76 15.67Q115.17 15.65 115.58 15.64Q115.99 15.62 116.40 15.59Q116.81 15.56 117.22 15.45L117.22 15.45L116.93 15.15Q117.07 14.89 117.34 14.73Q117.60 14.57 117.94 14.48Q118.28 14.39 118.61 14.38Q118.95 14.36 119.21 14.36L119.21 14.36Q120.24 14.36 121.21 14.63Q122.17 14.89 123.14 14.89L123.14 14.89Q123.55 14.89 123.94 14.79Q124.34 14.69 124.75 14.69L124.75 14.69Q125.37 14.69 125.91 14.99Q126.45 15.30 126.95 15.56L126.95 15.56L127.06 15.59Q127.33 15.59 127.50 15.39Q127.68 15.18 127.86 15.18L127.86 15.18Q128.00 15.18 128.09 15.32Q128.18 15.45 128.27 15.56L128.27 15.56Q128.50 15.83 128.90 15.90Q129.29 15.97 129.44 16.21L129.44 16.21Q129.64 16.56 129.91 16.69Q130.17 16.82 130.43 16.88Q130.70 16.94 130.99 17Q131.28 17.06 131.55 17.26L131.55 17.26L131.55 18.08Q132.13 18.85 132.65 19.24Q133.16 19.64 133.55 20.06Q133.95 20.49 134.17 21.12Q134.39 21.75 134.39 22.95L134.39 22.95Q134.39 24.24 134.17 25.20Q133.95 26.17 133.41 26.83Q132.87 27.49 131.96 27.83Q131.05 28.16 129.70 28.13L129.70 28.13L127.80 28.10Q127.56 27.72 127.12 27.03Q126.68 26.35 126.24 25.60Q125.80 24.85 125.47 24.19Q125.13 23.53 125.13 23.18L125.13 23.18Q125.13 22.74 125.20 22.30Q125.28 21.86 125.28 21.42L125.28 21.42Q125.07 20.87 124.74 20.52Q124.40 20.16 123.96 19.97Q123.52 19.78 123.01 19.72Q122.49 19.67 121.97 19.67L121.97 19.67Q121.21 19.67 120.46 19.78Q119.71 19.90 119.01 20.16L119.01 20.16Q119.01 19.90 118.88 19.68Q118.74 19.46 118.42 19.46L118.42 19.46Q118.01 19.46 117.43 19.77Q116.84 20.08 116.24 20.52Q115.64 20.96 115.14 21.44Q114.64 21.92 114.41 22.27L114.41 22.27Q114.20 22.57 113.85 23.18Q113.50 23.80 113.10 24.41Q112.71 25.03 112.28 25.51Q111.86 25.99 111.51 26.02L111.51 26.02Q111.60 26.43 111.74 27.12Q111.89 27.81 112.01 28.57Q112.12 29.33 112.21 30.02Q112.30 30.71 112.30 31.09L112.30 31.09Q112.30 31.77 112.53 32.35Q112.77 32.94 112.77 33.61L112.77 33.61Q112.77 34.11 112.64 34.61Q112.50 35.11 112.50 35.60L112.50 35.60Q112.50 36.04 112.64 36.19Q112.77 36.34 113.18 36.45L113.18 36.45Q113.65 36.60 113.84 36.95Q114.03 37.30 114.16 37.67Q114.29 38.04 114.48 38.30Q114.67 38.56 115.17 38.56L115.17 38.56L115.32 38.56L115.67 38.53Q116.02 39.00 116.09 39.59Q116.17 40.17 116.52 40.64L116.52 40.64Q116.72 40.61 116.78 40.47Q116.84 40.32 116.90 40.17Q116.96 40.03 117.09 39.91Q117.22 39.79 117.57 39.79L117.57 39.79Q117.89 39.79 118.10 39.97Q118.30 40.14 118.48 40.36Q118.66 40.58 118.85 40.76Q119.04 40.94 119.33 40.94L119.33 40.94Q119.83 40.94 120.43 40.75Q121.03 40.55 121.66 40.31Q122.29 40.06 122.90 39.79Q123.52 39.53 124.02 39.38L124.02 39.38Q125.22 39.03 126.27 38.36Q127.33 37.68 127.97 36.57L127.97 36.57Q128.29 35.98 128.75 35.49Q129.20 34.99 129.47 34.37L129.47 34.37Q129.76 34.37 130.05 34.34Q130.35 34.31 130.67 34.31L130.67 34.31Q130.76 34.31 130.95 34.31Q131.14 34.31 131.34 34.34Q131.55 34.37 131.71 34.43Q131.87 34.49 131.87 34.58L131.87 34.58Q131.87 34.84 131.68 35.00Q131.49 35.16 131.27 35.30Q131.05 35.43 130.87 35.59Q130.70 35.75 130.70 36.04L130.70 36.04L131.02 36.01Q131.37 36.01 131.96 36.19Q132.54 36.37 133.11 36.67Q133.69 36.98 134.11 37.36Q134.54 37.74 134.54 38.15ZM132.43 39.79L132.43 39.79Q132.43 39.62 132.29 39.49Q132.16 39.35 131.99 39.35L131.99 39.35Q131.78 39.35 131.63 39.62Q131.49 39.88 131.49 40.03L131.49 40.03Q131.49 40.20 131.69 40.19Q131.90 40.17 131.96 40.17L131.96 40.17Q132.10 40.17 132.26 40.10Q132.43 40.03 132.43 39.79ZM156.92 7.42L156.92 7.42Q156.92 8.27 156.64 9.16Q156.36 10.06 155.83 10.80Q155.31 11.55 154.56 12.03Q153.81 12.52 152.90 12.52L152.90 12.52Q152.29 12.52 151.38 12.33Q150.47 12.14 149.64 11.77Q148.80 11.40 148.20 10.82Q147.60 10.23 147.60 9.44L147.60 9.44Q147.60 8.74 147.76 7.99Q147.92 7.24 147.95 6.48L147.95 6.48Q148.25 6.34 148.54 5.96Q148.83 5.57 149.11 5.18Q149.39 4.78 149.67 4.46Q149.95 4.14 150.24 4.11L150.24 4.11L150.09 4.17Q150.50 3.99 150.96 3.88Q151.41 3.76 151.88 3.76L151.88 3.76Q152.49 3.76 153.36 4.07Q154.22 4.37 155.01 4.87Q155.80 5.37 156.36 6.04Q156.92 6.72 156.92 7.42ZM171.10 43.07L171.10 43.07Q171.10 43.57 170.91 44.01Q170.72 44.45 170.38 44.79Q170.04 45.13 169.60 45.33Q169.16 45.54 168.64 45.54L168.64 45.54Q168.43 45.54 168.37 45.48Q168.31 45.42 168.17 45.27L168.17 45.27Q167.76 44.83 167.17 44.76Q166.59 44.69 165.96 44.61Q165.33 44.54 164.75 44.29Q164.18 44.04 163.83 43.28L163.83 43.28Q163.60 42.78 163.33 42.63Q163.07 42.49 162.51 42.49L162.51 42.49Q161.22 42.49 160.05 42.90Q158.88 43.31 157.74 43.82Q156.60 44.33 155.41 44.74Q154.22 45.15 152.96 45.15L152.96 45.15Q152.26 45.15 151.57 45.02Q150.88 44.89 150.24 44.60L150.24 44.60Q150.09 44.74 149.90 44.80Q149.71 44.86 149.48 44.86L149.48 44.86Q149.27 44.86 149.08 44.83Q148.89 44.80 148.74 44.80L148.74 44.80Q148.71 44.80 148.42 44.91Q148.13 45.01 148.07 45.04L148.07 45.04L148.25 45.33Q148.07 45.59 147.46 45.84Q146.84 46.09 146.12 46.27Q145.40 46.44 144.73 46.56Q144.06 46.68 143.71 46.68L143.71 46.68Q142.77 46.68 142.17 46.37Q141.57 46.06 140.98 45.30L140.98 45.30Q140.78 45.01 140.47 44.71Q140.16 44.42 139.88 44.11Q139.60 43.81 139.41 43.46Q139.22 43.10 139.22 42.72L139.22 42.72Q139.22 42.28 139.69 41.99Q140.16 41.70 140.80 41.51Q141.45 41.32 142.09 41.24Q142.74 41.17 143.09 41.17L143.09 41.17Q143.79 41.17 144.50 41.36Q145.20 41.55 145.90 41.55L145.90 41.55Q146.55 41.55 147.13 41.38Q147.72 41.20 148.36 41.20L148.36 41.20Q148.92 41.20 149.46 41.27Q150.00 41.35 150.56 41.35L150.56 41.35Q151.26 41.35 151.92 41.10Q152.58 40.85 153.17 40.44L153.17 40.44Q153.40 39.00 153.50 37.57Q153.61 36.13 153.61 34.67L153.61 34.67Q153.61 33.23 153.37 31.79Q153.14 30.36 153.14 28.95L153.14 28.95Q153.14 28.84 153.20 28.82Q153.26 28.81 153.33 28.79Q153.40 28.78 153.46 28.73Q153.52 28.69 153.52 28.51L153.52 28.51Q153.52 27.90 153.34 27.31Q153.17 26.73 153.17 26.11L153.17 26.11Q153.17 25.35 153.37 24.62Q153.58 23.88 153.58 23.12L153.58 23.12Q153.58 22.60 153.34 22.07Q153.11 21.54 152.73 21.13Q152.35 20.72 151.85 20.47Q151.35 20.22 150.79 20.22L150.79 20.22Q150.18 20.22 149.58 20.37Q148.98 20.52 148.33 20.71Q147.69 20.90 147.03 21.04Q146.37 21.19 145.64 21.19L145.64 21.19Q144.79 21.19 143.97 21.07Q143.15 20.96 142.30 20.81L142.30 20.81Q141.89 20.75 141.38 20.69Q140.86 20.63 140.39 20.49Q139.93 20.34 139.60 20.05Q139.28 19.75 139.28 19.20L139.28 19.20Q139.28 18.17 139.65 17.63Q140.01 17.09 140.56 16.82Q141.10 16.56 141.77 16.50Q142.45 16.44 143.06 16.38L143.06 16.38Q144.17 16.30 145.27 16.22Q146.37 16.15 147.48 16.15L147.48 16.15Q148.86 16.15 150.19 16.31Q151.53 16.47 152.90 16.47L152.90 16.47Q153.87 16.47 154.75 16.77Q155.63 17.06 156.29 17.66Q156.95 18.26 157.33 19.17Q157.71 20.08 157.71 21.28L157.71 21.28Q157.71 22.07 157.37 22.82Q157.04 23.56 156.51 24.15L156.51 24.15Q156.71 24.53 156.92 24.66Q157.12 24.79 157.30 24.90Q157.47 25.00 157.59 25.16Q157.71 25.32 157.71 25.76L157.71 25.76Q157.71 25.99 157.78 26.30Q157.86 26.61 158.18 26.64L158.18 26.64Q158.18 28.22 158.15 29.76Q158.12 31.30 158.12 32.85L158.12 32.85Q158.12 34.17 158.13 35.49Q158.15 36.80 158.35 38.12L158.35 38.12Q158.47 38.94 158.82 39.38Q159.17 39.82 160.08 39.82L160.08 39.82Q161.40 39.82 162.69 39.54Q163.98 39.27 165.30 39.27L165.30 39.27Q166.06 39.27 166.75 39.65Q167.44 40.03 168.07 40.47Q168.70 40.91 169.28 41.29Q169.87 41.67 170.39 41.67L170.39 41.67Q170.63 41.67 170.78 41.83Q170.92 41.99 171.00 42.21Q171.07 42.43 171.08 42.66Q171.10 42.90 171.10 43.07ZM204.79 39.06L204.79 39.06Q204.79 39.56 204.61 40.00Q204.44 40.44 204.29 40.91L204.29 40.91Q204.17 41.32 204.13 41.58Q204.09 41.84 204.00 42.03Q203.91 42.22 203.72 42.39Q203.53 42.55 203.12 42.75L203.12 42.75Q202.24 43.22 201.26 43.70Q200.28 44.19 199.28 44.19L199.28 44.19Q198.43 44.19 197.68 43.79Q196.94 43.40 196.31 42.91Q195.68 42.43 195.17 42.02Q194.65 41.61 194.30 41.61L194.30 41.61Q193.92 41.61 193.64 41.81Q193.36 42.02 193.08 42.25Q192.81 42.49 192.47 42.69Q192.13 42.90 191.63 42.90L191.63 42.90Q191.22 42.90 190.79 43.04Q190.35 43.19 189.91 43.38Q189.47 43.57 189.01 43.76Q188.56 43.95 188.18 44.07L188.18 44.07Q186.86 44.42 185.53 44.48Q184.19 44.54 182.85 44.54L182.85 44.54Q182.49 44.54 181.76 44.52Q181.03 44.51 180.28 44.38Q179.54 44.25 178.96 43.95Q178.39 43.66 178.39 43.13L178.39 43.13Q178.39 43.02 178.42 42.93L178.42 42.93Q178.22 43.16 177.95 43.31Q177.69 43.46 177.37 43.46L177.37 43.46Q176.90 43.46 176.22 42.81Q175.55 42.17 174.94 41.32Q174.32 40.47 173.88 39.63Q173.44 38.80 173.44 38.39L173.44 38.39Q173.44 38.06 173.63 37.80Q173.82 37.54 173.82 37.21L173.82 37.21Q173.82 36.80 173.72 36.44Q173.62 36.07 173.62 35.66L173.62 35.66Q173.62 35.13 173.82 34.53Q174.03 33.93 174.32 33.33Q174.61 32.73 174.94 32.16Q175.26 31.59 175.52 31.09L175.52 31.09Q175.81 30.51 176.34 30.15Q176.87 29.80 177.46 29.54Q178.04 29.28 178.63 29.01Q179.21 28.75 179.65 28.31L179.65 28.31Q180.09 28.81 180.79 28.81L180.79 28.81Q181.53 28.81 182.23 28.59Q182.93 28.37 183.67 28.37L183.67 28.37Q184.25 28.37 184.79 28.48Q185.34 28.60 185.92 28.60L185.92 28.60Q186.57 28.60 186.87 28.44Q187.18 28.28 187.65 27.87L187.65 27.87Q188.12 27.46 188.84 27.24Q189.55 27.02 190.33 26.89Q191.11 26.76 191.88 26.61Q192.66 26.46 193.28 26.18Q193.89 25.91 194.27 25.42Q194.65 24.94 194.65 24.09L194.65 24.09Q194.65 23.15 194.11 22.11Q193.57 21.07 192.72 20.21Q191.87 19.34 190.84 18.79Q189.82 18.23 188.88 18.23L188.88 18.23Q188.76 18.23 188.65 18.26Q188.53 18.29 188.44 18.29L188.44 18.29Q187.74 18.41 186.86 18.45Q185.98 18.49 185.22 18.71Q184.46 18.93 183.93 19.45Q183.40 19.96 183.40 20.96L183.40 20.96Q183.40 21.54 183.50 22.11Q183.61 22.68 183.61 23.27L183.61 23.27Q183.61 24.15 183.18 24.73Q182.76 25.32 182.10 25.67Q181.44 26.02 180.65 26.16Q179.86 26.29 179.13 26.29L179.13 26.29Q178.25 26.29 177.60 26.05Q176.96 25.82 176.55 24.97L176.55 24.97Q176.22 24.35 175.86 23.64Q175.49 22.92 175.49 22.19L175.49 22.19Q175.49 21.39 175.77 20.71Q176.05 20.02 176.40 19.36Q176.75 18.70 177.09 18.04Q177.43 17.38 177.57 16.62L177.57 16.62Q177.78 16.50 178.14 16.38Q178.51 16.27 178.93 16.15Q179.36 16.03 179.75 15.93Q180.15 15.83 180.41 15.74L180.41 15.74Q181.12 15.54 181.78 15.26Q182.44 14.98 183.12 14.74Q183.81 14.51 184.50 14.33Q185.19 14.16 185.92 14.13L185.92 14.13L186.83 14.10Q188.09 14.10 189.41 14.32Q190.73 14.54 191.99 15.01Q193.25 15.48 194.37 16.17Q195.50 16.85 196.38 17.79L196.38 17.79Q197.03 18.49 197.45 19.45Q197.88 20.40 198.12 21.45Q198.37 22.51 198.48 23.58Q198.58 24.65 198.58 25.55L198.58 25.55Q198.58 26.79 198.50 27.97Q198.43 29.16 198.43 30.39L198.43 30.39Q198.43 31.56 198.56 32.72Q198.70 33.88 198.87 35.03Q199.05 36.19 199.18 37.35Q199.31 38.50 199.31 39.65L199.31 39.65Q199.37 40.35 199.50 40.51Q199.63 40.67 199.78 40.67L199.78 40.67Q200.42 40.67 200.82 40.28Q201.21 39.88 201.54 39.40Q201.86 38.91 202.24 38.50Q202.62 38.09 203.21 38.09L203.21 38.09Q203.47 38.09 203.75 38.12Q204.03 38.15 204.26 38.25Q204.50 38.36 204.64 38.55Q204.79 38.74 204.79 39.06ZM195.15 31.77L195.15 31.77Q195.15 31.59 195.14 31.15Q195.12 30.71 195.06 30.26Q195.00 29.80 194.87 29.45Q194.74 29.10 194.48 29.10L194.48 29.10Q194.42 29.10 194.33 29.14Q194.24 29.19 194.18 29.19L194.18 29.19Q193.07 29.80 192.28 30.20Q191.49 30.59 190.71 30.84Q189.94 31.09 189.06 31.18Q188.18 31.27 186.86 31.27L186.86 31.27Q186.68 31.27 185.89 31.41Q185.10 31.56 184.16 31.75Q183.23 31.94 182.41 32.13Q181.59 32.32 181.38 32.38L181.38 32.38Q181 32.53 180.84 32.67Q180.68 32.82 180.59 33.00Q180.50 33.17 180.41 33.36Q180.33 33.55 180.09 33.76L180.09 33.76Q179.80 33.99 179.46 34.14Q179.13 34.29 178.83 34.58L178.83 34.58Q178.39 35.02 178.01 35.74Q177.63 36.45 177.63 37.10L177.63 37.10Q177.63 37.89 178.04 38.50Q178.45 39.12 179.13 39.56Q179.80 40.00 180.65 40.32Q181.50 40.64 182.36 40.82Q183.23 40.99 184.03 41.08Q184.84 41.17 185.42 41.17L185.42 41.17Q186.13 41.17 187.09 41.07Q188.06 40.96 189.03 40.75Q189.99 40.53 190.84 40.14Q191.69 39.76 192.19 39.18L192.19 39.18Q192.40 38.94 192.48 38.75Q192.57 38.56 192.67 38.37Q192.78 38.18 192.91 37.98Q193.04 37.77 193.33 37.54L193.33 37.54Q194.01 36.98 194.37 36.31Q194.74 35.63 194.92 34.90Q195.09 34.17 195.12 33.38Q195.15 32.59 195.15 31.77ZM237.34 42.66L237.34 42.66Q237.34 43.69 236.65 44.29Q235.96 44.89 234.99 45.20Q234.03 45.51 232.99 45.59Q231.95 45.68 231.21 45.68L231.21 45.68Q230.25 45.68 229.62 45.51Q228.99 45.33 228.52 45.14Q228.05 44.95 227.70 44.77Q227.35 44.60 226.97 44.60L226.97 44.60Q226.47 44.60 225.99 44.77Q225.50 44.95 225.00 44.95L225.00 44.95Q224.65 44.95 224.43 44.83Q224.21 44.71 224.07 44.55Q223.92 44.39 223.79 44.28Q223.66 44.16 223.48 44.16L223.48 44.16Q223.28 44.16 223.16 44.32Q223.04 44.48 222.89 44.69Q222.75 44.89 222.47 45.05Q222.19 45.21 221.66 45.21L221.66 45.21Q221.05 45.21 220.46 45.08Q219.88 44.95 219.26 44.95L219.26 44.95Q218.65 44.95 218.05 45.17Q217.45 45.39 216.92 45.39L216.92 45.39Q216.68 45.39 216.57 45.23Q216.45 45.07 216.30 45.07L216.30 45.07Q215.80 45.07 215.26 45.30Q214.72 45.54 214.16 45.54L214.16 45.54Q213.87 45.54 213.59 45.46Q213.31 45.39 213.02 45.39L213.02 45.39Q212.52 45.39 212.03 45.62Q211.53 45.86 210.79 45.86L210.79 45.86Q210.53 45.86 209.64 45.78Q208.74 45.71 207.81 45.56Q206.87 45.42 206.12 45.20Q205.38 44.98 205.38 44.71L205.38 44.71Q205.38 43.95 205.65 43.19Q205.93 42.43 205.93 41.73L205.93 41.73L205.93 41.67Q205.55 41.67 205.49 41.26L205.49 41.26Q205.55 41.14 205.68 41.07Q205.81 40.99 205.96 40.95Q206.11 40.91 206.22 40.82Q206.34 40.73 206.34 40.55L206.34 40.55L206.34 40.44Q207.51 40.55 208.64 40.58Q209.77 40.61 211 40.61L211 40.61Q212.14 40.61 213.53 40.54Q214.93 40.47 216.11 40.12Q217.30 39.76 218.10 39.05Q218.91 38.33 218.91 37.04L218.91 37.04L218.91 36.83L218.91 36.37Q218.76 33.14 218.60 30.02Q218.44 26.90 218.44 23.68L218.44 23.68Q218.44 22.83 218.31 22.02Q218.18 21.22 218.18 20.40L218.18 20.40Q218.18 19.37 218.54 18.35Q218.91 17.32 219.70 16.62L219.70 16.62Q219.67 16.44 219.55 16.37Q219.44 16.30 219.26 16.27Q219.09 16.24 218.92 16.21Q218.76 16.18 218.65 16.12L218.65 16.12Q218.47 16.03 218.41 15.71Q218.35 15.39 218.31 15.01Q218.27 14.63 218.22 14.26Q218.18 13.89 218.03 13.69L218.03 13.69Q218.12 12.84 218.32 12.02Q218.53 11.20 218.53 10.35L218.53 10.35Q218.53 9.73 218.37 9.38Q218.21 9.03 218.00 8.80Q217.80 8.56 217.64 8.37Q217.47 8.18 217.47 7.89L217.47 7.89Q217.47 7.65 217.62 7.45L217.62 7.45L217.39 7.42Q217.09 7.42 216.95 7.57Q216.80 7.71 216.67 7.89Q216.54 8.06 216.39 8.21Q216.24 8.36 215.98 8.36L215.98 8.36Q215.78 8.36 215.51 8.27L215.51 8.27Q215.01 8.42 214.57 8.42L214.57 8.42Q213.55 8.42 212.54 8.14Q211.53 7.86 210.50 7.86L210.50 7.86Q209.95 7.86 209.42 7.90Q208.89 7.95 208.36 7.95L208.36 7.95Q207.60 7.95 206.84 7.77Q206.08 7.60 205.49 7.01L205.49 7.01L205.49 6.66Q205.49 5.11 206.53 4.31Q207.57 3.52 209.07 3.52L209.07 3.52Q210.09 3.52 211.09 3.79Q212.08 4.05 213.11 4.05L213.11 4.05Q213.67 4.05 214.28 3.93Q214.90 3.82 215.54 3.67Q216.19 3.52 216.84 3.41Q217.50 3.29 218.15 3.29L218.15 3.29Q219.14 3.29 220.02 3.71Q220.90 4.14 221.78 4.52L221.78 4.52L221.75 4.75Q221.75 5.02 221.88 5.24Q222.02 5.46 222.19 5.68Q222.37 5.90 222.50 6.12Q222.63 6.34 222.63 6.60L222.63 6.60Q222.63 6.86 222.56 7.11Q222.48 7.36 222.48 7.63L222.48 7.63Q222.48 8.27 222.73 8.86Q222.98 9.44 222.98 10.12L222.98 10.12Q222.98 10.82 222.82 11.49Q222.66 12.17 222.66 12.87L222.66 12.87Q222.66 13.72 222.87 14.57Q223.07 15.42 223.07 16.27L223.07 16.27Q223.07 16.97 222.85 17.64Q222.63 18.32 222.63 18.99L222.63 18.99Q222.63 19.49 222.76 19.97Q222.89 20.46 223.07 20.93Q223.25 21.39 223.38 21.88Q223.51 22.36 223.51 22.89L223.51 22.89L223.51 23.47Q223.51 23.94 223.44 24.37Q223.36 24.79 223.04 25.17L223.04 25.17Q223.19 25.73 223.35 26.38Q223.51 27.02 223.51 27.61L223.51 27.61Q223.51 27.90 223.47 28.24Q223.42 28.57 223.32 28.91Q223.22 29.25 223.04 29.52Q222.87 29.80 222.63 29.98L222.63 29.98Q223.01 31.09 223.13 32.23Q223.25 33.38 223.30 34.52L223.30 34.52Q223.33 34.87 223.42 35.43Q223.51 35.98 223.60 36.53Q223.69 37.07 223.76 37.52Q223.83 37.98 223.83 38.15L223.83 38.15Q223.83 38.65 223.66 39.12Q223.48 39.59 223.48 40.09L223.48 40.09Q223.48 40.47 223.66 40.89Q223.83 41.32 224.30 41.32L224.30 41.32Q224.65 41.32 224.90 41.16Q225.15 40.99 225.44 40.80Q225.74 40.61 226.13 40.45Q226.53 40.29 227.20 40.29L227.20 40.29Q227.96 40.29 228.64 40.50Q229.31 40.70 230.07 40.70L230.07 40.70Q230.63 40.70 231.20 40.60Q231.77 40.50 232.31 40.36Q232.86 40.23 233.41 40.12Q233.97 40.00 234.55 40.00L234.55 40.00Q235.73 40.00 236.53 40.67Q237.34 41.35 237.34 42.66ZM220.52 6.19L220.52 6.19Q220.40 6.07 220.24 5.96Q220.08 5.84 219.88 5.84L219.88 5.84Q219.73 5.84 219.63 5.97Q219.53 6.10 219.53 6.25L219.53 6.25L219.67 6.60Q219.79 6.66 219.85 6.66L219.85 6.66Q220.08 6.66 220.24 6.50Q220.40 6.34 220.52 6.19ZM222.28 14.33L222.28 14.33Q222.28 14.10 222.15 13.85Q222.02 13.60 221.72 13.60L221.72 13.60Q221.63 13.60 221.53 13.63Q221.43 13.66 221.37 13.69L221.37 13.69L221.37 14.95Q221.61 15.07 221.72 15.07L221.72 15.07Q222.02 15.07 222.15 14.82Q222.28 14.57 222.28 14.33ZM290.31 14.95L290.31 14.95Q290.31 15.07 290.16 15.42Q290.01 15.77 289.82 16.18Q289.63 16.59 289.43 16.94Q289.22 17.29 289.11 17.41L289.11 17.41L289.16 17.44Q289.11 17.44 289.05 17.47L289.05 17.47L288.90 17.47Q288.78 17.50 288.65 17.50Q288.52 17.50 288.37 17.50L288.37 17.50L288.49 17.47Q287.82 17.44 287.27 17.22Q286.73 17 286.38 16.38L286.38 16.38Q286.32 16.27 286.21 15.96Q286.09 15.65 285.97 15.30Q285.85 14.95 285.78 14.64Q285.71 14.33 285.71 14.19L285.71 14.19Q285.71 13.95 285.75 13.69Q285.79 13.43 285.79 13.19L285.79 13.19Q285.79 12.28 285.62 11.40Q285.44 10.53 285.44 9.62L285.44 9.62Q285.44 9.03 285.59 8.47Q285.74 7.92 286.12 7.45L286.12 7.45L285.97 7.45Q285.62 7.45 285.41 7.23Q285.21 7.01 284.74 7.01L284.74 7.01Q283.63 7.01 282.57 7.27Q281.52 7.54 280.35 7.54L280.35 7.54Q279.88 7.54 279.41 7.52Q278.94 7.51 278.44 7.51L278.44 7.51Q277.53 7.51 276.65 7.71Q275.78 7.92 274.96 7.92L274.96 7.92Q274.87 7.92 274.87 7.89L274.87 7.89Q274.87 7.83 275.07 7.73Q275.28 7.63 275.28 7.57L275.28 7.57Q275.28 7.45 275.09 7.45Q274.90 7.45 274.84 7.45L274.84 7.45Q274.60 7.45 274.44 7.68Q274.28 7.92 273.96 8.01L273.96 8.01Q273.52 8.12 273.02 8.12Q272.52 8.12 272.05 8.12L272.05 8.12Q271.76 8.12 271.21 8.09Q270.65 8.06 270.09 7.96Q269.54 7.86 269.08 7.64Q268.63 7.42 268.57 7.01L268.57 7.01Q268.25 7.10 268.14 7.32Q268.04 7.54 267.97 7.77Q267.89 8.01 267.75 8.20Q267.60 8.39 267.16 8.42L267.16 8.42Q266.34 8.47 266.11 8.94Q265.87 9.41 265.87 10.00L265.87 10.00Q265.87 10.32 265.90 10.64Q265.93 10.96 265.93 11.29L265.93 11.29Q265.93 12.46 265.89 13.62Q265.84 14.77 265.84 15.95L265.84 15.95Q265.84 16.44 265.86 17.28Q265.87 18.11 265.98 18.92Q266.08 19.72 266.28 20.35Q266.49 20.98 266.87 21.07L266.87 21.07Q267.10 21.13 267.37 21.15Q267.63 21.16 267.89 21.16L267.89 21.16Q268.92 21.16 269.90 20.93Q270.88 20.69 271.91 20.69L271.91 20.69Q272.32 20.69 272.68 20.81Q273.05 20.93 273.43 20.93L273.43 20.93Q273.99 20.93 274.30 20.38Q274.60 19.84 274.74 19.12Q274.87 18.41 274.90 17.67Q274.93 16.94 274.93 16.59L274.93 16.59Q274.93 15.86 274.88 15.14Q274.84 14.42 274.84 13.69L274.84 13.69L275.01 13.69Q275.75 13.69 276.39 13.92Q277.04 14.16 277.74 14.16L277.74 14.16Q278.03 14.16 278.18 14.13L278.18 14.13Q278.18 14.71 278.38 15.30Q278.59 15.89 278.59 16.50L278.59 16.50Q278.59 17.26 277.77 17.47L277.77 17.47Q278.00 17.88 278.15 18.29Q278.29 18.70 278.29 19.14L278.29 19.14Q278.29 19.46 278.24 19.77Q278.18 20.08 278.18 20.40L278.18 20.40Q278.18 20.69 278.37 20.85Q278.56 21.01 278.56 21.22L278.56 21.22Q278.56 21.57 278.28 22.10Q278.00 22.63 278.00 23.18L278.00 23.18Q278.00 23.83 278.12 24.53Q278.24 25.23 278.38 25.99Q278.53 26.76 278.65 27.53Q278.76 28.31 278.76 29.10L278.76 29.10Q278.76 29.57 278.72 30.07Q278.68 30.56 278.51 31.02Q278.35 31.47 278.08 31.85Q277.80 32.23 277.36 32.50L277.36 32.50Q276.80 32.44 276.42 32.16Q276.04 31.88 275.79 31.49Q275.54 31.09 275.41 30.61Q275.28 30.13 275.22 29.63L275.22 29.63Q275.10 28.87 275.10 28.22Q275.10 27.58 274.82 27.12Q274.54 26.67 273.77 26.40Q272.99 26.14 271.35 26.14L271.35 26.14Q270.88 26.14 270.02 26.23Q269.15 26.32 268.30 26.54Q267.46 26.76 266.83 27.17Q266.20 27.58 266.20 28.19L266.20 28.19Q266.20 28.54 266.27 28.88Q266.34 29.22 266.34 29.57L266.34 29.57Q266.34 29.86 266.31 30.15Q266.28 30.45 266.28 30.77L266.28 30.77Q266.28 31.56 266.37 32.34Q266.46 33.11 266.46 33.90L266.46 33.90Q266.46 34.75 266.24 35.57Q266.02 36.39 266.02 37.24L266.02 37.24Q266.02 38.18 266.47 38.72Q266.93 39.27 267.63 39.54Q268.33 39.82 269.15 39.91Q269.97 40.00 270.68 40.00L270.68 40.00Q272.08 40.00 273.49 39.82Q274.90 39.65 276.30 39.65L276.30 39.65Q277.18 39.65 278.06 39.73Q278.94 39.82 279.82 39.82L279.82 39.82Q280.49 39.82 281.31 39.78Q282.13 39.73 282.88 39.50Q283.63 39.27 284.17 38.81Q284.71 38.36 284.86 37.51L284.86 37.51Q284.89 37.27 285.02 37.17Q285.15 37.07 285.31 37.00Q285.47 36.92 285.59 36.83Q285.71 36.75 285.71 36.54L285.71 36.54Q285.71 36.31 285.53 36.00Q285.36 35.69 285.30 35.43L285.30 35.43Q285.18 34.87 285.17 34.30Q285.15 33.73 285.15 33.17L285.15 33.17Q285.15 32.29 285.43 31.63Q285.71 30.97 285.71 30.18L285.71 30.18Q285.71 29.95 285.69 29.74Q285.68 29.54 285.68 29.30L285.68 29.30Q285.68 29.13 285.94 28.95Q286.21 28.78 286.56 28.65Q286.91 28.51 287.26 28.43Q287.61 28.34 287.79 28.34L287.79 28.34Q288.52 28.34 288.99 28.85Q289.46 29.36 289.71 30.10Q289.96 30.83 290.04 31.62Q290.13 32.41 290.13 32.97L290.13 32.97Q290.13 33.88 289.98 35.02Q289.84 36.16 289.59 37.36Q289.34 38.56 289.02 39.69Q288.70 40.82 288.37 41.67L288.37 41.67Q288.20 42.08 288.04 42.28Q287.88 42.49 287.68 42.62Q287.49 42.75 287.27 42.88Q287.05 43.02 286.79 43.31L286.79 43.31Q286.56 43.57 285.90 43.66Q285.24 43.75 284.51 43.75L284.51 43.75Q283.95 43.75 283.45 43.72Q282.95 43.69 282.69 43.69L282.69 43.69Q281.72 43.69 281.12 43.92Q280.52 44.16 279.99 44.16L279.99 44.16Q279.61 44.16 279.50 44.00Q279.38 43.84 279.14 43.84L279.14 43.84Q278.94 43.84 278.76 44.01Q278.59 44.19 278.24 44.19L278.24 44.19Q277.88 44.19 277.52 44.17Q277.15 44.16 276.77 44.16L276.77 44.16Q274.57 44.16 272.41 44.29Q270.24 44.42 268.04 44.48L268.04 44.48Q266.55 44.54 265.08 44.83Q263.62 45.13 262.12 45.13L262.12 45.13Q261.60 45.13 260.92 45.02Q260.25 44.92 259.65 44.66Q259.05 44.39 258.64 43.94Q258.23 43.48 258.23 42.81L258.23 42.81Q258.23 42.17 258.70 41.58Q259.16 40.99 259.82 40.50Q260.48 40.00 261.19 39.57Q261.89 39.15 262.33 38.77L262.33 38.77Q262.30 38.53 262.30 38.33Q262.30 38.12 262.30 37.92L262.30 37.92Q262.30 37.48 262.31 37.04Q262.33 36.60 262.47 36.16L262.47 36.16Q262.53 35.90 262.78 35.53Q263.03 35.16 263.03 34.90L263.03 34.90Q263.03 34.70 262.96 34.52Q262.88 34.34 262.83 34.14L262.83 34.14Q262.50 33.35 262.37 32.73Q262.24 32.12 262.24 31.24L262.24 31.24Q262.24 30.71 262.25 30.32Q262.27 29.92 262.31 29.55Q262.36 29.19 262.46 28.79Q262.56 28.40 262.74 27.90L262.74 27.90Q262.62 27.69 262.47 27.28Q262.33 26.87 262.33 26.64L262.33 26.64L262.74 22.48Q262.71 22.39 262.71 22.19L262.71 22.19Q262.71 21.92 262.80 21.66Q262.88 21.39 262.88 21.10L262.88 21.10Q262.88 20.43 262.65 19.77Q262.42 19.11 262.42 18.44L262.42 18.44Q262.42 18.20 262.53 17.88Q262.65 17.56 262.78 17.18Q262.91 16.79 263.03 16.34Q263.15 15.89 263.15 15.36L263.15 15.36Q263.15 14.95 262.96 14.66Q262.77 14.36 262.77 13.98L262.77 13.98Q262.77 13.63 262.94 13.28Q263.12 12.93 263.12 12.52L263.12 12.52Q263.12 11.93 262.90 11.39Q262.68 10.85 262.45 10.35L262.45 10.35Q262.09 9.62 261.90 9.16Q261.71 8.71 261.45 8.43Q261.19 8.15 260.73 8.02Q260.28 7.89 259.43 7.83L259.43 7.83Q259.02 7.80 258.65 7.58Q258.29 7.36 258.01 7.01Q257.73 6.66 257.55 6.25Q257.38 5.84 257.38 5.46L257.38 5.46Q257.38 4.93 257.85 4.56Q258.31 4.20 259.05 3.98Q259.78 3.76 260.69 3.63Q261.60 3.49 262.46 3.42Q263.32 3.35 264.04 3.32Q264.76 3.29 265.14 3.23L265.14 3.23Q265.73 3.14 266.28 3.11Q266.84 3.08 267.43 3.08L267.43 3.08Q268.57 3.08 269.73 3.16Q270.88 3.23 272.03 3.23L272.03 3.23Q273.26 3.23 274.44 3.00Q275.63 2.76 276.86 2.76L276.86 2.76Q277.97 2.76 279.06 3.01Q280.14 3.26 281.20 3.26L281.20 3.26Q282.22 3.26 283.22 3.01Q284.21 2.76 285.24 2.76L285.24 2.76Q285.68 2.76 286.12 2.85L286.12 2.85Q286.76 3.55 287.30 4.02Q287.85 4.49 288.24 4.97Q288.64 5.46 288.89 6.10Q289.13 6.75 289.22 7.80L289.22 7.80Q289.25 8.18 289.25 8.72Q289.25 9.27 289.28 9.78Q289.31 10.29 289.44 10.70Q289.57 11.11 289.87 11.20L289.87 11.20Q289.87 11.61 289.46 11.61L289.46 11.61Q289.49 12.02 289.63 12.44Q289.78 12.87 289.93 13.29Q290.07 13.72 290.19 14.14Q290.31 14.57 290.31 14.95ZM264.94 22.16L264.94 22.16Q264.76 22.16 264.61 22.21Q264.47 22.27 264.41 22.48L264.41 22.48Q265.52 23.12 266.18 23.69Q266.84 24.27 267.21 24.62Q267.57 24.97 267.75 25.01Q267.92 25.06 268.10 24.65L268.10 24.65Q268.33 24.12 268.03 23.65Q267.72 23.18 267.18 22.86Q266.63 22.54 266.00 22.35Q265.38 22.16 264.94 22.16ZM325.67 42.66L325.67 42.66Q325.67 43.69 324.98 44.29Q324.29 44.89 323.32 45.20Q322.36 45.51 321.32 45.59Q320.28 45.68 319.54 45.68L319.54 45.68Q318.58 45.68 317.95 45.51Q317.32 45.33 316.85 45.14Q316.38 44.95 316.03 44.77Q315.68 44.60 315.30 44.60L315.30 44.60Q314.80 44.60 314.32 44.77Q313.83 44.95 313.33 44.95L313.33 44.95Q312.98 44.95 312.76 44.83Q312.54 44.71 312.40 44.55Q312.25 44.39 312.12 44.28Q311.99 44.16 311.81 44.16L311.81 44.16Q311.61 44.16 311.49 44.32Q311.37 44.48 311.22 44.69Q311.08 44.89 310.80 45.05Q310.52 45.21 309.99 45.21L309.99 45.21Q309.38 45.21 308.79 45.08Q308.21 44.95 307.59 44.95L307.59 44.95Q306.98 44.95 306.38 45.17Q305.78 45.39 305.25 45.39L305.25 45.39Q305.01 45.39 304.90 45.23Q304.78 45.07 304.63 45.07L304.63 45.07Q304.13 45.07 303.59 45.30Q303.05 45.54 302.49 45.54L302.49 45.54Q302.20 45.54 301.92 45.46Q301.64 45.39 301.35 45.39L301.35 45.39Q300.85 45.39 300.36 45.62Q299.86 45.86 299.13 45.86L299.13 45.86Q298.86 45.86 297.97 45.78Q297.07 45.71 296.14 45.56Q295.20 45.42 294.45 45.20Q293.71 44.98 293.71 44.71L293.71 44.71Q293.71 43.95 293.98 43.19Q294.26 42.43 294.26 41.73L294.26 41.73L294.26 41.67Q293.88 41.67 293.82 41.26L293.82 41.26Q293.88 41.14 294.01 41.07Q294.14 40.99 294.29 40.95Q294.44 40.91 294.55 40.82Q294.67 40.73 294.67 40.55L294.67 40.55L294.67 40.44Q295.84 40.55 296.97 40.58Q298.10 40.61 299.33 40.61L299.33 40.61Q300.47 40.61 301.86 40.54Q303.26 40.47 304.44 40.12Q305.63 39.76 306.43 39.05Q307.24 38.33 307.24 37.04L307.24 37.04L307.24 36.83L307.24 36.37Q307.09 33.14 306.93 30.02Q306.77 26.90 306.77 23.68L306.77 23.68Q306.77 22.83 306.64 22.02Q306.51 21.22 306.51 20.40L306.51 20.40Q306.51 19.37 306.87 18.35Q307.24 17.32 308.03 16.62L308.03 16.62Q308.00 16.44 307.88 16.37Q307.77 16.30 307.59 16.27Q307.42 16.24 307.25 16.21Q307.09 16.18 306.98 16.12L306.98 16.12Q306.80 16.03 306.74 15.71Q306.68 15.39 306.64 15.01Q306.60 14.63 306.55 14.26Q306.51 13.89 306.36 13.69L306.36 13.69Q306.45 12.84 306.65 12.02Q306.86 11.20 306.86 10.35L306.86 10.35Q306.86 9.73 306.70 9.38Q306.54 9.03 306.33 8.80Q306.13 8.56 305.97 8.37Q305.80 8.18 305.80 7.89L305.80 7.89Q305.80 7.65 305.95 7.45L305.95 7.45L305.72 7.42Q305.42 7.42 305.28 7.57Q305.13 7.71 305.00 7.89Q304.87 8.06 304.72 8.21Q304.57 8.36 304.31 8.36L304.31 8.36Q304.11 8.36 303.84 8.27L303.84 8.27Q303.34 8.42 302.90 8.42L302.90 8.42Q301.88 8.42 300.87 8.14Q299.86 7.86 298.83 7.86L298.83 7.86Q298.28 7.86 297.75 7.90Q297.22 7.95 296.69 7.95L296.69 7.95Q295.93 7.95 295.17 7.77Q294.41 7.60 293.82 7.01L293.82 7.01L293.82 6.66Q293.82 5.11 294.86 4.31Q295.90 3.52 297.40 3.52L297.40 3.52Q298.42 3.52 299.42 3.79Q300.41 4.05 301.44 4.05L301.44 4.05Q302.00 4.05 302.61 3.93Q303.23 3.82 303.87 3.67Q304.52 3.52 305.17 3.41Q305.83 3.29 306.48 3.29L306.48 3.29Q307.47 3.29 308.35 3.71Q309.23 4.14 310.11 4.52L310.11 4.52L310.08 4.75Q310.08 5.02 310.21 5.24Q310.35 5.46 310.52 5.68Q310.70 5.90 310.83 6.12Q310.96 6.34 310.96 6.60L310.96 6.60Q310.96 6.86 310.89 7.11Q310.81 7.36 310.81 7.63L310.81 7.63Q310.81 8.27 311.06 8.86Q311.31 9.44 311.31 10.12L311.31 10.12Q311.31 10.82 311.15 11.49Q310.99 12.17 310.99 12.87L310.99 12.87Q310.99 13.72 311.20 14.57Q311.40 15.42 311.40 16.27L311.40 16.27Q311.40 16.97 311.18 17.64Q310.96 18.32 310.96 18.99L310.96 18.99Q310.96 19.49 311.09 19.97Q311.22 20.46 311.40 20.93Q311.58 21.39 311.71 21.88Q311.84 22.36 311.84 22.89L311.84 22.89L311.84 23.47Q311.84 23.94 311.77 24.37Q311.69 24.79 311.37 25.17L311.37 25.17Q311.52 25.73 311.68 26.38Q311.84 27.02 311.84 27.61L311.84 27.61Q311.84 27.90 311.80 28.24Q311.75 28.57 311.65 28.91Q311.55 29.25 311.37 29.52Q311.20 29.80 310.96 29.98L310.96 29.98Q311.34 31.09 311.46 32.23Q311.58 33.38 311.63 34.52L311.63 34.52Q311.66 34.87 311.75 35.43Q311.84 35.98 311.93 36.53Q312.02 37.07 312.09 37.52Q312.16 37.98 312.16 38.15L312.16 38.15Q312.16 38.65 311.99 39.12Q311.81 39.59 311.81 40.09L311.81 40.09Q311.81 40.47 311.99 40.89Q312.16 41.32 312.63 41.32L312.63 41.32Q312.98 41.32 313.23 41.16Q313.48 40.99 313.77 40.80Q314.07 40.61 314.46 40.45Q314.86 40.29 315.53 40.29L315.53 40.29Q316.29 40.29 316.97 40.50Q317.64 40.70 318.40 40.70L318.40 40.70Q318.96 40.70 319.53 40.60Q320.10 40.50 320.64 40.36Q321.19 40.23 321.74 40.12Q322.30 40.00 322.88 40.00L322.88 40.00Q324.06 40.00 324.86 40.67Q325.67 41.35 325.67 42.66ZM308.85 6.19L308.85 6.19Q308.73 6.07 308.57 5.96Q308.41 5.84 308.21 5.84L308.21 5.84Q308.06 5.84 307.96 5.97Q307.86 6.10 307.86 6.25L307.86 6.25L308.00 6.60Q308.12 6.66 308.18 6.66L308.18 6.66Q308.41 6.66 308.57 6.50Q308.73 6.34 308.85 6.19ZM310.61 14.33L310.61 14.33Q310.61 14.10 310.48 13.85Q310.35 13.60 310.05 13.60L310.05 13.60Q309.96 13.60 309.86 13.63Q309.76 13.66 309.70 13.69L309.70 13.69L309.70 14.95Q309.94 15.07 310.05 15.07L310.05 15.07Q310.35 15.07 310.48 14.82Q310.61 14.57 310.61 14.33ZM345.71 7.42L345.71 7.42Q345.71 8.27 345.43 9.16Q345.15 10.06 344.62 10.80Q344.10 11.55 343.35 12.03Q342.60 12.52 341.69 12.52L341.69 12.52Q341.08 12.52 340.17 12.33Q339.26 12.14 338.43 11.77Q337.59 11.40 336.99 10.82Q336.39 10.23 336.39 9.44L336.39 9.44Q336.39 8.74 336.55 7.99Q336.71 7.24 336.74 6.48L336.74 6.48Q337.04 6.34 337.33 5.96Q337.62 5.57 337.90 5.18Q338.18 4.78 338.46 4.46Q338.73 4.14 339.03 4.11L339.03 4.11L338.88 4.17Q339.29 3.99 339.75 3.88Q340.20 3.76 340.67 3.76L340.67 3.76Q341.28 3.76 342.15 4.07Q343.01 4.37 343.80 4.87Q344.59 5.37 345.15 6.04Q345.71 6.72 345.71 7.42ZM359.89 43.07L359.89 43.07Q359.89 43.57 359.70 44.01Q359.51 44.45 359.17 44.79Q358.83 45.13 358.39 45.33Q357.95 45.54 357.43 45.54L357.43 45.54Q357.22 45.54 357.16 45.48Q357.10 45.42 356.96 45.27L356.96 45.27Q356.55 44.83 355.96 44.76Q355.38 44.69 354.75 44.61Q354.12 44.54 353.54 44.29Q352.97 44.04 352.62 43.28L352.62 43.28Q352.39 42.78 352.12 42.63Q351.86 42.49 351.30 42.49L351.30 42.49Q350.01 42.49 348.84 42.90Q347.67 43.31 346.53 43.82Q345.38 44.33 344.20 44.74Q343.01 45.15 341.75 45.15L341.75 45.15Q341.05 45.15 340.36 45.02Q339.67 44.89 339.03 44.60L339.03 44.60Q338.88 44.74 338.69 44.80Q338.50 44.86 338.27 44.86L338.27 44.86Q338.06 44.86 337.87 44.83Q337.68 44.80 337.53 44.80L337.53 44.80Q337.50 44.80 337.21 44.91Q336.92 45.01 336.86 45.04L336.86 45.04L337.04 45.33Q336.86 45.59 336.24 45.84Q335.63 46.09 334.91 46.27Q334.19 46.44 333.52 46.56Q332.85 46.68 332.49 46.68L332.49 46.68Q331.56 46.68 330.96 46.37Q330.36 46.06 329.77 45.30L329.77 45.30Q329.56 45.01 329.26 44.71Q328.95 44.42 328.67 44.11Q328.39 43.81 328.20 43.46Q328.01 43.10 328.01 42.72L328.01 42.72Q328.01 42.28 328.48 41.99Q328.95 41.70 329.59 41.51Q330.24 41.32 330.88 41.24Q331.53 41.17 331.88 41.17L331.88 41.17Q332.58 41.17 333.29 41.36Q333.99 41.55 334.69 41.55L334.69 41.55Q335.34 41.55 335.92 41.38Q336.51 41.20 337.15 41.20L337.15 41.20Q337.71 41.20 338.25 41.27Q338.79 41.35 339.35 41.35L339.35 41.35Q340.05 41.35 340.71 41.10Q341.37 40.85 341.96 40.44L341.96 40.44Q342.19 39.00 342.29 37.57Q342.40 36.13 342.40 34.67L342.40 34.67Q342.40 33.23 342.16 31.79Q341.93 30.36 341.93 28.95L341.93 28.95Q341.93 28.84 341.99 28.82Q342.04 28.81 342.12 28.79Q342.19 28.78 342.25 28.73Q342.31 28.69 342.31 28.51L342.31 28.51Q342.31 27.90 342.13 27.31Q341.96 26.73 341.96 26.11L341.96 26.11Q341.96 25.35 342.16 24.62Q342.37 23.88 342.37 23.12L342.37 23.12Q342.37 22.60 342.13 22.07Q341.90 21.54 341.52 21.13Q341.14 20.72 340.64 20.47Q340.14 20.22 339.58 20.22L339.58 20.22Q338.97 20.22 338.37 20.37Q337.77 20.52 337.12 20.71Q336.48 20.90 335.82 21.04Q335.16 21.19 334.43 21.19L334.43 21.19Q333.58 21.19 332.76 21.07Q331.94 20.96 331.09 20.81L331.09 20.81Q330.68 20.75 330.17 20.69Q329.65 20.63 329.18 20.49Q328.71 20.34 328.39 20.05Q328.07 19.75 328.07 19.20L328.07 19.20Q328.07 18.17 328.44 17.63Q328.80 17.09 329.34 16.82Q329.89 16.56 330.56 16.50Q331.23 16.44 331.85 16.38L331.85 16.38Q332.96 16.30 334.06 16.22Q335.16 16.15 336.27 16.15L336.27 16.15Q337.65 16.15 338.98 16.31Q340.32 16.47 341.69 16.47L341.69 16.47Q342.66 16.47 343.54 16.77Q344.42 17.06 345.08 17.66Q345.74 18.26 346.12 19.17Q346.50 20.08 346.50 21.28L346.50 21.28Q346.50 22.07 346.16 22.82Q345.82 23.56 345.30 24.15L345.30 24.15Q345.50 24.53 345.71 24.66Q345.91 24.79 346.09 24.90Q346.26 25.00 346.38 25.16Q346.50 25.32 346.50 25.76L346.50 25.76Q346.50 25.99 346.57 26.30Q346.64 26.61 346.97 26.64L346.97 26.64Q346.97 28.22 346.94 29.76Q346.91 31.30 346.91 32.85L346.91 32.85Q346.91 34.17 346.92 35.49Q346.94 36.80 347.14 38.12L347.14 38.12Q347.26 38.94 347.61 39.38Q347.96 39.82 348.87 39.82L348.87 39.82Q350.19 39.82 351.48 39.54Q352.77 39.27 354.09 39.27L354.09 39.27Q354.85 39.27 355.54 39.65Q356.22 40.03 356.85 40.47Q357.48 40.91 358.07 41.29Q358.66 41.67 359.18 41.67L359.18 41.67Q359.42 41.67 359.56 41.83Q359.71 41.99 359.78 42.21Q359.86 42.43 359.87 42.66Q359.89 42.90 359.89 43.07ZM387.57 33.79L387.57 33.79Q387.57 34.72 387.37 35.56Q387.16 36.39 386.90 37.20Q386.63 38.01 386.36 38.84Q386.08 39.68 385.93 40.55L385.93 40.55Q385.67 42.02 384.88 42.99Q384.09 43.95 382.97 44.52Q381.86 45.10 380.50 45.37Q379.13 45.65 377.70 45.80Q376.26 45.95 374.87 46.00Q373.48 46.06 372.31 46.21L372.31 46.21Q371.87 45.89 371.58 45.51Q371.28 45.13 371.02 44.79Q370.76 44.45 370.43 44.23Q370.11 44.01 369.58 44.01L369.58 44.01Q369.41 44.01 369.31 43.53Q369.20 43.04 369.12 42.44Q369.03 41.84 368.92 41.36Q368.82 40.88 368.65 40.88L368.65 40.88Q367.97 40.88 367.58 40.58Q367.18 40.29 366.96 39.84Q366.74 39.38 366.67 38.83Q366.60 38.27 366.60 37.74L366.60 37.74Q366.60 37.33 366.42 36.98Q366.24 36.63 366.04 36.29Q365.83 35.96 365.66 35.60Q365.48 35.25 365.48 34.87L365.48 34.87Q365.48 34.43 365.53 33.77Q365.57 33.11 365.61 32.41Q365.66 31.71 365.70 31.03Q365.75 30.36 365.75 29.92L365.75 29.92Q365.75 29.39 365.88 29.04Q366.01 28.69 366.19 28.43Q366.36 28.16 366.49 27.96Q366.63 27.75 366.63 27.49L366.63 27.49Q366.63 27.14 366.46 26.90Q366.30 26.67 366.30 26.43L366.30 26.43Q366.30 26.11 366.51 25.80Q366.71 25.50 366.80 25.17L366.80 25.17Q367.12 23.88 367.12 22.63L367.12 22.63Q367.12 22.36 367.11 22.11Q367.09 21.86 367.06 21.63L367.06 21.63Q366.39 21.07 365.57 20.91Q364.75 20.75 363.93 20.68Q363.11 20.60 362.35 20.49Q361.59 20.37 361.06 19.87L361.06 19.87Q360.62 19.46 360.27 18.95Q359.92 18.44 359.33 18.26L359.33 18.26Q358.92 18.11 358.64 17.86Q358.36 17.62 358.36 17.15L358.36 17.15Q358.36 16.44 358.79 16.08Q359.21 15.71 359.80 15.49Q360.38 15.27 361.01 15.11Q361.64 14.95 362.08 14.63L362.08 14.63Q362.52 14.30 363.14 14.30L363.14 14.30Q363.40 14.30 363.65 14.32Q363.90 14.33 364.16 14.33L364.16 14.33Q364.90 14.33 365.38 14.08Q365.86 13.84 366.14 13.41Q366.42 12.99 366.52 12.43Q366.63 11.87 366.63 11.23L366.63 11.23Q366.63 10.29 366.51 9.41Q366.39 8.53 366.39 7.60L366.39 7.60Q366.39 6.51 366.68 5.60Q366.98 4.70 367.80 3.93L367.80 3.93Q367.97 3.79 368.18 3.55Q368.38 3.32 368.62 3.10Q368.85 2.88 369.10 2.73Q369.35 2.59 369.61 2.59L369.61 2.59Q369.79 2.59 369.92 2.66Q370.05 2.73 370.20 2.85L370.20 2.85Q370.84 3.49 371.03 3.80Q371.22 4.11 371.22 4.52L371.22 4.52Q371.22 4.75 371.21 5.03Q371.20 5.31 371.20 5.75L371.20 5.75Q371.20 6.69 371.43 7.60Q371.66 8.50 371.66 9.15L371.66 9.15Q371.66 9.71 371.44 10.22Q371.22 10.73 371.22 11.29L371.22 11.29Q371.22 11.70 371.42 12.03Q371.61 12.37 371.85 12.69Q372.10 13.02 372.31 13.35Q372.51 13.69 372.51 14.13L372.51 14.13Q372.81 14.33 373.83 14.50Q374.86 14.66 376.12 14.76Q377.38 14.86 378.67 14.92Q379.96 14.98 380.80 14.98L380.80 14.98Q381.57 14.98 381.98 15.10Q382.39 15.21 382.67 15.34Q382.94 15.48 383.18 15.62Q383.41 15.77 383.79 15.80L383.79 15.80Q384.26 15.86 384.60 16.05Q384.94 16.24 384.94 16.79L384.94 16.79Q384.94 17.50 384.57 17.91Q384.20 18.32 383.66 18.52Q383.12 18.73 382.50 18.77Q381.89 18.82 381.36 18.82L381.36 18.82Q380.51 18.82 379.66 18.76Q378.81 18.70 377.96 18.70L377.96 18.70Q376.56 18.70 375.41 18.96Q374.27 19.23 373.44 19.84Q372.60 20.46 372.15 21.47Q371.69 22.48 371.69 24.00L371.69 24.00Q371.69 25.50 371.88 26.93Q372.07 28.37 372.07 29.86L372.07 29.86Q372.07 31.27 372.12 32.12Q372.16 32.97 372.46 33.55L372.46 33.55Q372.84 34.40 373.07 35.49Q373.30 36.57 373.67 37.54Q374.04 38.50 374.70 39.16Q375.36 39.82 376.64 39.82L376.64 39.82Q377.08 39.82 377.82 39.71Q378.55 39.59 379.28 39.34Q380.01 39.09 380.54 38.69Q381.07 38.30 381.07 37.71L381.07 37.71Q381.07 37.21 380.78 36.70Q380.48 36.19 380.48 35.60L380.48 35.60Q380.48 35.19 380.67 34.89Q380.86 34.58 381.17 34.33Q381.48 34.08 381.82 33.89Q382.15 33.70 382.47 33.55L382.47 33.55Q383.00 32.88 383.75 32.42Q384.50 31.97 385.35 31.97L385.35 31.97Q385.93 31.97 386.47 32.18Q387.02 32.38 387.48 32.70L387.48 32.70Q387.57 33.23 387.57 33.79ZM418.98 38.06L418.98 38.06Q418.98 38.86 418.73 39.41Q418.48 39.97 418.08 40.41Q417.69 40.85 417.18 41.23Q416.66 41.61 416.14 42.05L416.14 42.05Q415.73 42.40 415.40 42.58Q415.08 42.75 414.77 42.87Q414.47 42.99 414.13 43.10Q413.79 43.22 413.35 43.43L413.35 43.43Q412.77 43.72 412.37 43.97Q411.98 44.22 411.58 44.42Q411.19 44.63 410.72 44.76Q410.25 44.89 409.54 44.98L409.54 44.98Q408.37 45.13 407.19 45.33Q406 45.54 404.83 45.54L404.83 45.54Q404.59 45.54 404.34 45.43Q404.10 45.33 403.77 45.23Q403.45 45.13 403.06 45.02Q402.66 44.92 402.10 44.92L402.10 44.92Q401.52 44.92 401.17 44.74Q400.81 44.57 400.54 44.33Q400.26 44.10 399.96 43.82Q399.67 43.54 399.20 43.34L399.20 43.34Q397.45 42.55 396.21 41.43Q394.98 40.32 394.11 38.94Q393.23 37.57 392.64 35.96Q392.05 34.34 391.64 32.59L391.64 32.59Q391.32 31.36 391.32 30.13L391.32 30.13Q391.32 28.51 392.08 27.14L392.08 27.14Q391.79 26.32 391.79 25.55L391.79 25.55Q391.79 25.00 392.11 23.90Q392.44 22.80 392.95 21.69Q393.46 20.57 394.06 19.68Q394.66 18.79 395.19 18.58L395.19 18.58Q395.60 18.44 395.76 18.33Q395.92 18.23 395.92 17.76L395.92 17.76Q395.92 17.41 396.20 17.18Q396.48 16.94 396.87 16.79Q397.27 16.65 397.67 16.53Q398.06 16.41 398.32 16.30L398.32 16.30Q399.41 15.77 400.39 15.40Q401.37 15.04 402.35 14.79Q403.33 14.54 404.39 14.42Q405.44 14.30 406.64 14.30L406.64 14.30Q407.29 14.30 407.90 14.48Q408.52 14.66 409.09 14.93Q409.66 15.21 410.22 15.55Q410.78 15.89 411.30 16.21L411.30 16.21L411.27 16.21Q411.71 16.27 412.11 16.46Q412.50 16.65 412.94 16.71L412.94 16.71Q413.35 17.21 414.01 17.66Q414.67 18.11 415.30 18.61Q415.93 19.11 416.39 19.68Q416.84 20.25 416.84 20.98L416.84 20.98Q416.84 21.10 416.83 21.22Q416.81 21.34 416.78 21.48L416.78 21.48L416.90 21.34Q417.02 21.42 417.12 21.63Q417.22 21.83 417.31 22.08Q417.40 22.33 417.46 22.58Q417.51 22.83 417.54 22.98L417.54 22.98Q417.78 23.36 418.17 23.59Q418.57 23.83 418.80 24.24L418.80 24.24Q418.51 24.53 418.51 25.00L418.51 25.00Q418.51 25.50 418.71 25.98Q418.92 26.46 418.92 26.96L418.92 26.96Q418.92 27.55 418.86 28.09Q418.80 28.63 418.80 29.22L418.80 29.22Q418.80 29.66 418.47 29.89Q418.13 30.13 417.73 30.30Q417.34 30.48 417.02 30.65Q416.69 30.83 416.69 31.15L416.69 31.15Q416.69 31.38 416.42 31.37Q416.14 31.36 415.96 31.36L415.96 31.36Q414.67 31.36 413.40 31.03Q412.12 30.71 410.86 30.71L410.86 30.71Q409.49 30.71 408.14 30.90Q406.79 31.09 405.41 31.09L405.41 31.09Q404.39 31.09 403.38 31.03Q402.37 30.97 401.34 30.97L401.34 30.97Q401.08 30.97 400.35 31.08Q399.61 31.18 398.81 31.34Q398.00 31.50 397.27 31.72Q396.54 31.94 396.24 32.15L396.24 32.15Q396.21 32.29 396.21 32.56L396.21 32.56Q396.21 33.93 397.02 35.40Q397.83 36.86 399.14 38.06Q400.46 39.27 402.10 40.06Q403.74 40.85 405.41 40.85L405.41 40.85Q406.38 40.85 407.33 40.92Q408.29 40.99 409.19 41.35L409.19 41.35Q409.98 40.96 410.64 40.47Q411.30 39.97 411.92 39.41Q412.53 38.86 413.12 38.27Q413.71 37.68 414.32 37.10L414.32 37.10Q414.44 36.98 414.89 36.88Q415.35 36.78 415.87 36.70Q416.40 36.63 416.88 36.58Q417.37 36.54 417.54 36.54L417.54 36.54Q418.22 36.54 418.80 36.75L418.80 36.75Q418.98 37.42 418.98 38.06ZM414.58 26.17L414.58 26.17Q414.58 25.73 414.44 25.32Q414.29 24.91 414.20 24.47L414.20 24.47Q414.06 23.65 414.06 22.87Q414.06 22.10 413.82 21.31L413.82 21.31L413.79 21.31Q413.79 21.48 413.68 21.64Q413.56 21.80 413.35 21.80L413.35 21.80Q413.00 21.80 412.68 21.63Q412.36 21.45 412.12 21.19L412.12 21.19Q411.01 20.69 410.12 20.25Q409.22 19.81 408.33 19.48Q407.44 19.14 406.42 18.95Q405.41 18.76 404.10 18.76L404.10 18.76Q403.98 18.76 403.88 18.77Q403.77 18.79 403.69 18.88L403.69 18.88L403.83 19.20L403.60 19.26Q402.81 19.40 402.29 19.53Q401.78 19.67 401.37 19.90Q400.96 20.13 400.57 20.47Q400.17 20.81 399.55 21.34L399.55 21.34Q399.26 21.60 398.92 21.73Q398.59 21.86 398.25 21.97Q397.91 22.07 397.61 22.19Q397.30 22.30 397.09 22.57L397.09 22.57Q396.89 23.30 396.49 23.99Q396.10 24.68 396.10 25.44L396.10 25.44Q396.10 25.88 396.46 26.21Q396.83 26.55 397.40 26.79Q397.97 27.02 398.66 27.20Q399.35 27.37 400.02 27.46Q400.70 27.55 401.27 27.59Q401.84 27.63 402.16 27.63L402.16 27.63Q403.28 27.63 404.36 27.42Q405.44 27.20 406.56 27.20L406.56 27.20Q407.70 27.20 408.84 27.30Q409.98 27.40 411.13 27.40L411.13 27.40Q411.42 27.40 412.01 27.37Q412.59 27.34 413.16 27.21Q413.73 27.08 414.16 26.83Q414.58 26.58 414.58 26.17Z"></path></svg>