<svg xmlns="http://www.w3.org/2000/svg" width="142.14" height="53.34" viewBox="4 8.36 142.14 53.34"><path d="M49.54 11.78q.36.36-.06.9-.96 1.38-1.44 1.2-.72-.24-1.44-.45-.72-.21-1.5-.39-3.36.3-6 3.51t-4.74 10.11q-3.12 10.14-8.67 15.21t-13.41 5.07q-2.16 0-3.72-.57t-2.58-1.5q-1.02-.93-1.5-2.16T4 40.22q0-3.6 3.54-6 .24 0 .3.24t-.06.42q-.84.66-1.23 1.41-.39.75-.39 2.13 0 3.06 2.13 4.83t6.33 1.77q2.88 0 5.28-.78 2.4-.78 4.41-2.67 2.01-1.89 3.72-5.07 1.71-3.18 3.27-7.98 2.16-6.72 5.16-10.83t6.78-5.13q-4.02-1.02-8.34-1.62-4.32-.6-8.58-.6-3.36 0-5.97 1.11T16 14.42q-1.74 1.86-2.52 4.35-.78 2.49-.42 5.19-.36.54-.66.06-.36-2.94.45-5.76t2.79-5.04Q17.62 11 20.8 9.68q3.18-1.32 7.5-1.32 6.42 0 11.67 1.05t9.57 2.37Zm2.28 31.44q.12-.12.3 0t.12.36q-1.26 1.74-2.49 2.58-1.23.84-2.07.84-.54 0-.87-.54-.33-.54-.42-1.47-.09-.93.06-2.1t.51-2.43q-1.62 2.52-3.42 4.35-1.8 1.83-3.48 2.19-1.08 0-1.83-1.05t-.75-3.27q0-1.98.81-3.93.81-1.95 2.19-3.54t3.18-2.55q1.8-.96 3.78-.96 1.08 0 1.86.24t1.44.72q.36-.3.99-.57.63-.27 1.17-.27.3 0 .18.3-1.38 1.68-2.37 3.72-.99 2.04-1.53 3.96t-.69 3.39q-.15 1.47.21 2.01.3.42 1.08.03t2.04-2.01Zm-10.44 1.74q.66 0 1.71-.93 1.05-.93 2.19-2.43t2.25-3.39q1.11-1.89 1.95-3.81-.24-.78-1.11-1.26-.87-.48-2.01-.48-1.32 0-2.49.69-1.17.69-2.07 1.92-.9 1.23-1.44 2.91-.54 1.68-.54 3.72 0 1.32.45 2.19.45.87 1.11.87Zm28.8-1.8q.18-.12.36 0t.12.36q-1.02 1.38-2.25 2.43Q67.18 47 66.1 47q-1.86 0-1.86-2.4 0-2.04.72-4.53t1.98-5.01q.24-.42.24-.84 0-.66-.6-.66-2.22 0-4.89 3.06-2.67 3.06-4.95 9.6-.12.36-.66.57-.54.21-1.02.21-.66 0-.48-.54 1.02-2.58 2.13-5.82 1.11-3.24 1.95-6.42.24-1.14-.42-1.14-.6 0-1.2.6t-1.26 1.56q-.12.12-.27-.06-.15-.18-.09-.36.66-1.02 1.8-2.1 1.14-1.08 2.46-1.08 1.5 0 1.02 2.04-.24 1.32-.66 2.79-.42 1.47-.9 2.91.84-1.62 1.98-3.06 1.14-1.44 2.37-2.46 1.23-1.02 2.46-1.62 1.23-.6 2.31-.6.72 0 1.11.36.39.36.39.84 0 .78-.36 1.56-1.26 2.28-2.13 4.77-.87 2.49-.87 4.59 0 1.5.96 1.5 1.26 0 2.82-2.1Zm14.1-12.36q.18-.12.36.03t.06.39q-.48.72-1.2 1.29-.72.57-1.8.51.54.9.54 2.34 0 1.38-.42 2.52-.42 1.14-.96 2.16-.54 1.02-1.11 1.92-.57.9-.9 1.86-.33.96-.3 1.95.03.99.69 2.19.54 1.02.99 1.83.45.81.78 1.56t.48 1.53q.15.78.15 1.68 0 1.44-.6 2.73t-1.74 2.28q-1.14.99-2.76 1.56-1.62.57-3.66.57-2.1 0-3.78-.6-1.68-.6-2.85-1.59-1.17-.99-1.77-2.28-.6-1.29-.6-2.67 0-1.8 1.29-3.15 1.29-1.35 3.69-2.01.3 0 .39.21.09.21-.09.39-1.26.48-2.04 1.44t-.78 2.58q0 3.06 2.1 4.92 2.1 1.86 5.52 1.86 2.88 0 4.26-1.47t1.38-3.81q0-1.38-.42-2.46t-1.26-2.46q-1.14-1.92-.99-3.69.15-1.77 1.23-3.69.12-.24.27-.45.15-.21.27-.51-.66.72-1.53 1.26t-1.47.54q-2.94 0-2.94-3.84 0-1.26.48-2.76.48-1.5 1.35-2.79.87-1.29 2.04-2.13 1.17-.84 2.61-.84 2.1 0 3.24-.15 1.14-.15 1.8-.75Zm-4.8 10.02q.36-.84.6-1.74t.24-1.8q0-1.74-.57-2.73t-1.83-.99q-1.44 0-2.43 1.44-.99 1.44-.99 4.08 0 1.74.57 2.52t1.71.78q.66 0 1.44-.42.78-.42 1.26-1.14Zm16.2-6.54q0 .84-.66 1.56-.66.72-1.8 1.29-1.14.57-2.61 1.05-1.47.48-3.09.9-.06.66-.09 1.32t-.03 1.44q0 1.5.66 2.52t1.86 1.02q1.2 0 2.25-.6t1.89-1.62q.24-.12.36.06t0 .42q-1.02 1.38-2.55 2.37-1.53.99-3.21.99-1.56 0-2.55-1.02-.99-1.02-.99-3 0-1.8.66-3.81t1.74-3.69q1.08-1.68 2.49-2.76 1.41-1.08 2.97-1.08 1.14 0 1.92.81t.78 1.83Zm-3.96-1.08q-1.38 0-2.46 1.2t-1.56 3.78q2.88-.42 4.23-1.23 1.35-.81 1.35-1.83 0-.84-.42-1.38-.42-.54-1.14-.54Zm11.22.12q0 .9-.18 2.1-.18 1.2-.48 2.4 1.2-2.88 2.64-4.53 1.44-1.65 3.12-1.65.66 0 1.2.36.54.36.54 1.02 0 .48-.36 1.23t-.72 1.11q-.36.24-.36-.18 0-1.02-1.38-1.02-2.1 0-3.78 3.15-1.68 3.15-3.18 8.73-.12.6-.81.78-.69.18-1.17.18-.66 0-.3-.66.54-1.26 1.02-2.73t.93-2.97q.45-1.5.75-2.94t.48-2.64q.24-1.8-.6-1.8-.48 0-1.11.54-.63.54-1.17 1.26-.24.12-.42-.03t-.06-.39q.9-1.14 2.01-2.07 1.11-.93 2.07-.93 1.32 0 1.32 1.68Zm7.56 2.52q-.18.12-.33-.09-.15-.21-.03-.39.84-.84 2.28-1.92t2.88-1.8q.48 0 .48.54-.78 1.38-1.53 3t-1.32 3.21q-.57 1.59-.93 3.06-.36 1.47-.36 2.43 0 1.26.84 1.26.66 0 1.29-.57t1.47-1.53q.12-.12.3.06t.06.42q-1.08 1.32-2.31 2.4-1.23 1.08-2.31 1.08-1.56 0-1.56-1.98 0-1.14.39-2.73t.99-3.21q.6-1.62 1.35-3.12.75-1.5 1.47-2.58-.66.48-1.65 1.23-.99.75-1.47 1.23Zm5.4-6.78q-.18.18-.33.03-.15-.15-.21-.42t-.06-.63q0-.36.18-.6 1.56-2.16 4.38-4.62.18-.06.36.09t.06.27q-1.26 1.14-2.4 2.73t-1.98 3.15Zm17.34 14.1q.18-.12.36 0t.12.36q-1.02 1.38-2.25 2.43-1.23 1.05-2.31 1.05-1.86 0-1.86-2.4 0-2.04.72-4.53t1.98-5.01q.24-.42.24-.84 0-.66-.6-.66-2.22 0-4.89 3.06-2.67 3.06-4.95 9.6-.12.36-.66.57-.54.21-1.02.21-.66 0-.48-.54 1.02-2.58 2.13-5.82 1.11-3.24 1.95-6.42.24-1.14-.42-1.14-.6 0-1.2.6t-1.26 1.56q-.12.12-.27-.06-.15-.18-.09-.36.66-1.02 1.8-2.1 1.14-1.08 2.46-1.08 1.5 0 1.02 2.04-.24 1.32-.66 2.79-.42 1.47-.9 2.91.84-1.62 1.98-3.06 1.14-1.44 2.37-2.46 1.23-1.02 2.46-1.62 1.23-.6 2.31-.6.72 0 1.11.36.39.36.39.84 0 .78-.36 1.56-1.26 2.28-2.13 4.77-.87 2.49-.87 4.59 0 1.5.96 1.5 1.26 0 2.82-2.1Zm12.9-8.88q0 .84-.66 1.56-.66.72-1.8 1.29-1.14.57-2.61 1.05-1.47.48-3.09.9-.06.66-.09 1.32t-.03 1.44q0 1.5.66 2.52t1.86 1.02q1.2 0 2.25-.6t1.89-1.62q.24-.12.36.06t0 .42q-1.02 1.38-2.55 2.37-1.53.99-3.21.99-1.56 0-2.55-1.02-.99-1.02-.99-3 0-1.8.66-3.81t1.74-3.69q1.08-1.68 2.49-2.76 1.41-1.08 2.97-1.08 1.14 0 1.92.81t.78 1.83Zm-3.96-1.08q-1.38 0-2.46 1.2t-1.56 3.78q2.88-.42 4.23-1.23 1.35-.81 1.35-1.83 0-.84-.42-1.38-.42-.54-1.14-.54Z"/></svg>