<svg xmlns="http://www.w3.org/2000/svg" width="40" height="40" fill="none"><rect width="40" height="40" fill="#9135E5" rx="7"/><path fill="#fff" d="M6.493 19.386c2.575-4.41 7.671-7.394 13.507-7.394 5.836 0 10.934 2.986 13.507 7.395.108.188.165.397.165.608 0 .211-.057.42-.165.608-2.575 4.41-7.671 7.394-13.507 7.394-5.836 0-10.934-2.986-13.507-7.394a1.216 1.216 0 0 1-.165-.608c0-.212.057-.42.165-.609ZM20 25.996a7.529 7.529 0 0 0 3.798-1.01c1.124-.66 2-1.598 2.518-2.694a5.325 5.325 0 0 0 .389-3.468c-.264-1.164-.915-2.234-1.871-3.073-.956-.84-2.174-1.411-3.5-1.643a7.722 7.722 0 0 0-3.95.342c-1.25.454-2.317 1.223-3.068 2.21-.751.987-1.152 2.148-1.152 3.335 0 .788.176 1.569.52 2.297.343.728.846 1.39 1.481 1.948.635.557 1.389 1 2.219 1.3.83.302 1.718.457 2.616.457Zm0-10.002c.407.005.81.058 1.201.157a1.824 1.824 0 0 0-.435 1.333c.041.475.275.922.659 1.26.384.337.893.542 1.435.578.541.036 1.08-.1 1.517-.382.25.806.205 1.66-.128 2.442-.333.783-.937 1.454-1.727 1.919a5.018 5.018 0 0 1-2.676.675 4.956 4.956 0 0 1-2.623-.822c-.755-.508-1.31-1.211-1.585-2.01a3.53 3.53 0 0 1 .047-2.445c.307-.79.888-1.477 1.662-1.962A4.99 4.99 0 0 1 20 15.994ZM25.599 34.195h-1.274v-.804h1.274c.196 0 .357-.032.48-.096a.616.616 0 0 0 .271-.274 1.008 1.008 0 0 0 0-.81.693.693 0 0 0-.27-.31.89.89 0 0 0-.481-.116h-.917v4.192h-1.03v-5h1.947c.39 0 .726.072 1.006.214.281.14.496.333.645.58.149.247.223.53.223.848 0 .323-.074.602-.223.838a1.45 1.45 0 0 1-.645.545c-.28.129-.615.193-1.006.193Zm4.12 1.782H28.63l.007-.804h1.081c.27 0 .498-.06.684-.182.185-.123.325-.303.418-.539.097-.235.145-.52.145-.855v-.243a2.5 2.5 0 0 0-.083-.677 1.345 1.345 0 0 0-.237-.49.99.99 0 0 0-.388-.3 1.281 1.281 0 0 0-.528-.102h-1.12v-.807h1.12c.334 0 .64.057.916.171.28.113.521.274.725.485.203.21.36.462.47.755.112.29.168.614.168.971v.237c0 .355-.056.679-.168.972a2.087 2.087 0 0 1-1.195 1.24c-.279.111-.588.168-.927.168Zm-.505-5v5h-1.03v-5h1.03Zm4.573 0v5h-1.03v-5h1.03Zm1.991 2.136v.804h-2.273v-.804h2.273Zm.24-2.135v.807h-2.513v-.807h2.513Z"/></svg>