<svg xmlns="http://www.w3.org/2000/svg" width="65" height="65" fill="none"><path fill="#E53935" fill-rule="evenodd" d="M10 0C4.477 0 0 4.477 0 10v30c0 5.523 4.477 10 10 10h4V24c0-5.523 4.477-10 10-10h26v-4c0-5.523-4.477-10-10-10H10Z" clip-rule="evenodd"/><rect width="50" height="50" x="15" y="15" fill="#E53935" rx="10"/><path stroke="#fff" stroke-linecap="round" stroke-linejoin="round" stroke-width="3" d="M57 23 47 33M57 33H47V23M23 23l10 10M33 23v10H23M57 57 47 47M47 57V47h10M23 57l10-10M23 47h10v10"/></svg>