<svg xmlns="http://www.w3.org/2000/svg" width="65" height="65" fill="none"><path fill="#E53935" fill-rule="evenodd" d="M10 0C4.477 0 0 4.477 0 10v30c0 5.523 4.477 10 10 10h4V24c0-5.523 4.477-10 10-10h26v-4c0-5.523-4.477-10-10-10H10Z" clip-rule="evenodd"/><rect width="50" height="50" x="15" y="15" fill="#E53935" rx="10"/><path fill="#fff" d="M52.64 45.938h-2.265v-14.5c0-1.001-.812-1.813-1.813-1.813H35.876v5.438h9.063V53.64c0 .75.608 1.359 1.359 1.359h2.719c.75 0 1.359-.609 1.359-1.36v-2.265h2.266c.75 0 1.359-.609 1.359-1.36v-2.718a1.36 1.36 0 0 0-1.36-1.36ZM34.063 27.358A1.36 1.36 0 0 0 32.703 26h-2.719c-.75 0-1.359.608-1.359 1.36v2.265h-2.266c-.75 0-1.359.608-1.359 1.36v2.718c0 .75.609 1.36 1.36 1.36h2.265v14.5c0 1 .812 1.812 1.813 1.812h12.687v-5.438h-9.063V27.36Z"/></svg>