<svg xmlns="http://www.w3.org/2000/svg" width="34" height="34" fill="none"><path fill="#E53935" fill-rule="evenodd" d="M5.083 0A5.083 5.083 0 0 0 0 5.083V20.33a5.083 5.083 0 0 0 5.083 5.082h2.033V12.198a5.083 5.083 0 0 1 5.082-5.082h13.215V5.083A5.083 5.083 0 0 0 20.331 0H5.083Z" clip-rule="evenodd"/><rect width="25.413" height="25.413" x="7.624" y="7.624" fill="#E53935" rx="5.083"/><path fill="#fff" d="M25.064 19.108H21.49v-3.574a.794.794 0 0 0-.794-.794h-.794a.794.794 0 0 0-.794.794v3.574h-3.574a.794.794 0 0 0-.794.794v.794c0 .438.355.794.794.794h3.574v3.574c0 .438.355.794.794.794h.794a.794.794 0 0 0 .794-.794V21.49h3.574a.794.794 0 0 0 .794-.794v-.794a.794.794 0 0 0-.794-.794Z"/></svg>