<svg xmlns="http://www.w3.org/2000/svg" width="34" height="34" fill="none"><path fill="#1E85FF" fill-rule="evenodd" d="M5.083 0A5.083 5.083 0 0 0 0 5.083V20.33a5.083 5.083 0 0 0 5.083 5.082h2.033V12.198a5.083 5.083 0 0 1 5.082-5.082h13.215V5.083A5.083 5.083 0 0 0 20.331 0H5.083Z" clip-rule="evenodd"/><rect width="25.413" height="25.413" x="7.624" y="7.624" fill="#1E85FF" rx="5.083"/><path fill="#fff" d="M18.488 24.953v-.795a.397.397 0 0 0-.397-.397h-2.78V15.82h7.942v3.573a.397.397 0 0 0 .397.398h.794a.397.397 0 0 0 .398-.398v-3.97a1.191 1.191 0 0 0-1.192-1.192h-8.736a1.191 1.191 0 0 0-1.19 1.192v8.735a1.191 1.191 0 0 0 1.19 1.192h3.177a.397.397 0 0 0 .397-.397Zm7.942 1.39v-3.177a.597.597 0 0 0-1.018-.422l-.886.887-6.047-6.05a.596.596 0 0 0-.844 0l-.561.563a.595.595 0 0 0 0 .844l6.047 6.046-.885.887a.597.597 0 0 0 .421 1.017h3.177a.596.596 0 0 0 .596-.596Z"/></svg>