<svg xmlns="http://www.w3.org/2000/svg" width="33" height="32" fill="none"><rect width="21.154" height="21.154" x="11.846" y="10.577" fill="#1E85FF" rx="4.231"/><rect width="21.154" height="21.154" x="1.692" y=".423" fill="#fff" rx="4.231"/><path fill="#1E85FF" fill-rule="evenodd" d="m10.63 26.652-4.112-.469a.248.248 0 0 0-.274.218l-.113.986a.248.248 0 0 0 .219.274l2.017.23a3.63 3.63 0 0 1-3.09 1.152 3.634 3.634 0 0 1-3.2-4.024c.1-.877.502-1.644 1.091-2.21l-1.005-1.096A5.102 5.102 0 0 0 .6 24.839a5.11 5.11 0 0 0 4.471 5.677 5.11 5.11 0 0 0 4.013-1.25l-.182 1.604a.248.248 0 0 0 .218.274l.985.112a.248.248 0 0 0 .275-.218l.468-4.112a.248.248 0 0 0-.218-.274Z" clip-rule="evenodd"/><rect width="21.154" height="21.154" x="1.269" fill="#1E85FF" rx="4.231"/><path fill="#fff" d="M1.27 15.691v-1.716l3.227-3.014a1.48 1.48 0 0 1 2.175.167l1.007 1.28c.078.1.225.11.315.02l3.74-3.695A1.48 1.48 0 0 1 14 8.954l7.335 10.81a4.25 4.25 0 0 1-.986.807L12.95 9.667a.212.212 0 0 0-.324-.032l-3.74 3.696a1.48 1.48 0 0 1-2.205-.138l-1.007-1.28a.212.212 0 0 0-.31-.025l-4.085 3.814-.01-.01Z"/><circle cx="17.558" cy="4.442" r="2.327" stroke="#fff" stroke-width=".846"/></svg>