<svg xmlns="http://www.w3.org/2000/svg" width="34" height="34" fill="none"><path fill="url(#a)" fill-rule="evenodd" d="M4.096 0A4.096 4.096 0 0 0 0 4.096v12.29a4.096 4.096 0 0 0 4.096 4.096h9.422v9.422A4.096 4.096 0 0 0 17.614 34h12.29A4.096 4.096 0 0 0 34 29.904v-12.29a4.096 4.096 0 0 0-4.096-4.096h-9.422V4.096A4.096 4.096 0 0 0 16.386 0H4.096Z" clip-rule="evenodd"/><path fill="#fff" fill-rule="evenodd" d="M13.732 14.141a1.843 1.843 0 1 1 .851-.887l5.752 5.753a1.843 1.843 0 1 1-.886.851l-5.717-5.717Z" clip-rule="evenodd"/><defs><linearGradient id="a" x1="-.41" x2="34.41" y1="-.41" y2="34.41" gradientUnits="userSpaceOnUse"><stop stop-color="#1E85FF"/><stop offset=".318" stop-color="#1E85FF"/><stop offset=".5" stop-color="#65ACFF"/><stop offset=".693" stop-color="#1E85FF"/><stop offset=".828" stop-color="#1E85FF"/><stop offset="1" stop-color="#1E85FF"/></linearGradient></defs></svg>