<svg xmlns="http://www.w3.org/2000/svg" width="33" height="33" fill="none"><path fill="url(#a)" fill-rule="evenodd" d="M3.976 0A3.976 3.976 0 0 0 0 3.976v11.928a3.976 3.976 0 0 0 3.976 3.976h9.144v9.144A3.976 3.976 0 0 0 17.096 33h11.928A3.976 3.976 0 0 0 33 29.024V17.096a3.976 3.976 0 0 0-3.976-3.976H19.88V3.976A3.976 3.976 0 0 0 15.905 0H3.976Z" clip-rule="evenodd"/><rect width="19.88" height="19.88" fill="#E53935" rx="3.976"/><rect width="19.88" height="19.88" x="12.723" y="12.723" fill="#fff" rx="3.976"/><rect width="19.88" height="19.88" x="13.12" y="13.12" fill="#E53935" rx="3.976"/><path fill="#fff" d="m21.753 18.954-.745.745-8.045-8.045.745-.745a.55.55 0 0 0-.388-.938h-2.786a.55.55 0 0 0-.55.55v2.785c0 .49.592.735.938.389l.746-.746 8.045 8.045-.746.746a.55.55 0 0 0 .389.938h2.786a.55.55 0 0 0 .55-.55v-2.786a.55.55 0 0 0-.939-.388ZM5.983 3.082v5.099H4.977V4.242l-1.21.385v-.793l2.108-.752h.108ZM29.673 28.864v.787h-3.48v-.671l1.646-1.765c.165-.184.296-.346.391-.486.096-.142.164-.269.206-.38a.926.926 0 0 0-.01-.72.573.573 0 0 0-.227-.26.678.678 0 0 0-.364-.09.7.7 0 0 0-.398.112.71.71 0 0 0-.252.31 1.15 1.15 0 0 0-.084.452h-1.01c0-.303.073-.58.217-.832a1.59 1.59 0 0 1 .612-.605c.263-.151.575-.227.936-.227.357 0 .657.058.902.175.247.114.433.28.559.496.128.215.192.47.192.769 0 .168-.027.332-.08.493-.054.158-.13.317-.23.475a3.826 3.826 0 0 1-.357.475c-.14.161-.295.328-.465.5l-.884.992h2.18Z"/><defs><linearGradient id="a" x1="-.398" x2="33.398" y1="-.398" y2="33.398" gradientUnits="userSpaceOnUse"><stop stop-color="#E53935"/><stop offset=".375" stop-color="#E63C35"/><stop offset=".5" stop-color="#F0746F"/><stop offset=".62" stop-color="#E63C35"/><stop offset="1" stop-color="#E53935"/></linearGradient></defs></svg>