<svg xmlns="http://www.w3.org/2000/svg" width="34" height="32" fill="none"><path fill="#1E85FF" fill-rule="evenodd" d="m10.72 26.878-4.147-.473a.25.25 0 0 0-.276.22l-.114.994a.25.25 0 0 0 .22.277l2.035.231a3.66 3.66 0 0 1-3.116 1.162 3.665 3.665 0 0 1-3.228-4.058c.1-.884.507-1.658 1.1-2.229l-1.012-1.105A5.146 5.146 0 0 0 .605 25.05a5.154 5.154 0 0 0 4.51 5.725 5.153 5.153 0 0 0 4.046-1.26l-.184 1.616a.25.25 0 0 0 .22.277l.994.113a.25.25 0 0 0 .277-.22l.472-4.147a.25.25 0 0 0-.22-.276Z" clip-rule="evenodd"/><rect width="21.333" height="21.333" x="1.28" fill="#1E85FF" rx="4.267"/><rect width="21.333" height="21.333" x="11.52" y="10.24" fill="#fff" rx="4.267"/><path fill="#1E85FF" d="M11.947 14.933a4.267 4.267 0 0 1 4.266-4.266h12.8a4.267 4.267 0 0 1 4.267 4.266v12.8A4.267 4.267 0 0 1 29.013 32h-12.8a4.267 4.267 0 0 1-4.266-4.267v-12.8Z"/><circle cx="28.373" cy="15.147" r="2.347" stroke="#fff" stroke-width=".853"/><path fill="#fff" d="M11.947 26.487v-1.731l3.255-3.04a1.493 1.493 0 0 1 2.193.168l1.016 1.292c.078.1.227.11.317.02L22.5 19.47a1.493 1.493 0 0 1 2.286.224l7.396 10.9a4.29 4.29 0 0 1-.994.815L23.727 20.41a.213.213 0 0 0-.327-.032l-3.772 3.728a1.493 1.493 0 0 1-2.224-.14l-1.015-1.291a.213.213 0 0 0-.314-.024l-4.118 3.846-.01-.011Z"/></svg>