<svg xmlns="http://www.w3.org/2000/svg" width="78" height="75" fill="none"><rect width="50" height="50" x="28" y="25" fill="#1E85FF" rx="10"/><rect width="50" height="50" x="4" y="1" fill="#fff" rx="10"/><path fill="#1E85FF" fill-rule="evenodd" d="m25.125 62.995-9.72-1.108a.586.586 0 0 0-.648.516l-.265 2.329a.586.586 0 0 0 .516.648l4.767.544a8.578 8.578 0 0 1-7.302 2.722 8.59 8.59 0 0 1-7.565-9.511 8.56 8.56 0 0 1 2.58-5.223l-2.375-2.59a12.06 12.06 0 0 0-3.695 7.389 12.08 12.08 0 0 0 10.568 13.418 12.078 12.078 0 0 0 9.486-2.954l-.432 3.79a.586.586 0 0 0 .516.648l2.329.265a.586.586 0 0 0 .648-.516l1.107-9.719a.586.586 0 0 0-.515-.648Z" clip-rule="evenodd"/><rect width="50" height="50" x="3" fill="#C3401F" rx="10"/><path fill="#fff" d="M35.91 21.36c0 1.06-.25 2.06-.75 3s-1.3 1.71-2.4 2.31c-1.1.58-2.51.87-4.23.87h-3.78V36h-3.42V15.15h7.2c1.6 0 2.95.28 4.05.84 1.12.54 1.95 1.28 2.49 2.22.56.94.84 1.99.84 3.15Zm-7.38 3.39c1.3 0 2.27-.29 2.91-.87.64-.6.96-1.44.96-2.52 0-2.28-1.29-3.42-3.87-3.42h-3.78v6.81h3.78Z"/></svg>