<svg xmlns="http://www.w3.org/2000/svg" width="65" height="65" fill="none"><path fill="#66BB6A" fill-rule="evenodd" d="M10 0C4.477 0 0 4.477 0 10v30c0 5.523 4.477 10 10 10h4V24c0-5.523 4.477-10 10-10h26v-4c0-5.523-4.477-10-10-10H10Z" clip-rule="evenodd"/><rect width="50" height="50" x="15" y="15" fill="#66BB6A" rx="10"/><path fill="#fff" stroke="#fff" stroke-linecap="round" stroke-linejoin="round" d="M44.667 39.333h-9.334c-.736 0-1.333.597-1.333 1.333v4.667c0 .736.597 1.333 1.333 1.333h9.334c.736 0 1.333-.597 1.333-1.333v-4.667c0-.736-.597-1.333-1.333-1.333Z"/><path stroke="#fff" stroke-linecap="round" stroke-linejoin="round" stroke-width="1.5" d="M36.666 39.333v-2.667a3.333 3.333 0 0 1 6.667 0v2.667"/><path stroke="#fff" stroke-linecap="round" stroke-linejoin="round" stroke-width="2" d="M40 57s13-6.6 13-16.5V28.95L40 24l-13 4.95V40.5C27 50.4 40 57 40 57Z"/></svg>