<svg xmlns="http://www.w3.org/2000/svg" width="34" height="34" fill="none"><path fill="#E53935" fill-rule="evenodd" d="M5.083 0A5.083 5.083 0 0 0 0 5.083V20.33a5.083 5.083 0 0 0 5.083 5.082h2.033V12.198a5.083 5.083 0 0 1 5.082-5.082h13.215V5.083A5.083 5.083 0 0 0 20.331 0H5.083Z" clip-rule="evenodd"/><rect width="25.413" height="25.413" x="7.624" y="7.624" fill="#E53935" rx="5.083"/><path fill="#fff" d="M15.534 25.238a1.191 1.191 0 0 0 1.191 1.192h7.148a1.191 1.191 0 0 0 1.19-1.192V16.9h-9.53v8.338Zm6.75-6.353a.397.397 0 1 1 .794 0v5.56a.397.397 0 0 1-.794 0v-5.56Zm-2.382 0a.397.397 0 1 1 .794 0v5.56a.397.397 0 0 1-.794 0v-5.56Zm-2.383 0a.397.397 0 0 1 .795 0v5.56a.397.397 0 0 1-.795 0v-5.56Zm7.942-4.368h-2.978l-.233-.464a.596.596 0 0 0-.534-.33h-2.837a.59.59 0 0 0-.53.33l-.234.464h-2.978a.397.397 0 0 0-.397.397v.795a.397.397 0 0 0 .397.397H25.46a.397.397 0 0 0 .397-.397v-.795a.397.397 0 0 0-.397-.397Z"/></svg>