<svg xmlns="http://www.w3.org/2000/svg" width="34" height="34" fill="none"><path fill="#E53935" fill-rule="evenodd" d="M5.083 0A5.083 5.083 0 0 0 0 5.083V20.33a5.083 5.083 0 0 0 5.083 5.082h2.033V12.198a5.083 5.083 0 0 1 5.082-5.082h13.215V5.083A5.083 5.083 0 0 0 20.331 0H5.083Z" clip-rule="evenodd"/><rect width="25.413" height="25.413" x="7.624" y="7.624" fill="#E53935" rx="5.083"/><path fill="#fff" d="M19.5 19.799h-4.97a.298.298 0 0 1-.299-.298v-4.972c0-.164.134-.298.298-.298h1.191c.165 0 .298.134.298.298v1.939a6.139 6.139 0 0 1 4.62-2.038 6.14 6.14 0 0 1 6.11 6.168 6.155 6.155 0 0 1-10.288 4.548.298.298 0 0 1-.011-.433l.843-.843a.297.297 0 0 1 .407-.012 4.352 4.352 0 0 0 2.894 1.095 4.366 4.366 0 0 0 4.368-4.368 4.366 4.366 0 0 0-4.368-4.368 4.36 4.36 0 0 0-3.531 1.795h2.439c.164 0 .298.133.298.298V19.5a.298.298 0 0 1-.298.298Z"/></svg>