<svg xmlns="http://www.w3.org/2000/svg" width="110" height="110" fill="none"><rect width="110" height="110" fill="url(#a)" rx="20"/><path fill="#fff" d="M61.68 38.653V21H32.225C30.438 21 29 22.419 29 24.183v61.53c0 1.763 1.438 3.182 3.225 3.182h45.15c1.787 0 3.225-1.42 3.225-3.183V40.01H63.4c-1.774 0-1.72 0-1.72-1.357Zm18.92-1.488v.809H63.4V21h.82c.86 0 1.68.331 2.284.928L79.66 34.924c.605.596.941 1.405.941 2.24ZM19 31V12a1 1 0 0 1 1-1h13a1 1 0 0 1 1 1v1a1 1 0 0 1-1 1H23a1 1 0 0 0-1 1v16a1 1 0 0 1-1 1h-1a1 1 0 0 1-1-1ZM91 31V12a1 1 0 0 0-1-1H77a1 1 0 0 0-1 1v1a1 1 0 0 0 1 1h10a1 1 0 0 1 1 1v16a1 1 0 0 0 1 1h1a1 1 0 0 0 1-1ZM91 80v18a1 1 0 0 1-1 1H77a1 1 0 0 1-1-1v-.857a1 1 0 0 1 1-1h10a1 1 0 0 0 1-1V80a1 1 0 0 1 1-1h1a1 1 0 0 1 1 1ZM19 80v18a1 1 0 0 0 1 1h13a1 1 0 0 0 1-1v-.857a1 1 0 0 0-1-1H23a1 1 0 0 1-1-1V80a1 1 0 0 0-1-1h-1a1 1 0 0 0-1 1Z"/><defs><radialGradient id="a" cx="0" cy="0" r="1" gradientTransform="rotate(135 55 22.782) scale(155.563)" gradientUnits="userSpaceOnUse"><stop stop-color="#EC645F"/><stop offset="1" stop-color="#E63C35"/></radialGradient></defs></svg>