<svg xmlns="http://www.w3.org/2000/svg" width="34" height="34" fill="none"><path fill="#66BB6A" fill-rule="evenodd" d="M5.23 0A5.23 5.23 0 0 0 0 5.23v15.693a5.23 5.23 0 0 0 5.23 5.23h2.093v-13.6a5.23 5.23 0 0 1 5.23-5.23h13.6V5.231A5.23 5.23 0 0 0 20.924 0H5.231Z" clip-rule="evenodd"/><rect width="26.154" height="26.154" x="7.846" y="7.846" fill="#66BB6A" rx="5.231"/><path fill="#fff" d="M17.612 17.668a1.634 1.634 0 0 0-1.106 1.056l-2.383 7.148.375.375 3.834-3.834a1.213 1.213 0 0 1-.122-.525 1.226 1.226 0 1 1 1.226 1.225c-.19 0-.366-.046-.526-.122l-3.834 3.834.375.375 7.148-2.383a1.634 1.634 0 0 0 1.056-1.106l1.093-3.867-3.27-3.269-3.866 1.093Zm9.229-1.65-1.535-1.536a1.227 1.227 0 0 0-1.735 0l-1.444 1.445 3.27 3.27 1.444-1.445a1.227 1.227 0 0 0 0-1.735Z"/></svg>