<svg xmlns="http://www.w3.org/2000/svg" width="35" height="34" fill="none"><path fill="#1E85FF" d="M26.617 7.663v5.08c0 .144.116.26.259.26a1.813 1.813 0 0 0 1.813-1.813V7.663h.759a2.072 2.072 0 1 0 .247-2.072h-1.006V4.586a2.072 2.072 0 1 0-2.072.246v.76L23.09 5.59a1.813 1.813 0 0 0-1.813 1.813c0 .143.116.26.26.26h5.08ZM30.86 6.35a.692.692 0 1 1 .977.979.692.692 0 0 1-.977-.98Zm-3.908-3.908a.692.692 0 1 1 .977.98.692.692 0 0 1-.977-.98Z"/><path fill="url(#a)" fill-rule="evenodd" d="M0 4.096A4.096 4.096 0 0 1 4.096 0h12.29a4.096 4.096 0 0 1 4.096 4.096v7.994l-.847.846 1.414 1.415.833-.833h8.022A4.096 4.096 0 0 1 34 17.614v12.29A4.096 4.096 0 0 1 29.904 34h-12.29a4.096 4.096 0 0 1-4.096-4.096v-8.022l.853-.853-1.414-1.415-.867.868H4.096A4.096 4.096 0 0 1 0 16.386V4.096Zm15.04 16.265 1.335-1.336-1.415-1.414-1.335 1.336 1.414 1.414Zm2.003-2.004 1.335-1.335-1.414-1.414-1.336 1.335 1.415 1.414Zm2.003-2.003 1.336-1.336-1.415-1.414-1.335 1.336 1.414 1.414Z" clip-rule="evenodd"/><defs><linearGradient id="a" x1="-.41" x2="34.41" y1="-.41" y2="34.41" gradientUnits="userSpaceOnUse"><stop stop-color="#1E85FF"/><stop offset=".375" stop-color="#1E85FF"/><stop offset=".5" stop-color="#65ACFF"/><stop offset=".62" stop-color="#1E85FF"/><stop offset="1" stop-color="#1E85FF"/></linearGradient></defs></svg>