<svg xmlns="http://www.w3.org/2000/svg" width="65" height="65" fill="none"><path fill="#66BB6A" fill-rule="evenodd" d="M10 0C4.477 0 0 4.477 0 10v30c0 5.523 4.477 10 10 10h4V24c0-5.523 4.477-10 10-10h26v-4c0-5.523-4.477-10-10-10H10Z" clip-rule="evenodd"/><rect width="50" height="50" x="15" y="15" fill="#66BB6A" rx="10"/><path fill="#fff" stroke="#fff" stroke-linecap="round" stroke-linejoin="round" stroke-width="2" d="M47.375 39.375h-15.75a2.25 2.25 0 0 0-2.25 2.25V49.5a2.25 2.25 0 0 0 2.25 2.25h15.75a2.25 2.25 0 0 0 2.25-2.25v-7.875a2.25 2.25 0 0 0-2.25-2.25Z"/><path stroke="#fff" stroke-linecap="round" stroke-linejoin="round" stroke-width="2" d="M33.875 39.375v-4.5a5.626 5.626 0 0 1 11.138-1.125"/></svg>