<svg xmlns="http://www.w3.org/2000/svg" width="34" height="34" fill="none"><path fill="#66BB6A" fill-rule="evenodd" d="M5.23 0A5.23 5.23 0 0 0 0 5.23v15.693a5.23 5.23 0 0 0 5.23 5.23h2.093v-13.6a5.23 5.23 0 0 1 5.23-5.23h13.6V5.231A5.23 5.23 0 0 0 20.924 0H5.231Z" clip-rule="evenodd"/><rect width="26.154" height="26.154" x="7.846" y="7.846" fill="#66BB6A" rx="5.231"/><path fill="#fff" d="m19.494 28.655 9.161-9.161-1.309-1.31-9.161 9.162 1.309 1.31Zm2.617-13.088-1.36 1.361a.851.851 0 0 1-1.205 0l-.193-.193c-.56-.56-.911-1.274-1.15-2.028a2.741 2.741 0 0 0-1.051-1.42 2.793 2.793 0 0 0-3.164-.005 2.778 2.778 0 0 0-.384 4.249c.29.29.627.499.987.631.863.318 1.686.733 2.336 1.383l.002.001a.851.851 0 0 1 0 1.204l-1.362 1.361a2.776 2.776 0 0 0 0 3.927l.655.654a.926.926 0 0 0 1.309 0l9.161-9.161a.926.926 0 0 0 0-1.31l-.654-.654a2.776 2.776 0 0 0-3.927 0Z"/></svg>