<svg xmlns="http://www.w3.org/2000/svg" width="78" height="75" fill="none"><rect width="50" height="50" x="28" y="25" fill="#1E85FF" rx="10"/><rect width="50" height="50" x="4" y="1" fill="#fff" rx="10"/><path fill="#1E85FF" fill-rule="evenodd" d="m25.125 62.995-9.72-1.108a.586.586 0 0 0-.648.516l-.265 2.329a.586.586 0 0 0 .516.648l4.767.544a8.578 8.578 0 0 1-7.302 2.722 8.59 8.59 0 0 1-7.565-9.511 8.56 8.56 0 0 1 2.58-5.223l-2.375-2.59a12.06 12.06 0 0 0-3.695 7.389 12.08 12.08 0 0 0 10.568 13.418 12.078 12.078 0 0 0 9.486-2.954l-.432 3.79a.586.586 0 0 0 .516.648l2.329.265a.586.586 0 0 0 .648-.516l1.107-9.719a.586.586 0 0 0-.515-.648Z" clip-rule="evenodd"/><rect width="50" height="50" x="3" fill="#1E85FF" rx="10"/><path stroke="#fff" stroke-linecap="round" stroke-linejoin="round" stroke-width="2" d="M24.5 35.25c7.594 0 13.75-6.156 13.75-13.75S32.094 7.75 24.5 7.75 10.75 13.906 10.75 21.5s6.156 13.75 13.75 13.75ZM10.75 21.5h27.5"/><path stroke="#fff" stroke-linecap="round" stroke-linejoin="round" stroke-width="2" d="M24.5 7.75A21.037 21.037 0 0 1 30 21.5a21.037 21.037 0 0 1-5.5 13.75A21.037 21.037 0 0 1 19 21.5a21.037 21.037 0 0 1 5.5-13.75v0ZM33.375 30.375l5.597 13.435 1.987-5.85 5.85-1.988-13.434-5.597ZM41.291 38.292l4.75 4.75"/></svg>