<svg width="78" height="75" fill="none" xmlns="http://www.w3.org/2000/svg"><rect x="28" y="25" width="50" height="50" rx="10" fill="#1E85FF"/><rect x="4" y="1" width="50" height="50" rx="10" fill="#fff"/><path fill-rule="evenodd" clip-rule="evenodd" d="m25.125 62.995-9.72-1.108a.586.586 0 0 0-.648.516l-.265 2.329a.586.586 0 0 0 .516.648l4.767.544a8.578 8.578 0 0 1-7.302 2.722 8.59 8.59 0 0 1-7.565-9.511 8.56 8.56 0 0 1 2.58-5.223l-2.375-2.59a12.06 12.06 0 0 0-3.695 7.389 12.08 12.08 0 0 0 10.568 13.418 12.078 12.078 0 0 0 9.486-2.954l-.432 3.79a.586.586 0 0 0 .516.648l2.329.265a.586.586 0 0 0 .648-.516l1.107-9.719a.586.586 0 0 0-.515-.648Z" fill="#1E85FF"/><rect x="3" width="50" height="50" rx="10" fill="#1757B8"/><path d="M42.415 15.15 36.235 36h-3.87l-4.38-15.78L23.335 36l-3.84.03-5.91-20.88h3.63l4.32 16.98 4.68-16.98h3.84l4.35 16.89 4.35-16.89h3.66Z" fill="#fff"/></svg>